<svg width="80" height="80" viewBox="0 0 80 80" fill="none" xmlns="http://www.w3.org/2000/svg">
<g id="assembly 1" clip-path="url(#clip0_3751_90)">
<path id="Vector" d="M43.8722 42.5806H41.2916V45.1612H38.7109V47.7419H41.2916V50.3225H43.8722V47.7419H46.4529V45.1612H43.8722V42.5806Z" fill="#EDD918"/>
<path id="Vector_2" d="M80 24.5161V11.6129H73.5484V6.75592L76.9267 0H62.4282L65.8065 6.75592V11.6129H62.5082C61.6129 10.0775 59.9666 9.03226 58.0645 9.03226H37.4194C34.5728 9.03226 32.2581 11.347 32.2581 14.1935H25.8065V9.03226H6.45161C2.89441 9.03226 0 11.9267 0 15.4839V16.7742H14.1935V19.3548H0V20.6452C0 24.2024 2.89441 27.0968 6.45161 27.0968H25.8065V21.9355H32.2581C32.2581 24.782 34.5728 27.0968 37.4194 27.0968H38.2453L33.9743 40.7668C32.8919 42.3973 32.2581 44.3511 32.2581 46.4516C32.2581 52.1434 36.8889 56.7742 42.5806 56.7742C43.0904 56.7742 43.5881 56.7251 44.0789 56.6526L46.1675 67.0968H44.3637L41.783 72.2581H38.7097V80H80V72.2581H76.9267L74.346 67.0968H72.2581V57.3343L53.0967 45.8373L57.7804 27.0968H58.0645C59.9666 27.0968 61.6129 26.0515 62.5082 24.5161H65.8065V28.0828L62.4282 34.8387H76.9267L73.5484 28.0828V24.5161H80ZM2.80116 14.1935C3.33417 12.6915 4.76878 11.6129 6.45161 11.6129H23.2258V14.1935H2.80116ZM23.2258 24.5161H6.45161C4.76878 24.5161 3.33417 23.4375 2.80116 21.9355H23.2258V24.5161ZM25.8065 19.3548H16.7742V16.7742H32.2581V19.3548H25.8065ZM34.8387 46.4516C34.8387 42.1818 38.3109 38.7097 42.5806 38.7097C46.8504 38.7097 50.3226 42.1818 50.3226 46.4516C50.3226 50.7214 46.8504 54.1936 42.5806 54.1936C38.3109 54.1936 34.8387 50.7214 34.8387 46.4516ZM52.6764 48.595L61.199 53.7084L47.396 60.0788L46.5745 55.969C49.6503 54.6736 51.9689 51.9292 52.6764 48.595ZM63.6914 55.2041L68.1741 57.8944L48.6901 66.5537L47.9158 62.6815L63.7664 55.3667L63.6914 55.2041ZM77.4194 77.4194H41.2903V74.8387H77.4194V77.4194ZM74.0411 72.2581H44.6686L45.9589 69.6774H72.7508L74.0411 72.2581ZM53.8218 67.0968L69.6774 60.0504V67.0968H53.8218ZM51.5537 41.3691C49.777 38.2453 46.4245 36.129 42.5806 36.129C40.8348 36.129 39.191 36.5675 37.7482 37.3368L40.9482 27.0968H55.1229L51.5537 41.3691ZM60.6452 21.9355C60.6452 23.3587 59.4878 24.5161 58.0645 24.5161H37.4194C35.9961 24.5161 34.8387 23.3587 34.8387 21.9355V14.1935C34.8387 12.7703 35.9961 11.6129 37.4194 11.6129H58.0645C59.4878 11.6129 60.6452 12.7703 60.6452 14.1935V21.9355ZM72.7508 2.58065L71.4604 5.16129H67.8944L66.6041 2.58065H72.7508ZM68.3871 7.74194H70.9677V11.6129H68.3871V7.74194ZM77.4194 14.1935V16.7742H63.2258V14.1935H77.4194ZM63.2258 19.3548H77.4194V21.9355H63.2258V19.3548ZM66.6041 32.2581L67.8944 29.6774H71.4604L72.7508 32.2581H66.6041ZM70.9677 27.0968H68.3871V24.5161H70.9677V27.0968Z" fill="#EDD918"/>
<path id="Vector_3" d="M42.5819 14.1936C40.448 14.1936 38.7109 15.9306 38.7109 18.0646C38.7109 20.1985 40.448 21.9355 42.5819 21.9355C44.7159 21.9355 46.4529 20.1985 46.4529 18.0646C46.4529 15.9306 44.7159 14.1936 42.5819 14.1936ZM42.5819 19.3549C41.87 19.3549 41.2916 18.7753 41.2916 18.0646C41.2916 17.3539 41.87 16.7742 42.5819 16.7742C43.2939 16.7742 43.8722 17.3539 43.8722 18.0646C43.8722 18.7753 43.2939 19.3549 42.5819 19.3549Z" fill="#EDD918"/>
<path id="Vector_4" d="M52.9022 14.1936C50.7683 14.1936 49.0312 15.9306 49.0312 18.0646C49.0312 20.1985 50.7683 21.9355 52.9022 21.9355C55.0362 21.9355 56.7732 20.1985 56.7732 18.0646C56.7732 15.9306 55.0362 14.1936 52.9022 14.1936ZM52.9022 19.3549C52.1903 19.3549 51.6119 18.7753 51.6119 18.0646C51.6119 17.3539 52.1903 16.7742 52.9022 16.7742C53.6142 16.7742 54.1925 17.3539 54.1925 18.0646C54.1925 18.7753 53.6142 19.3549 52.9022 19.3549Z" fill="#EDD918"/>
<path id="Vector_5" d="M27.0042 58.7267L29.0915 56.226L23.7739 50.9072L21.2733 52.9958C20.7119 52.7136 20.1317 52.4735 19.5344 52.2763L19.244 49.0322H11.7238L11.4321 52.2776C10.8348 52.4748 10.2539 52.7148 9.69317 52.9977L7.19254 50.9085L1.875 56.2273L3.96232 58.7279C3.68007 59.288 3.44002 59.8683 3.24282 60.4656L0 60.756V68.2762L3.24534 68.5679C3.44128 69.1639 3.68259 69.7461 3.96547 70.3055L1.87752 72.8062L7.19506 78.125L9.69569 76.0364C10.2571 76.3186 10.8373 76.5587 11.4346 76.7559L11.7238 80H19.244L19.5357 76.7546C20.1329 76.5574 20.7138 76.3174 21.2746 76.0345L23.7752 78.1237L29.0927 72.8049L27.0054 70.3043C27.2877 69.7442 27.5277 69.1639 27.7249 68.5666L30.9677 68.2762V60.756L27.7224 60.4643C27.5265 59.867 27.2852 59.2861 27.0042 58.7267ZM28.3871 65.9173L25.7044 66.1586L25.4801 67.0463C25.2363 68.0153 24.8532 68.9409 24.3403 69.7958L23.871 70.5821L25.5985 72.6505L23.6183 74.632L21.5486 72.9032L20.7636 73.3726C19.9099 73.8835 18.9844 74.2672 18.0129 74.5123L17.1251 74.7366L16.8851 77.4193H14.0827L13.8414 74.7366L12.9536 74.5123C11.9821 74.2672 11.0566 73.8835 10.2029 73.3726L9.4191 72.9032L7.34942 74.6308L5.3692 72.6493L7.09677 70.5821L6.62739 69.7958C6.11643 68.9409 5.73274 68.0153 5.48765 67.0463L5.26336 66.1586L2.58065 65.9173V63.1149L5.26336 62.8736L5.48765 61.9859C5.73148 61.0169 6.11454 60.0913 6.62739 59.2364L7.09677 58.4501L5.3692 56.3816L7.34942 54.4002L9.4191 56.129L10.2041 55.6596C11.0578 55.1487 11.9834 54.765 12.9549 54.5199L13.8426 54.2956L14.0827 51.6129H16.8851L17.1264 54.2956L18.0141 54.5199C18.9856 54.765 19.9112 55.1487 20.7649 55.6596L21.5486 56.129L23.6183 54.4014L25.5985 56.3829L23.871 58.4501L24.3403 59.2364C24.8513 60.0913 25.235 61.0169 25.4801 61.9859L25.7044 62.8736L28.3871 63.1149V65.9173Z" fill="#EDD918"/>
<path id="Vector_6" d="M15.4841 56.7742C11.2143 56.7742 7.74219 60.2463 7.74219 64.5161C7.74219 68.7859 11.2143 72.258 15.4841 72.258C19.7539 72.258 23.2261 68.7859 23.2261 64.5161C23.2261 60.2463 19.7539 56.7742 15.4841 56.7742ZM15.4841 69.6774C12.6376 69.6774 10.3228 67.3626 10.3228 64.5161C10.3228 61.6696 12.6376 59.3548 15.4841 59.3548C18.3306 59.3548 20.6454 61.6696 20.6454 64.5161C20.6454 67.3626 18.3306 69.6774 15.4841 69.6774Z" fill="#EDD918"/>
<path id="Vector_7" d="M14.1953 29.6775H16.776V32.2581H14.1953V29.6775Z" fill="#EDD918"/>
<path id="Vector_8" d="M14.1953 34.8386H16.776V37.4193H14.1953V34.8386Z" fill="#EDD918"/>
<path id="Vector_9" d="M14.1953 40H16.776V42.5806H14.1953V40Z" fill="#EDD918"/>
</g>
<defs>
<clipPath id="clip0_3751_90">
<rect width="80" height="80" fill="white"/>
</clipPath>
</defs>
</svg>
