<svg width="64" height="60" fill="none" xmlns="http://www.w3.org/2000/svg"><g fill="#1F294C"><path d="M58.16 9.329h-1.616l-3.27-6.21A5.82 5.82 0 0 0 48.108 0H15.89a5.824 5.824 0 0 0-5.167 3.118l-3.268 6.21H5.838A5.848 5.848 0 0 0 0 15.169v5.425a1.628 1.628 0 0 0 3.254 0v-5.425a2.59 2.59 0 0 1 2.584-2.584h48.098V48.05a5.233 5.233 0 0 1-5.23 5.225H15.294a5.23 5.23 0 0 1-5.224-5.225V35.898c2.794 2.754 6.079 6.73 10.43 6.443h22.997c2.22.173 8.759-2.11 6.747-5.013a1.63 1.63 0 0 0-2.377-.026 6.211 6.211 0 0 1-4.37 1.784H20.502a6.211 6.211 0 0 1-4.37-1.784l-6.074-5.952V19.632c0-2.116-3.25-2.135-3.254 0V48.05c0 4.748 3.918 8.576 8.66 8.48.002 1.356-.317 3.4 1.627 3.47 1.944-.07 1.625-2.116 1.627-3.47h26.577c.002 1.356-.317 3.4 1.627 3.47 1.944-.07 1.625-2.116 1.627-3.47 4.734.083 8.637-3.74 8.637-8.48V12.584c1.779-.21 3.523.6 3.56 2.584v5.425c.008 2.127 3.245 2.131 3.254 0v-5.425a5.857 5.857 0 0 0-5.84-5.84Zm-47.028 0 2.47-4.694a2.585 2.585 0 0 1 2.287-1.38h32.22c.958 0 1.84.532 2.286 1.38l2.473 4.694H11.132Z"/><path d="M44.625 47.81c.052 3.011 4.532 3.011 4.582 0-.052-3.013-4.532-3.013-4.582 0ZM14.797 47.81c.052 3.011 4.532 3.011 4.582 0-.052-3.013-4.532-3.013-4.582 0ZM27.408 46.182c-2.124.008-2.13 3.246 0 3.255h9.179c2.124-.01 2.13-3.247 0-3.255h-9.18Z"/></g></svg>