<svg width="60" height="60" fill="none" xmlns="http://www.w3.org/2000/svg"><defs><clipPath id="a"><path fill="#fff" fill-opacity="0" d="M0 0h60v60H0z"/></clipPath></defs><g clip-path="url(#a)"><path d="M16.36 12.07c-.188.059-.516.282-.743.492-.726.704-.773 1.782-.14 2.883.765 1.348 2.039 1.793 3.976 1.371.422-.082.797-.128.828-.082.047.047.399 1.418.813 3.047.633 2.555.71 2.977.57 3.153-.094.117-.656.82-1.266 1.558-.609.738-1.125 1.371-1.148 1.406-.023.024-.188-.046-.36-.152-.82-.527-2.46-1.277-3.343-1.535a12.117 12.117 0 0 0-14.094 5.953c-1.937 3.633-1.937 7.758 0 11.39C3 44.474 5.766 46.7 8.906 47.567c5.914 1.63 12.219-1.488 14.492-7.172.165-.398.32-.738.329-.761.023-.024.25.094.492.246.46.293.906.445 1.843.633.454.093.47.117.758 1.02.227.69.274.937.164.972-.64.223-.867 1.02-.398 1.477.234.246.367.257 1.992.257 1.547 0 1.774-.023 1.992-.222.164-.153.25-.364.25-.668 0-.598-.32-.809-1.187-.809h-.656l-.375-1.207c-.196-.656-.36-1.242-.36-1.3 0-.06.211-.282.453-.505.258-.21.625-.715.82-1.113.32-.61.368-.844.368-1.605 0-.645-.07-1.043-.25-1.418l-.235-.528 6.165-6.14c3.562-3.551 6.21-6.094 6.273-6.035.117.117.82 1.921.82 2.097 0 .059-.328.293-.742.492-.922.492-2.46 1.7-3.14 2.52-2.212 2.59-3.141 5.297-3 8.683.07 1.747.374 3.012 1.093 4.524 2.508 5.344 8.555 8.133 14.227 6.562 4.5-1.254 7.976-5.132 8.726-9.773.883-5.344-1.945-10.64-6.898-12.961-2.336-1.09-4.797-1.371-7.547-.844-.54.094-1 .153-1.023.13-.141-.141-2.282-5.93-2.282-6.165 0-.152.149-.433.336-.621l.344-.34h1.977c2.25 0 2.601.106 3 .867.28.54.203 1.114-.243 1.618-.28.304-.437.363-1.125.433-.906.094-1.242.352-1.242.938 0 .562.43.832 1.297.832.984 0 1.773-.364 2.43-1.114 1.39-1.582.922-3.972-.961-4.957-.578-.293-.68-.316-2.79-.351-2.57-.047-3.187.07-3.882.738-.57.563-.797 1.02-.867 1.805-.047.492 0 .82.187 1.3.14.352.25.68.25.739 0 .047-4.023.07-8.93.058l-8.93-.035-.437-1.758c-.242-.96-.43-1.77-.406-1.78.008-.024.68-.165 1.485-.329.796-.164 1.585-.387 1.75-.516.539-.386.82-.937.82-1.593 0-.774-.344-1.313-1.055-1.676-.508-.258-.601-.258-4.453-.246-2.156 0-4.078.058-4.266.105Zm8.015 1.805c0 .105-.86.328-3.016.762-1.664.328-3.14.597-3.289.597-.445 0-.914-.316-1.125-.761-.375-.786-.492-.762 3.68-.762 3.07 0 3.75.023 3.75.164Zm9.781 13.781-5.984 5.989-.516-.235c-.297-.129-.695-.246-.89-.246-.203 0-.422-.07-.485-.152-.101-.13-2.843-10.934-2.843-11.215 0-.082 2.812-.117 8.343-.117h8.352l-5.977 5.976Zm-10.664 1.746c.836 3.364 1 4.16.867 4.23-.078.06-.172.095-.187.071a20.123 20.123 0 0 1-.328-1.078c-.524-1.816-1.313-3.293-2.563-4.758-.422-.504-.633-.855-.586-.937.055-.082.43-.563.852-1.067.508-.597.789-.855.836-.761.047.082.547 2.015 1.11 4.3Zm-9.078-3.668c.422.094 1.055.282 1.406.41.664.247 2.063.985 2.157 1.137.023.047-1.329 1.746-3 3.774-4.172 5.039-3.977 4.734-3.461 5.343l.28.317 3.04.21c1.664.118 3.21.212 3.422.223.383 0 .383.012.312.375-.164.786-.89 2.086-1.57 2.825-1.32 1.406-2.914 2.097-4.875 2.097-1.86.012-3.375-.62-4.688-1.945-1.273-1.3-1.875-2.766-1.875-4.64 0-1.91.602-3.364 1.946-4.7 1.265-1.254 2.789-1.863 4.726-1.922 1.102-.023 1.274-.082 1.461-.48.188-.422.164-.574-.148-.95-.281-.316-.32-.328-1.445-.316-1.43.024-2.368.246-3.727.914C4.5 30.305 2.742 34.981 4.383 39c1.39 3.457 5.11 5.66 8.703 5.18 2.086-.27 3.437-.95 4.969-2.461.82-.82 1.101-1.207 1.539-2.075.304-.585.61-1.359.68-1.71l.148-.645.953.059c.516.035.969.082.992.105.094.082-.242 1.395-.586 2.274-.64 1.699-2.062 3.48-3.687 4.64-1.985 1.418-4.711 2.11-7.14 1.805a10.52 10.52 0 0 1-8.868-7.688c-.352-1.312-.367-3.925 0-5.215 1.125-4.113 4.547-7.136 8.719-7.722.922-.129 2.601-.035 3.61.187Zm35.906.047c4.04 1.032 7.04 4.266 7.758 8.344.945 5.402-2.531 10.57-7.992 11.883-1.195.293-3.344.27-4.656-.047-4.696-1.148-7.93-5.273-7.93-10.102 0-3.703 1.86-7.007 5.04-8.918.85-.503.773-.55 1.218.622l.289.785-.61.375c-.867.527-2.023 1.687-2.601 2.566-.945 1.488-1.344 2.813-1.344 4.582 0 2.332.781 4.195 2.508 5.906.852.856 1.266 1.16 2.063 1.559 1.296.633 2.343.879 3.804.879 1.446 0 2.344-.211 3.75-.903 3.328-1.628 5.156-5.355 4.469-9.023a8.389 8.389 0 0 0-5.43-6.316c-1.25-.457-1.687-.492-2.062-.2-.235.188-.313.352-.313.657 0 .527.305.808 1.063.972.343.082 1.023.328 1.5.551 1.07.516 2.242 1.652 2.804 2.707.47.89.844 2.309.844 3.2 0 .363-.11 1.078-.234 1.57-.586 2.308-2.156 3.984-4.453 4.758-1.047.363-2.782.363-3.867.011-1.75-.55-3.282-1.863-4.032-3.433-1.375-2.918-.601-6.176 1.953-8.192.32-.258.633-.457.72-.457.077 0 .64 1.324 1.312 3.07.632 1.7 1.25 3.176 1.367 3.282.32.328.953.27 1.242-.094.14-.176.25-.387.25-.469 0-.082-.82-2.285-1.82-4.898-.992-2.613-1.813-4.852-1.836-4.957-.11-.574 3.328-.762 5.226-.27ZM20.094 29.18c1.383 1.652 2.406 4.183 2.406 5.976v.469h-.633c-.344 0-.797-.035-1-.07-.312-.07-.36-.13-.36-.457 0-1.172-.976-3.516-1.898-4.57L18.141 30l.617-.762c.344-.422.648-.761.68-.75.039 0 .328.317.656.692Zm-2.625 2.718c.203.282.515.82.695 1.207.328.704.68 2.122.547 2.239-.031.035-1.125 0-2.422-.094l-2.367-.152 1.5-1.84c.828-1.008 1.547-1.84 1.594-1.84.054-.012.257.21.453.48Zm9.789 3.27c1.133.691 1.18 2.496.078 3.21-1.805 1.184-3.898-.972-2.656-2.73.515-.726 1.789-.972 2.578-.48Z" fill="#000"/></g></svg>