<svg width="67.203" height="60" fill="none" xmlns="http://www.w3.org/2000/svg"><path d="M33.336.167c-1.414.407-2.219.894-3.008 1.853-.578.709-1.062 1.93-1.062 2.717v.5H27.64c-1.711 0-2.368.131-2.578.525-.211.394-.157.893.132 1.182.235.237.43.263 2.086.263 1.016 0 1.867.04 1.89.092.04.065.095 1.01.11 2.128l.047 2.022-.601.144a5.034 5.034 0 0 0-1.04.433c-.64.395-13.71 13.54-13.96 14.027-.313.63-.47 1.76-.352 2.456.219 1.181.602 1.668 4.11 5.187l3.413 3.44-.539.632c-.289.341-.734.827-1 1.077l-.453.446-.742-.499c-1.008-.657-2.703-1.432-3.805-1.72-1.406-.382-4.375-.343-5.78.052-8.61 2.456-11.462 13.055-5.196 19.345.484.472 1.047.985 1.258 1.142l.39.277-1.437.012c-.79.014-1.656.08-1.906.171-.883.302-.883 1.458 0 1.76.601.197 64.023.236 64.757.04.305-.079.524-.25.618-.474.226-.472.195-.643-.157-1.063l-.32-.368-2.961-.04-2.969-.038.625-.5c2.89-2.285 4.524-5.923 4.32-9.665-.257-5.043-3.593-9.181-8.523-10.573-1.758-.499-4.945-.472-6.289.066-.156.065-.297-.145-.617-.906-.234-.552-.422-1.011-.422-1.051 0-.027 1.11-.078 2.469-.105 2.812-.052 3.258-.17 4.218-1.156 1.75-1.799 1.25-4.767-1.007-5.923-.492-.249-.867-.328-1.828-.354l-1.22-.053v-1.063c0-1.353-.304-2.05-1.109-2.522-.539-.315-.656-.328-2.703-.328h-2.156l-2.953-1.603c-2.102-1.142-3.188-1.812-3.719-2.299-.562-.524-.867-.695-1.156-.695-.523 0-.914.407-.914.958 0 .356.14.566.828 1.236.664.656 1.375 1.102 4.031 2.547l3.219 1.76 2.297.066 2.297.065.039.407.039.42-.617-.314a2.848 2.848 0 0 0-3.313.577l-.351.38-3.844-1.785-3.852-1.787-2.047-1.641c-3.734-2.98-3.718-2.98-4.437-2.233-.211.21-.453.395-.555.395-.093 0-.554-.368-1.023-.802-.617-.59-.985-1.077-1.344-1.772-.414-.867-.484-1.104-.539-2.285-.063-1.498-.008-1.63.79-1.84.92-.25 1.273-.026 3.616 2.272 1.813 1.786 2.188 2.102 2.532 2.102.843 0 1.21-.945.656-1.654l-.274-.342.5-.08c2.258-.38 4.125-2.008 4.86-4.254.25-.775.39-5.556.195-6.96-.313-2.22-1.773-3.77-4.164-4.427-.813-.223-3.07-.223-3.875 0Zm4.14 2.154c1.11.512 1.774 1.326 1.938 2.416l.078.5h-8.258v-.433C31.25 3.766 32.29 2.53 33.47 2.15c.93-.301 3.164-.197 4.008.171Zm-5.35 7.409c.016 1.47-.008 2.468-.086 2.468-.07 0-.266-.275-.437-.63-.258-.539-.297-.84-.344-2.496l-.04-1.878.438.04.43.04.039 2.456Zm7.32-.736c-.015 1.68-.03 1.746-.437 2.587-.5.998-1.235 1.68-2.258 2.075-.64.25-1.742.328-2.32.171l-.305-.079v-6.54l2.664.026 2.656.04v1.72Zm-12.226 9.43c.422.919 1.406 2.192 2.11 2.718.32.25.593.499.593.578 0 .17-5.672 5.845-5.844 5.845-.078 0-1.172-1.039-2.43-2.3l-2.296-2.297 3.546-3.546 3.547-3.546.22.945c.132.512.382 1.235.554 1.603Zm7.445 4.767 1.758 1.418-1.969.04c-1.078.026-2.523 0-3.203-.04l-1.234-.091 1.367-1.367c.742-.749 1.398-1.366 1.445-1.366.047 0 .875.631 1.836 1.405Zm-12.258 5.594 4.367 4.36-1.75 1.748-1.734 1.733-3.914-3.914c-2.914-2.915-3.922-4.019-4.031-4.36-.235-.828.039-1.38 1.351-2.718.657-.67 1.227-1.222 1.266-1.222.047 0 2.047 1.97 4.445 4.373Zm7.516.224v2.495h-2.04l-1.203-1.208-1.227-1.222 1.281-1.273 1.282-1.287h1.904v2.495Zm8.469-2.18c.57.236.882.736.906 1.404.016.5-.047.605-.906 1.42-.508.472-1.61 1.47-2.453 2.205l-1.524 1.353h-1.258c-1.21 0-1.265-.013-1.265-.29 0-.169.32-.616.789-1.102.89-.92.984-1.313.46-1.825a1.014 1.014 0 0 0-.788-.329h-.461v-3.02h3.023c2.313 0 3.14.04 3.477.183Zm5.375 1.483c1.875.88 1.953.933 2.125 1.432.343.998 1.617 1.892 2.695 1.892.875 0 1.906-.618 2.375-1.446l.305-.525h1.507c1.274 0 1.579.04 1.93.263 1.195.722 1.055 2.417-.25 3.1-.289.157-1.781.183-8.664.183h-8.312l.664-.63c.359-.342 1.093-1.012 1.601-1.497 1.188-1.09 1.524-1.773 1.516-3.02 0-.841.008-.868.273-.762.157.065 1.157.512 2.235 1.01Zm5.304-.144c.563.394.196 1.497-.5 1.497-.312 0-.922-.552-.922-.827 0-.316.532-.88.844-.88.156 0 .422.092.578.21Zm-17.273 7.38c-.219.198-.758.67-1.195 1.052l-.782.682-.086-.617a37.164 37.164 0 0 0-.164-1.063l-.07-.42h1.352l1.367.012-.422.355Zm11.156.907a43.087 43.087 0 0 1-1.476 1.55c-.172.144-.993 1.01-1.852 1.93-1.375 1.471-1.563 1.721-1.563 2.128 0 .539.368.867 1 .867.368 0 .805-.394 4.141-3.874 2.992-3.126 3.766-3.874 4.04-3.874.304 0 .398.13.827 1.22.282.658.524 1.301.563 1.42.07.157-.117.34-.68.682-2.586 1.576-4.594 4.452-5.242 7.499-.234 1.103-.258 3.257-.047 4.387.453 2.574 2.008 5.253 3.922 6.776.437.355.805.67.805.696 0 .013-6.578.04-14.61.04H18.164l.461-.355c2.117-1.603 3.781-4.308 4.297-6.986.133-.658.273-1.196.344-1.196.047 0 .086.447.086.998 0 1.116.203 1.59.789 1.944.304.17.789.21 2.882.21h2.493l.601.38c2.172 1.38 5.086.473 6.266-1.943.25-.486.304-.827.304-1.786 0-1.037-.039-1.273-.367-1.892l-.36-.695.462-.513c.539-.59.601-1.155.195-1.562-.445-.446-1.023-.342-1.648.275l-.54.526-.515-.223c-.344-.145-.852-.224-1.523-.224-.852-.012-1.133.053-1.797.394l-.805.395V39.96l2.664-2.377 2.656-2.39h4.516l4.508-.013-1.18 1.273Zm-15.305-.525c.055.276.11 2.955.11 5.949v5.45l-1.024.04c-.742.026-1.039-.014-1.078-.132-.031-.091-.226-2.206-.437-4.7l-.383-4.532 1.266-1.287c.68-.697 1.296-1.274 1.351-1.274.055 0 .14.223.195.486Zm-4.75 3.047c.063.118.72 7.46.72 8.116 0 .183-.079.303-.196.303-.235 0-.211.078-.578-1.63-.313-1.484-1.016-3.034-1.914-4.268l-.625-.84 1.03-1.024c.83-.841 1.063-1 1.243-.894.133.066.266.171.32.237Zm-8.734.079c.945.289 2.469 1.024 2.914 1.405.352.302.352.302.102.603l-.25.303-.89-.539c-1.993-1.208-4.556-1.55-6.868-.919-2.164.578-4.375 2.416-5.36 4.465-.718 1.472-.945 2.417-.945 3.94 0 1.524.25 2.653.867 3.888 1.875 3.795 6.344 5.752 10.36 4.518 1.437-.447 2.508-1.117 3.695-2.285 1.203-1.208 2.031-2.68 2.336-4.15.156-.828.18-.854.602-.893l.421-.04-.093.63c-.117.828-.625 2.298-1.063 3.047-1.781 3.074-4.875 4.872-8.39 4.872-4.383 0-7.946-2.678-9.274-6.96-.43-1.392-.43-3.834 0-5.253a10.183 10.183 0 0 1 3.14-4.768c.93-.787 2.821-1.72 4.032-1.982 1.18-.263 3.64-.198 4.664.118Zm41.867-.118c2.078.42 4.36 1.838 5.61 3.493 3.32 4.386 2.437 10.572-1.97 13.698-1.726 1.22-2.968 1.642-5.14 1.733-1.93.092-3.086-.131-4.593-.867-3.376-1.628-5.438-4.898-5.454-8.615 0-.723.07-1.615.149-1.97.539-2.469 2.148-4.833 4.148-6.107.594-.367.657-.381.805-.17.289.38.203.499-.766 1.22-3.492 2.601-4.515 7.421-2.375 11.296.602 1.102 2.203 2.704 3.305 3.322 1.46.802 2.594 1.077 4.336 1.064 1.695 0 2.539-.197 3.937-.92 2.961-1.497 4.743-4.412 4.758-7.735.016-1.405-.312-2.915-.71-3.349-.368-.394-1.102-.315-1.454.157-.242.316-.25.408-.094.986.5 1.97.391 3.532-.382 5.096-2.086 4.228-7.5 5.147-10.836 1.838-2.438-2.417-2.72-6.172-.625-8.891.445-.605 1.812-1.786 1.914-1.668.023.026.617 1.458 1.328 3.165.71 1.707 1.39 3.218 1.523 3.336.586.538 1.563.079 1.563-.723 0-.183-.594-1.733-1.305-3.428-1.047-2.547-1.242-3.112-1.086-3.204.102-.065.696-.118 1.328-.118 1.32 0 2.36.263 3.516.906.922.512 1.367.565 1.75.184.422-.42.352-1.103-.156-1.497-.578-.434-1.883-1.063-2.602-1.26-1.312-.355-3.578-.394-4.601-.066-.172.052-.258-.027-.375-.328-.164-.46-.172-.434.773-.631.93-.197 2.68-.171 3.781.053Zm-42.718 2.836c.664.158 2.187.907 2.14 1.037-.031.053-1.031 1.143-2.25 2.404-1.21 1.274-2.258 2.456-2.351 2.64-.102.236-.102.42.03.735.298.71.657.775 4.212.775h3.164l-.078.486c-.14.801-.961 2.337-1.64 3.087-1.118 1.22-2.68 1.97-4.438 2.14-2.375.236-4.844-1.012-6.243-3.139-1.28-1.997-1.39-4.78-.234-6.829 1.563-2.771 4.625-4.097 7.688-3.336Zm6.132 1.025c.742 1.037 1.438 2.744 1.625 3.966l.078.63h-.406c-.328 0-.422-.066-.484-.368-.344-1.589-.844-2.771-1.602-3.808l-.32-.434.305-.328c.156-.17.343-.275.382-.224.04.067.235.316.422.566Zm-1.843 2.508c.28.539.539 1.221.578 1.523l.093.566h-2.125c-1.156 0-2.117-.04-2.117-.08 0-.17 2.82-3.073 2.953-3.034.07.027.36.487.618 1.025Zm16.085 1.904c1.368.788 1.446 2.916.133 3.874-.289.21-.578.38-.64.38-.055 0-.11-.616-.11-1.378v-1.379l-.445-.499c-.406-.433-.523-.485-1.281-.552l-.828-.065.445-.316c.852-.603 1.758-.63 2.727-.065Zm-2.585 2.876v.46h-5.774v-.919h5.773v.459Z" fill="#1F294C"/><path d="M30.328 2.02c-.578.709-1.062 1.93-1.062 2.717v.5H27.64c-1.711 0-2.368.131-2.578.525-.211.394-.157.893.132 1.182.235.237.43.263 2.086.263 1.016 0 1.867.04 1.89.092.04.065.095 1.01.11 2.128l.047 2.022-.601.144a5.034 5.034 0 0 0-1.04.433c-.64.395-13.71 13.54-13.96 14.027-.313.63-.47 1.76-.352 2.456.219 1.181.602 1.668 4.11 5.187l3.413 3.44-.539.632c-.289.341-.734.827-1 1.077l-.453.446-.742-.499c-1.008-.657-2.703-1.432-3.805-1.72-1.406-.382-4.375-.343-5.78.052-8.61 2.456-11.462 13.055-5.196 19.345.484.472 1.047.985 1.258 1.142l.39.277-1.437.012c-.79.014-1.656.08-1.906.171-.883.302-.883 1.458 0 1.76.601.197 64.023.236 64.757.04.305-.079.524-.25.618-.474.226-.472.195-.643-.157-1.063l-.32-.368-2.961-.04-2.969-.038.625-.5c2.89-2.285 4.524-5.923 4.32-9.665-.257-5.043-3.593-9.181-8.523-10.573-1.758-.499-4.945-.472-6.289.066-.156.065-.297-.145-.617-.906-.234-.552-.422-1.011-.422-1.051 0-.027 1.11-.078 2.469-.105 2.812-.052 3.258-.17 4.218-1.156 1.75-1.799 1.25-4.767-1.007-5.923-.492-.249-.867-.328-1.828-.354l-1.22-.053v-1.063c0-1.353-.304-2.05-1.109-2.522-.539-.315-.656-.328-2.703-.328h-2.156l-2.953-1.603c-2.102-1.142-3.188-1.812-3.719-2.299-.562-.524-.867-.695-1.156-.695-.523 0-.914.407-.914.958 0 .356.14.566.828 1.236.664.656 1.375 1.102 4.031 2.547l3.219 1.76 2.297.066 2.297.065.039.407.039.42-.617-.314a2.848 2.848 0 0 0-3.313.577l-.351.38-3.844-1.785-3.852-1.787-2.047-1.641c-3.734-2.98-3.718-2.98-4.437-2.233-.211.21-.453.395-.555.395-.093 0-.554-.368-1.023-.802-.617-.59-.985-1.077-1.344-1.772-.414-.867-.484-1.104-.539-2.285-.063-1.498-.008-1.63.79-1.84.92-.25 1.273-.026 3.616 2.272 1.813 1.786 2.188 2.102 2.532 2.102.843 0 1.21-.945.656-1.654l-.274-.342.5-.08c2.258-.38 4.125-2.008 4.86-4.254.25-.775.39-5.556.195-6.96-.313-2.22-1.773-3.77-4.164-4.427-.813-.223-3.07-.223-3.875 0-1.414.407-2.219.894-3.008 1.853Zm9.086 2.717.078.5h-8.258v-.433C31.25 3.766 32.29 2.53 33.47 2.15c.93-.301 3.164-.197 4.008.171 1.109.512 1.773 1.326 1.937 2.416Zm-7.375 7.46c-.07 0-.266-.275-.437-.63-.258-.539-.297-.84-.344-2.496l-.04-1.878.438.04.43.04.039 2.456c.016 1.47-.008 2.468-.086 2.468Zm6.969-.617c-.5.998-1.235 1.68-2.258 2.075-.64.25-1.742.328-2.32.171l-.305-.079v-6.54l2.664.026 2.656.04v1.72c-.015 1.68-.03 1.746-.437 2.587Zm-9.68 9.56c.32.25.594.5.594.579 0 .17-5.672 5.845-5.844 5.845-.078 0-1.172-1.039-2.43-2.3l-2.296-2.297 3.546-3.546 3.547-3.546.22.945c.132.512.382 1.235.554 1.603.422.919 1.406 2.192 2.11 2.718Zm7.094 3.468-1.969.04c-1.078.026-2.523 0-3.203-.04l-1.234-.091 1.367-1.367c.742-.749 1.398-1.366 1.445-1.366.047 0 .875.631 1.836 1.405l1.758 1.42Zm-9.649 8.537-1.75 1.747-1.734 1.733-3.914-3.914c-2.914-2.915-3.922-4.019-4.031-4.36-.235-.828.039-1.38 1.351-2.718.657-.67 1.227-1.222 1.266-1.222.047 0 2.047 1.97 4.445 4.373l4.367 4.36Zm3.149-1.642h-2.039l-1.203-1.208-1.227-1.222 1.281-1.273 1.282-1.287h1.904v4.99Zm9.375-3.27c.016.498-.047.604-.906 1.418-.508.473-1.61 1.471-2.453 2.206l-1.524 1.353h-1.258c-1.21 0-1.265-.013-1.265-.29 0-.169.32-.616.789-1.102.89-.92.984-1.313.46-1.825a1.014 1.014 0 0 0-.788-.329h-.461v-3.02h3.023c2.313 0 3.14.04 3.477.183.57.237.882.736.906 1.405Zm6.594 1.51c.343.998 1.617 1.892 2.695 1.892.875 0 1.906-.618 2.375-1.446l.305-.525h1.507c1.274 0 1.579.04 1.93.263 1.195.722 1.055 2.417-.25 3.1-.289.157-1.781.183-8.664.183h-8.312l.664-.63c.359-.342 1.093-1.012 1.601-1.497 1.188-1.09 1.524-1.773 1.516-3.02 0-.841.008-.868.273-.762.157.065 1.157.512 2.235 1.01 1.875.88 1.953.933 2.125 1.432Zm2.68-.079c-.313 0-.923-.552-.923-.827 0-.316.532-.88.844-.88.156 0 .422.092.578.21.563.394.196 1.497-.5 1.497ZM30.6 36.6l-.78.682-.087-.617a37.164 37.164 0 0 0-.164-1.063l-.07-.42h1.352l1.367.012-.422.355c-.219.197-.758.67-1.195 1.05Zm10.876 1.405c-.172.144-.993 1.01-1.852 1.93-1.375 1.471-1.563 1.721-1.563 2.128 0 .539.368.867 1 .867.368 0 .805-.394 4.141-3.874 2.992-3.126 3.766-3.874 4.04-3.874.304 0 .398.13.827 1.22.282.658.524 1.301.563 1.42.07.157-.117.34-.68.682-2.586 1.576-4.594 4.452-5.242 7.499-.234 1.103-.258 3.257-.047 4.387.453 2.574 2.008 5.253 3.922 6.776.437.355.805.67.805.696 0 .013-6.578.04-14.61.04H18.164l.461-.355c2.117-1.603 3.781-4.308 4.297-6.986.133-.658.273-1.196.344-1.196.047 0 .086.447.086.998 0 1.116.203 1.59.789 1.944.304.17.789.21 2.882.21h2.493l.601.38c2.172 1.38 5.086.473 6.266-1.943.25-.486.304-.827.304-1.786 0-1.037-.039-1.273-.367-1.892l-.36-.695.462-.513c.539-.59.601-1.155.195-1.562-.445-.446-1.023-.342-1.648.275l-.54.526-.515-.223c-.344-.145-.852-.224-1.523-.224-.852-.012-1.133.053-1.797.394l-.805.395V39.96l2.664-2.377 2.656-2.39h4.516l4.508-.013-1.18 1.273a43.087 43.087 0 0 1-1.476 1.55Zm-13.72 3.874v5.45l-1.023.04c-.742.026-1.039-.014-1.078-.132-.031-.091-.226-2.206-.437-4.7l-.383-4.532 1.266-1.287c.68-.697 1.296-1.274 1.351-1.274.055 0 .14.223.195.486.055.276.11 2.955.11 5.949Zm-4.14 5.214c0 .183-.078.303-.195.303-.235 0-.211.078-.578-1.63-.313-1.484-1.016-3.034-1.914-4.268l-.625-.84 1.03-1.024c.83-.841 1.063-1 1.243-.894.133.066.266.171.32.237.063.118.72 7.46.72 8.116Zm-6.539-6.632c.352.302.352.302.102.603l-.25.303-.89-.539c-1.993-1.208-4.556-1.55-6.868-.919-2.164.578-4.375 2.416-5.36 4.465-.718 1.472-.945 2.417-.945 3.94 0 1.524.25 2.653.867 3.888 1.875 3.795 6.344 5.752 10.36 4.518 1.437-.447 2.508-1.117 3.695-2.285 1.203-1.208 2.031-2.68 2.336-4.15.156-.828.18-.854.602-.893l.421-.04-.093.63c-.117.828-.625 2.298-1.063 3.047-1.781 3.074-4.875 4.872-8.39 4.872-4.383 0-7.946-2.678-9.274-6.96-.43-1.392-.43-3.834 0-5.253a10.183 10.183 0 0 1 3.14-4.768c.93-.787 2.821-1.72 4.032-1.982 1.18-.263 3.64-.198 4.664.118.945.289 2.469 1.024 2.914 1.405Zm44.563 1.97c3.32 4.386 2.437 10.572-1.97 13.698-1.726 1.22-2.968 1.642-5.14 1.733-1.93.092-3.086-.131-4.593-.867-3.376-1.628-5.438-4.898-5.454-8.615 0-.723.07-1.615.149-1.97.539-2.469 2.148-4.833 4.148-6.107.594-.367.657-.381.805-.17.289.38.203.499-.766 1.22-3.492 2.601-4.515 7.421-2.375 11.296.602 1.102 2.203 2.704 3.305 3.322 1.46.802 2.594 1.077 4.336 1.064 1.695 0 2.539-.197 3.937-.92 2.961-1.497 4.743-4.412 4.758-7.735.016-1.405-.312-2.915-.71-3.349-.368-.394-1.102-.315-1.454.157-.242.316-.25.408-.094.986.5 1.97.391 3.532-.382 5.096-2.086 4.228-7.5 5.147-10.836 1.838-2.438-2.417-2.72-6.172-.625-8.891.445-.605 1.812-1.786 1.914-1.668.023.026.617 1.458 1.328 3.165.71 1.707 1.39 3.218 1.523 3.336.586.538 1.563.079 1.563-.723 0-.183-.594-1.733-1.305-3.428-1.047-2.547-1.242-3.112-1.086-3.204.102-.065.696-.118 1.328-.118 1.32 0 2.36.263 3.516.906.922.512 1.367.565 1.75.184.422-.42.352-1.103-.156-1.497-.578-.434-1.883-1.063-2.602-1.26-1.312-.355-3.578-.394-4.601-.066-.172.052-.258-.027-.375-.328-.164-.46-.172-.434.773-.631.93-.197 2.68-.171 3.781.053 2.078.42 4.36 1.838 5.61 3.493Zm-46.188.38c-.031.053-1.031 1.143-2.25 2.404-1.21 1.274-2.258 2.456-2.351 2.64-.102.236-.102.42.03.735.298.71.657.775 4.212.775h3.164l-.078.486c-.14.801-.961 2.337-1.64 3.087-1.118 1.22-2.68 1.97-4.438 2.14-2.375.236-4.844-1.012-6.243-3.139-1.28-1.997-1.39-4.78-.234-6.829 1.563-2.771 4.625-4.097 7.688-3.336.664.158 2.187.907 2.14 1.037Zm5.617 3.954.078.63h-.406c-.328 0-.422-.066-.484-.368-.344-1.589-.844-2.771-1.602-3.808l-.32-.434.305-.328c.156-.17.343-.275.382-.224.04.067.235.316.422.566.742 1.037 1.438 2.744 1.625 3.966Zm-2.89.065.093.566h-2.125c-1.156 0-2.117-.04-2.117-.08 0-.17 2.82-3.073 2.953-3.034.07.027.36.487.618 1.025.28.539.539 1.221.578 1.523Zm15.64 4.255c-.289.21-.578.38-.64.38-.055 0-.11-.616-.11-1.378v-1.379l-.445-.499c-.406-.433-.523-.485-1.281-.552l-.828-.065.445-.316c.852-.603 1.758-.63 2.727-.065 1.367.788 1.445 2.916.132 3.874Zm-2.718-.538h-5.774v-.919H31.1v.919Z"/><path d="M37.07 8.27c-.187.21-.25.473-.25 1.104 0 .998.266 1.379.946 1.379.695 0 .96-.368.96-1.379 0-.683-.054-.906-.265-1.116-.352-.355-1.063-.342-1.39.013Z" fill="#1F294C"/><path d="M36.82 9.374c0 .998.266 1.379.946 1.379.695 0 .96-.368.96-1.379 0-.683-.054-.906-.265-1.116-.352-.355-1.063-.342-1.39.013-.188.21-.25.472-.25 1.103Z"/></svg>