<svg width="60" height="60" viewBox="0 0 60 60" fill="none" xmlns="http://www.w3.org/2000/svg">
<path d="M29.7621 3.44547C28.4965 3.80875 27.7816 4.24234 27.0785 5.09781C26.5629 5.73062 26.1293 6.82047 26.1293 7.52359V7.9689H24.6761C23.1527 7.9689 22.5668 8.08609 22.3793 8.43765C22.1918 8.78922 22.2386 9.23453 22.4965 9.49234C22.7074 9.70328 22.8832 9.72672 24.3597 9.72672C25.2621 9.72672 26.0238 9.76187 26.0472 9.80875C26.0824 9.86734 26.1293 10.7111 26.141 11.7072L26.1879 13.5119L25.6488 13.6408C25.3558 13.7228 24.934 13.8986 24.723 14.0275C24.1488 14.3791 12.4886 26.1095 12.266 26.5431C11.9847 27.1056 11.8441 28.1134 11.9496 28.7345C12.1488 29.7892 12.4886 30.2228 15.6175 33.3634L18.6644 36.4337L18.184 36.9962C17.9261 37.3009 17.5277 37.7345 17.2933 37.9572L16.8832 38.3556L16.2269 37.9103C15.3246 37.3244 13.8129 36.633 12.8285 36.3752C11.5746 36.0353 8.92614 36.0705 7.67224 36.422C-0.015264 38.6134 -2.55823 48.0705 3.03161 53.6837C3.4652 54.1056 3.96911 54.5627 4.15661 54.7033L4.50817 54.9494L3.21911 54.9611C2.51599 54.9728 1.74255 55.0314 1.51989 55.1134C0.734736 55.383 0.734736 56.4142 1.51989 56.6837C2.05895 56.8595 58.6488 56.8947 59.305 56.7189C59.5746 56.6486 59.7738 56.4962 59.8558 56.297C60.055 55.8752 60.0316 55.7228 59.7152 55.3478L59.434 55.0197L56.7855 54.9845L54.1371 54.9494L54.6996 54.5041C57.2777 52.465 58.7308 49.2189 58.555 45.8791C58.3207 41.3791 55.3441 37.6877 50.9496 36.4455C49.3793 36.0002 46.5316 36.0236 45.3363 36.5041C45.1957 36.5627 45.0668 36.3752 44.7855 35.6955C44.5746 35.2033 44.4105 34.7931 44.4105 34.758C44.4105 34.7345 45.3949 34.6877 46.6136 34.6642C49.1215 34.6173 49.5199 34.5119 50.3754 33.633C51.934 32.0275 51.4886 29.3791 49.473 28.3478C49.0394 28.1252 48.6996 28.0548 47.8441 28.0314L46.7543 27.9845V27.0353C46.7543 25.8283 46.4847 25.2072 45.7699 24.7853C45.2894 24.5041 45.184 24.4923 43.3558 24.4923H41.434L38.7972 23.0627C36.9222 22.0431 35.9496 21.4455 35.4808 21.0119C34.9769 20.5431 34.7074 20.3908 34.4496 20.3908C33.9808 20.3908 33.6293 20.7541 33.6293 21.2462C33.6293 21.5627 33.7582 21.7502 34.3675 22.3478C34.9652 22.9337 35.598 23.3322 37.9652 24.6212L40.8363 26.1916L42.8871 26.2502L44.9379 26.3087L44.973 26.672L45.0082 27.047L44.4574 26.7658C43.4847 26.2736 42.2543 26.4845 41.5043 27.2814L41.1879 27.6212L37.7543 26.0275L34.3207 24.4337L32.4925 22.9689C29.1644 20.3087 29.1761 20.3087 28.5316 20.9767C28.3441 21.1642 28.1332 21.3283 28.0394 21.3283C27.9574 21.3283 27.5472 21.0002 27.1254 20.6134C26.5746 20.0861 26.2465 19.6525 25.93 19.0314C25.555 18.258 25.4965 18.047 25.4496 16.9923C25.391 15.6564 25.4379 15.5392 26.1527 15.3517C26.973 15.1291 27.2894 15.3283 29.3754 17.3791C30.9925 18.9728 31.3324 19.2541 31.6371 19.2541C32.3871 19.2541 32.7152 18.4103 32.223 17.7775L31.9769 17.4728L32.4222 17.4025C34.4379 17.0627 36.1019 15.6095 36.7582 13.6056C36.9808 12.9142 37.1097 8.64859 36.934 7.39469C36.6527 5.41422 35.3519 4.0314 33.2191 3.44547C32.4925 3.24625 30.4769 3.24625 29.7621 3.44547ZM33.4535 5.36734C34.4496 5.82437 35.0355 6.55094 35.1879 7.52359L35.2582 7.9689H31.5668H27.8871V7.58219C27.8988 6.6564 28.8246 5.55484 29.8793 5.215C30.7113 4.94547 32.7035 5.03922 33.4535 5.36734ZM28.684 11.9767C28.6957 13.2892 28.6722 14.1798 28.6019 14.1798C28.5433 14.1798 28.3675 13.9337 28.2152 13.6173C27.9808 13.1369 27.9457 12.8673 27.9105 11.3908L27.8754 9.715L28.2621 9.75015L28.6488 9.78531L28.684 11.9767ZM35.2113 11.3205C35.1996 12.8205 35.1879 12.8791 34.8246 13.6291C34.3793 14.5197 33.723 15.1291 32.809 15.4806C32.2347 15.7033 31.2504 15.7736 30.7347 15.633L30.4652 15.5627V12.6447V9.72672L32.8441 9.75015L35.2113 9.78531V11.3205ZM24.3011 19.7345C24.6761 20.5548 25.555 21.6916 26.1879 22.1603C26.4691 22.383 26.7152 22.6056 26.7152 22.6759C26.7152 22.8283 21.6527 27.8908 21.5004 27.8908C21.43 27.8908 20.4574 26.965 19.3324 25.84L17.2816 23.7892L20.4457 20.6252L23.6097 17.4611L23.809 18.3048C23.9261 18.7619 24.1488 19.4064 24.3011 19.7345ZM30.9457 23.9884L32.516 25.2541L30.7582 25.2892C29.7972 25.3127 28.5082 25.2892 27.8988 25.2541L26.7972 25.172L28.016 23.9533C28.684 23.2853 29.2699 22.7345 29.305 22.7345C29.3519 22.7345 30.0902 23.297 30.9457 23.9884ZM20.0121 28.9806L23.9027 32.8712L22.3441 34.4298L20.7972 35.9767L17.305 32.4845C14.7035 29.883 13.8011 28.8986 13.7074 28.5939C13.4965 27.8556 13.7425 27.3634 14.9144 26.1681C15.5004 25.5705 16.0043 25.0783 16.0394 25.0783C16.0863 25.0783 17.8675 26.8361 20.0121 28.9806ZM26.7152 29.1798V31.4064H25.8129H24.8988L23.8207 30.3283L22.7308 29.2384L23.8675 28.1017L25.016 26.9533H25.8597H26.7152V29.1798ZM34.2738 27.2345C34.7777 27.4455 35.059 27.8908 35.0824 28.4884C35.0941 28.9337 35.0355 29.0275 34.2738 29.7541C33.8168 30.1759 32.8324 31.0666 32.0824 31.7228L30.723 32.9298H29.598C28.5199 32.9298 28.473 32.9181 28.473 32.672C28.473 32.5197 28.7543 32.1212 29.1761 31.6877C29.973 30.8673 30.055 30.5158 29.5863 30.0587C29.3988 29.8595 29.1761 29.7658 28.8832 29.7658H28.473V28.4181V27.0705H31.1683C33.2308 27.0705 33.9691 27.1056 34.2738 27.2345ZM39.0668 28.5587C40.7425 29.3439 40.8129 29.3908 40.9652 29.8361C41.2699 30.7267 42.4066 31.5236 43.3675 31.5236C44.1527 31.5236 45.0668 30.9728 45.4886 30.2345L45.7582 29.7658H47.1058C48.2425 29.7658 48.5121 29.8009 48.8285 30.0002C49.8949 30.6447 49.766 32.1564 48.6058 32.7658C48.348 32.9064 47.0121 32.9298 40.8715 32.9298H33.4535L34.0511 32.3673C34.3675 32.0627 35.0238 31.465 35.4808 31.0314C36.5355 30.0587 36.8402 29.4494 36.8285 28.3361C36.8285 27.5861 36.8402 27.5627 37.0746 27.6564C37.2152 27.715 38.1058 28.1134 39.0668 28.5587ZM43.8011 28.4298C44.305 28.7814 43.9769 29.7658 43.3558 29.7658C43.0746 29.7658 42.5355 29.2736 42.5355 29.0275C42.5355 28.7462 43.0043 28.2423 43.2855 28.2423C43.4261 28.2423 43.6605 28.3244 43.8011 28.4298ZM28.391 35.0158C28.1918 35.1916 27.7113 35.6134 27.3246 35.9533L26.6215 36.5627L26.5511 36.0119C26.5043 35.6955 26.434 35.2736 26.3988 35.0627L26.3402 34.6877H27.5472L28.766 34.6994L28.391 35.0158ZM38.3402 35.8244C37.766 36.4572 37.1683 37.0783 37.0277 37.2072C36.8754 37.3361 36.1371 38.1095 35.3754 38.9298C34.1449 40.2423 33.9808 40.465 33.9808 40.8283C33.9808 41.3087 34.309 41.6017 34.8715 41.6017C35.1996 41.6017 35.5863 41.2502 38.5629 38.1447C41.2347 35.3556 41.9261 34.6877 42.1722 34.6877C42.4418 34.6877 42.5238 34.8048 42.9105 35.7775C43.1566 36.3634 43.3793 36.9377 43.4144 37.0431C43.473 37.1837 43.309 37.3478 42.805 37.6525C40.4965 39.0587 38.7035 41.6252 38.1293 44.3439C37.9183 45.3283 37.8949 47.2502 38.0824 48.258C38.4925 50.5548 39.8754 52.9455 41.5863 54.3048C41.973 54.6212 42.3011 54.9025 42.3011 54.9259C42.3011 54.9377 36.43 54.9611 29.2699 54.9611H16.2269L16.6371 54.6447C18.5238 53.215 20.0121 50.8009 20.4691 48.4103C20.5863 47.8244 20.7152 47.3439 20.7738 47.3439C20.8207 47.3439 20.8558 47.7423 20.8558 48.2345C20.8558 49.2306 21.0316 49.6525 21.559 49.9689C21.8285 50.1212 22.2621 50.1564 24.1254 50.1564H26.3519L26.891 50.4962C28.8246 51.7267 31.4261 50.9181 32.4808 48.7619C32.7035 48.3283 32.7504 48.0236 32.7504 47.1681C32.7504 46.2423 32.7152 46.0314 32.4222 45.4806L32.1058 44.8595L32.516 44.4025C32.9965 43.8752 33.055 43.3712 32.6918 43.008C32.2933 42.6095 31.7777 42.7033 31.2152 43.2541L30.7347 43.7228L30.2777 43.5236C29.973 43.3947 29.516 43.3244 28.9183 43.3244C28.1566 43.3127 27.9105 43.3712 27.3129 43.6759L26.598 44.0275V41.4845V38.9533L28.9769 36.8322L31.3441 34.6994H35.3754L39.3949 34.6877L38.3402 35.8244ZM24.6879 35.3556C24.7347 35.6017 24.7816 37.9923 24.7816 40.6642V45.5275L23.8675 45.5627C23.2113 45.5861 22.9418 45.5509 22.9066 45.4455C22.8832 45.3634 22.7074 43.4767 22.5199 41.2502L22.18 37.2072L23.305 36.0587C23.9144 35.4377 24.4652 34.922 24.5121 34.922C24.559 34.922 24.641 35.1212 24.6879 35.3556ZM20.4457 38.0744C20.5043 38.1798 21.0902 44.7306 21.0902 45.3166C21.0902 45.4806 21.0199 45.5861 20.9144 45.5861C20.7035 45.5861 20.7269 45.6564 20.3988 44.133C20.1175 42.8087 19.4965 41.4259 18.6879 40.3244L18.1371 39.5744L19.0511 38.6603C19.7894 37.9103 20.0004 37.7697 20.1644 37.8634C20.2816 37.922 20.3988 38.0158 20.4457 38.0744ZM12.6527 38.1447C13.4965 38.4025 14.8558 39.0587 15.2543 39.3986C15.5707 39.6681 15.5707 39.6681 15.348 39.9377L15.1254 40.2072L14.3285 39.7267C12.5472 38.6486 10.2621 38.3439 8.19958 38.9064C6.26599 39.422 4.29724 41.0627 3.41833 42.8908C2.7738 44.2033 2.57458 45.047 2.57458 46.4064C2.57458 47.7658 2.79724 48.7736 3.34802 49.8752C5.0238 53.2619 9.00817 55.008 12.5941 53.9064C13.8715 53.508 14.8324 52.9103 15.8871 51.8673C16.9652 50.7892 17.7035 49.4767 17.973 48.1642C18.1136 47.4259 18.1371 47.4025 18.5121 47.3673L18.8871 47.3322L18.805 47.8947C18.6996 48.633 18.2425 49.9455 17.8558 50.6134C16.2621 53.3556 13.5082 54.9611 10.3675 54.9611C6.45349 54.9611 3.2777 52.5705 2.09411 48.7502C1.70739 47.508 1.70739 45.3283 2.09411 44.0627C2.59802 42.422 3.58239 40.9103 4.89489 39.8087C5.72692 39.1056 7.41442 38.2736 8.49255 38.0392C9.54724 37.8048 11.7386 37.8634 12.6527 38.1447ZM50.0121 38.0392C51.8636 38.4142 53.9027 39.6798 55.016 41.1564C57.9808 45.0705 57.1957 50.59 53.2582 53.3791C51.723 54.4689 50.6097 54.8439 48.6761 54.9259C46.9535 55.008 45.9222 54.8087 44.5746 54.1525C41.5629 52.6994 39.723 49.7814 39.7113 46.465C39.7113 45.8205 39.7699 45.0236 39.8402 44.7072C40.3207 42.5041 41.7621 40.3947 43.5433 39.258C44.0707 38.9298 44.1293 38.9181 44.2582 39.1056C44.516 39.4455 44.4457 39.5509 43.5785 40.1955C40.4613 42.5158 39.5472 46.8166 41.4574 50.2736C41.9965 51.258 43.4261 52.6877 44.4105 53.2384C45.7113 53.9533 46.7191 54.1994 48.2777 54.1877C49.7894 54.1877 50.5394 54.0119 51.7933 53.3673C54.43 52.0314 56.0238 49.4298 56.0355 46.465C56.0472 45.2111 55.7543 43.8634 55.4027 43.4767C55.0746 43.1252 54.4183 43.1955 54.1019 43.6173C53.891 43.8986 53.8793 43.9806 54.0199 44.4962C54.4652 46.2541 54.3715 47.6486 53.68 49.0431C51.8168 52.8166 46.9886 53.6369 44.0121 50.6837C41.8324 48.5275 41.5863 45.1759 43.4496 42.7502C43.848 42.2111 45.0668 41.1564 45.1605 41.2619C45.184 41.2853 45.7113 42.5627 46.3441 44.0861C46.9769 45.6095 47.5863 46.9572 47.7035 47.0627C48.2308 47.5431 49.098 47.133 49.098 46.4181C49.098 46.2541 48.5707 44.8712 47.9379 43.3595C47.0004 41.0861 46.8246 40.5822 46.9652 40.5002C47.059 40.4416 47.5863 40.3947 48.1488 40.3947C49.3324 40.3947 50.2582 40.6291 51.2894 41.2033C52.1097 41.6603 52.5082 41.7072 52.848 41.3673C53.223 40.9923 53.1644 40.383 52.7074 40.0314C52.1918 39.6447 51.0316 39.0822 50.3871 38.9064C49.2152 38.59 47.1996 38.5548 46.2855 38.8478C46.1332 38.8947 46.0511 38.8244 45.9457 38.5548C45.805 38.1447 45.7933 38.1681 46.6371 37.9923C47.4691 37.8166 49.0277 37.84 50.0121 38.0392ZM11.891 40.5705C12.4886 40.7111 13.848 41.3791 13.8011 41.4962C13.7777 41.5431 12.8871 42.5158 11.7972 43.6408C10.7191 44.7775 9.78161 45.8322 9.69958 45.9962C9.60583 46.2072 9.60583 46.3712 9.72302 46.6525C9.99255 47.2853 10.309 47.3439 13.4847 47.3439H16.309L16.2386 47.7775C16.1097 48.4923 15.3832 49.8634 14.7738 50.5314C13.7777 51.6212 12.3832 52.2892 10.8129 52.4416C8.69177 52.6525 6.48864 51.5392 5.24645 49.6408C4.09802 47.8595 4.00427 45.3752 5.03552 43.547C6.43005 41.0744 9.16052 39.8908 11.891 40.5705ZM17.3636 41.4845C18.0316 42.4103 18.6527 43.9337 18.8168 45.0236L18.8871 45.5861H18.5238C18.2308 45.5861 18.1488 45.5275 18.0902 45.258C17.7855 43.84 17.3402 42.7853 16.6605 41.8595L16.3793 41.4728L16.6488 41.1798C16.7894 41.0275 16.9535 40.9337 16.9886 40.9806C17.0238 41.0392 17.1996 41.2619 17.3636 41.4845ZM15.723 43.7228C15.9691 44.2033 16.2035 44.8127 16.2386 45.0822L16.3207 45.5861H14.4222C13.391 45.5861 12.5355 45.5509 12.5355 45.5158C12.5355 45.3634 15.055 42.7736 15.1722 42.8087C15.2308 42.8322 15.4886 43.2423 15.723 43.7228ZM30.0785 45.422C31.2972 46.1252 31.3675 48.0236 30.1957 48.8791C29.9379 49.0666 29.68 49.2189 29.6215 49.2189C29.5746 49.2189 29.5277 48.6681 29.5277 47.9884V46.758L29.1293 46.3127C28.766 45.9259 28.6605 45.8791 27.9808 45.8205L27.2425 45.7619L27.641 45.4806C28.4027 44.9416 29.2113 44.9181 30.0785 45.422ZM27.7699 47.9884V48.3986H25.1918H22.6136V47.9884V47.5783H25.1918H27.7699V47.9884Z" fill="#1F294C"/>
<path d="M33.0898 10.6758C32.9258 10.8633 32.8672 11.0977 32.8672 11.6602C32.8672 12.5508 33.1016 12.8906 33.7109 12.8906C34.332 12.8906 34.5664 12.5625 34.5664 11.6602C34.5664 11.0508 34.5195 10.8516 34.332 10.6641C34.0156 10.3477 33.3828 10.3594 33.0898 10.6758Z" fill="#1F294C"/>
</svg>