<svg width="80" height="80" viewBox="0 0 80 80" fill="none" xmlns="http://www.w3.org/2000/svg">
<g id="certificate 1" clip-path="url(#clip0_3751_100)">
<g id="Group">
<path id="Vector" d="M72.7638 0H15.758C12.4232 0 9.70973 2.7133 9.70973 6.04816V17.9546C9.70973 18.6018 10.2343 19.1265 10.8816 19.1265C11.529 19.1265 12.0535 18.6018 12.0535 17.9546V6.04816C12.0535 4.00565 13.7154 2.34376 15.758 2.34376H68.6344C67.4882 4.25831 68.1174 1.73735 67.9519 69.0727C67.9519 71.1268 66.281 72.7978 64.2269 72.7978H47.2418V70.2879H59.4264C60.0738 70.2879 60.5983 69.7632 60.5983 69.116C60.5983 67.0913 62.2455 65.4441 64.2702 65.4441C64.9175 65.4441 65.4421 64.9194 65.4421 64.2722V41.4776C65.4421 40.8304 64.9175 40.3057 64.2702 40.3057C63.6229 40.3057 63.0983 40.8304 63.0983 41.4776V63.2151C60.7194 63.6866 58.8406 65.5654 58.3691 67.9443H47.2417V63.2891C50.8895 60.9136 53.3081 56.8022 53.3081 52.1339C53.3081 44.7971 47.3393 38.8282 40.0026 38.8282C32.6658 38.8282 26.697 44.7971 26.697 52.1339C26.697 56.8022 29.1156 60.9136 32.7635 63.2891V67.9443H21.636C21.1645 65.5654 19.2859 63.6866 16.9068 63.2151V11.9265C19.2859 11.4549 21.1645 9.57615 21.636 7.19723H58.3691C58.8406 9.57615 60.7192 11.4549 63.0983 11.9265V36.3702C63.0983 37.0174 63.6229 37.5421 64.2702 37.5421C64.9175 37.5421 65.4421 37.0174 65.4421 36.3702V10.8691C65.4421 10.2219 64.9175 9.69724 64.2702 9.69724C62.2455 9.69724 60.5983 8.05005 60.5983 6.02535C60.5983 5.37816 60.0738 4.85347 59.4264 4.85347H20.579C19.9317 4.85347 19.4071 5.37816 19.4071 6.02535C19.4071 8.05005 17.7599 9.69724 15.7352 9.69724C15.0879 9.69724 14.5634 10.2219 14.5634 10.8691V64.2722C14.5634 64.9194 15.0879 65.4441 15.7352 65.4441C17.7599 65.4441 19.4071 67.0913 19.4071 69.116C19.4071 69.7632 19.9317 70.2879 20.579 70.2879H32.7636V72.7976C32.5535 72.7976 11.5807 72.8025 11.371 72.8025C12.3735 71.1282 11.9621 70.4321 12.0536 64.2673C12.0536 64.2662 12.0535 64.2652 12.0535 64.2643V23.0126C12.0535 22.3654 11.529 21.8408 10.8816 21.8408C10.2343 21.8408 9.70973 22.3654 9.70973 23.0126V63.0955H3.60157C2.95422 63.0955 2.42969 63.6202 2.42969 64.2674V70.3343C2.42969 72.9865 4.58673 75.1445 7.23862 75.1462C7.23972 75.1462 7.24065 75.1464 7.24175 75.1464C40.3666 75.1359 14.594 75.1443 32.7638 75.1415V78.8281C32.7638 79.2786 33.0219 79.6892 33.428 79.8844C33.8339 80.0795 34.3161 80.0247 34.6677 79.7433L40.003 75.4754L45.3384 79.7433C45.6899 80.0247 46.172 80.0795 46.5781 79.8844C46.9842 79.6892 47.2423 79.2786 47.2423 78.8281V75.1415H64.2272C67.5735 75.1415 70.296 72.4192 70.296 69.0727V12.0509H76.4045C77.0518 12.0509 77.5764 11.5262 77.5764 10.879V4.81206C77.5759 2.15861 75.4173 0 72.7638 0ZM4.77345 70.3343V65.4393H9.70989V70.3343C9.70989 71.0403 9.41035 71.6762 8.93363 72.1265C8.49129 72.5443 7.89675 72.8025 7.24175 72.8025C5.88064 72.8026 4.77345 71.6953 4.77345 70.3343ZM29.0409 52.1337C29.0409 46.0893 33.9585 41.1718 40.0027 41.1718C46.047 41.1718 50.9645 46.0893 50.9645 52.1337C50.9645 58.1875 46.0342 63.0955 40.0027 63.0955C33.9586 63.0955 29.0409 58.1753 29.0409 52.1337ZM44.8981 76.39L40.7346 73.0596C40.3068 72.7173 39.6985 72.7173 39.2707 73.0596L35.1072 76.39V64.5023C36.6236 65.1046 38.2743 65.4394 40.0026 65.4394C41.7309 65.4394 43.3815 65.1046 44.8979 64.5023V76.39H44.8981ZM75.2321 9.70709H70.2955V4.81206C70.2955 3.45111 71.4029 2.34376 72.7638 2.34376C74.1248 2.34376 75.2321 3.45096 75.2321 4.81206V9.70709Z" fill="#EDD918"/>
<path id="Vector_2" d="M54.5663 16.9873H25.4453C24.798 16.9873 24.2734 17.512 24.2734 18.1592C24.2734 18.8064 24.798 19.3311 25.4453 19.3311H54.5663C55.2136 19.3311 55.7382 18.8064 55.7382 18.1592C55.7382 17.512 55.2135 16.9873 54.5663 16.9873Z" fill="#EDD918"/>
<path id="Vector_3" d="M54.5663 21.8408H25.4453C24.798 21.8408 24.2734 22.3655 24.2734 23.0127C24.2734 23.6599 24.798 24.1846 25.4453 24.1846H54.5663C55.2136 24.1846 55.7382 23.6599 55.7382 23.0127C55.7382 22.3655 55.2135 21.8408 54.5663 21.8408Z" fill="#EDD918"/>
<path id="Vector_4" d="M55.7382 27.8662C55.7382 27.219 55.2136 26.6943 54.5663 26.6943H25.4453C24.798 26.6943 24.2734 27.219 24.2734 27.8662C24.2734 28.5134 24.798 29.0381 25.4453 29.0381H54.5663C55.2135 29.0381 55.7382 28.5134 55.7382 27.8662Z" fill="#EDD918"/>
<path id="Vector_5" d="M46.0917 12.0508C46.7391 12.0508 47.2636 11.5261 47.2636 10.8789C47.2636 10.2317 46.7391 9.70703 46.0917 9.70703H33.9141C33.2667 9.70703 32.7422 10.2317 32.7422 10.8789C32.7422 11.5261 33.2667 12.0508 33.9141 12.0508H46.0917Z" fill="#EDD918"/>
<path id="Vector_6" d="M39.9992 60.5856C44.6597 60.5856 48.4514 56.7941 48.4514 52.1336C48.4514 47.473 44.6597 43.6814 39.9992 43.6814C38.5323 43.6814 37.087 44.0634 35.8192 44.7861C35.2569 45.1066 35.0608 45.8222 35.3814 46.3844C35.7019 46.9467 36.4175 47.1428 36.9797 46.8222C37.8945 46.3008 38.9386 46.0251 39.9991 46.0251C43.3673 46.0251 46.1075 48.7655 46.1075 52.1336C46.1075 55.5017 43.3673 58.2419 39.9991 58.2419C36.6308 58.2419 33.8906 55.5017 33.8906 52.1336C33.8906 51.3458 34.0381 50.5792 34.3294 49.8555C34.5708 49.255 34.2798 48.5725 33.6792 48.3311C33.0797 48.09 32.3964 48.3805 32.1547 48.9812C31.7514 49.9842 31.5469 51.045 31.5469 52.1337C31.5472 56.7941 35.3388 60.5856 39.9992 60.5856Z" fill="#EDD918"/>
<path id="Vector_7" d="M33.9141 31.4998C33.2667 31.4998 32.7422 32.0244 32.7422 32.6716C32.7422 33.3188 33.2667 33.8435 33.9141 33.8435H46.0919C46.7392 33.8435 47.2637 33.3188 47.2637 32.6716C47.2637 32.0244 46.7392 31.4998 46.0919 31.4998H33.9141Z" fill="#EDD918"/>
</g>
</g>
<defs>
<clipPath id="clip0_3751_100">
<rect width="80" height="80" fill="white"/>
</clipPath>
</defs>
</svg>
