<svg width="80" height="80" fill="none" xmlns="http://www.w3.org/2000/svg"><g clip-path="url(#clip0_1745_609)"><path d="M79.844 40c0 7.895-2.344 15.574-6.778 22.205a3.121 3.121 0 0 1-4.334.861 3.125 3.125 0 0 1-.861-4.334c3.744-5.6 5.723-12.077 5.723-18.732 0-2.86-.358-5.7-1.063-8.44a3.126 3.126 0 0 1 6.052-1.558A40.145 40.145 0 0 1 79.843 40ZM57.302 68.89a33.69 33.69 0 0 1-17.458 4.86c-18.61 0-33.75-15.14-33.75-33.75s15.14-33.75 33.75-33.75c6.89 0 13.515 2.062 19.16 5.963a3.126 3.126 0 0 0 3.553-5.143C55.863 2.445 48.01 0 39.844 0 29.16 0 19.114 4.16 11.559 11.716 4.005 19.27-.155 29.316-.155 40c0 10.684 4.16 20.73 11.716 28.284C19.114 75.84 29.16 80 39.843 80a39.936 39.936 0 0 0 20.697-5.765 3.125 3.125 0 1 0-3.239-5.345ZM40.145 49.06a1.781 1.781 0 0 1-1.316-.498L22.463 33.045a3.125 3.125 0 1 0-4.3 4.535l16.363 15.516a7.98 7.98 0 0 0 5.87 2.21 7.987 7.987 0 0 0 5.783-2.801l32.975-41.016a3.124 3.124 0 1 0-4.871-3.916L41.373 48.51a1.786 1.786 0 0 1-1.228.552Z" fill="#95C11F"/></g></svg>