<svg width="30" height="30" fill="none" xmlns="http://www.w3.org/2000/svg"><mask id="a" style="mask-type:luminance" maskUnits="userSpaceOnUse" x="0" y="0" width="30" height="30"><path d="M29 29V1H1v28h28Z" fill="#fff" stroke="#fff" stroke-width="2"/></mask><g mask="url(#a)" stroke="#0296D8" stroke-width="2" stroke-miterlimit="10" stroke-linecap="round" stroke-linejoin="round"><path d="M19.039 9.452a4.039 4.039 0 1 1-8.078 0 4.039 4.039 0 0 1 8.078 0Z"/><path d="M21.788 4.209A8.637 8.637 0 0 0 15.001.876 8.637 8.637 0 0 0 8.214 4.21c-1.82 2.353-2.146 5.188-1.19 7.959.92 2.664 2.874 4.885 4.471 7.174l3.428 4.914.078.111.078-.111 3.428-4.914c1.597-2.29 3.55-4.51 4.47-7.174.957-2.77.632-5.606-1.189-7.96Z"/><path d="m9.624 22.57-2.499 1.578L15 29.123l7.875-4.975-2.499-1.579"/></g></svg>