<svg width="80" height="80" viewBox="0 0 80 80" fill="none" xmlns="http://www.w3.org/2000/svg">
<mask id="mask0_3754_304" style="mask-type:luminance" maskUnits="userSpaceOnUse" x="0" y="0" width="80" height="80">
<path d="M78.5 78.5V1.50001H1.5V78.5H78.5Z" fill="white" stroke="white" stroke-width="3"/>
</mask>
<g mask="url(#mask0_3754_304)">
<path d="M69.4653 15.1061C67.5126 17.0587 64.3468 17.0587 62.3942 15.1061C60.4415 13.1534 60.4415 9.98763 62.3942 8.03497C64.3468 6.08231 67.5126 6.08231 69.4653 8.03497C71.4179 9.98763 71.4179 13.1534 69.4653 15.1061Z" fill="#080808" stroke="#EDD918" stroke-width="3" stroke-miterlimit="10" stroke-linecap="round" stroke-linejoin="round"/>
<path d="M17.6059 71.965C15.6532 73.9176 12.4875 73.9176 10.5348 71.965C8.58215 70.0123 8.58215 66.8465 10.5348 64.8939C12.4875 62.9412 15.6532 62.9412 17.6059 64.8939C19.5586 66.8465 19.5586 70.0123 17.6059 71.965Z" fill="#080808" stroke="#EDD918" stroke-width="3" stroke-miterlimit="10" stroke-linecap="round" stroke-linejoin="round"/>
<path d="M32.4219 77.6902C34.8725 78.1803 37.4072 78.4375 40.002 78.4375C61.2305 78.4375 78.4395 61.2284 78.4395 40C78.4395 30.733 75.1595 22.2324 69.6978 15.5944" fill="#080808"/>
<path d="M32.4219 77.6902C34.8725 78.1803 37.4072 78.4375 40.002 78.4375C61.2305 78.4375 78.4395 61.2284 78.4395 40C78.4395 30.733 75.1595 22.2324 69.6978 15.5944" stroke="#EDD918" stroke-width="3" stroke-miterlimit="10" stroke-linecap="round" stroke-linejoin="round"/>
<path d="M47.6531 2.32467C45.1798 1.82498 42.6206 1.56263 40 1.56263C18.7716 1.56263 1.5625 18.7717 1.5625 40.0001C1.5625 49.2672 4.8425 57.7678 10.3042 64.4058" fill="#080808"/>
<path d="M47.6531 2.32467C45.1798 1.82498 42.6206 1.56263 40 1.56263C18.7716 1.56263 1.5625 18.7717 1.5625 40.0001C1.5625 49.2672 4.8425 57.7678 10.3042 64.4058" stroke="#EDD918" stroke-width="3" stroke-miterlimit="10" stroke-linecap="round" stroke-linejoin="round"/>
<path d="M40.0027 51.3484C33.7352 51.3484 28.6542 46.2677 28.6542 40C28.6542 33.7325 33.7352 28.6517 40.0027 28.6517C46.2702 28.6517 51.3511 33.7325 51.3511 40C51.3511 46.2677 46.2702 51.3484 40.0027 51.3484ZM62.6331 35.1011C62.0378 32.3305 60.9476 29.7438 59.4581 27.4389L62.4519 24.445L55.5411 17.5392L52.5497 20.5306C50.2448 19.0411 47.6583 17.9509 44.8877 17.3558V13.125H35.1177V17.3558C32.347 17.9509 29.7605 19.0411 27.4556 20.5306L24.4642 17.5392L17.5534 24.445L20.5472 27.4389C19.0577 29.7438 17.9675 32.3305 17.3722 35.1011H13.1303L13.125 44.8709H17.372C17.9673 47.6416 19.0575 50.2283 20.547 52.5333L17.5419 55.5384L24.4477 62.4494L27.4553 59.4416C29.7603 60.9313 32.347 62.0214 35.1177 62.6167V66.875H44.8877V62.6167C47.6583 62.0214 50.245 60.9313 52.55 59.4416L55.5577 62.4494L62.4634 55.5384L59.4583 52.5333C60.9478 50.2283 62.038 47.6416 62.6333 44.8709H66.8803V35.1011H62.6331Z" fill="#080808" stroke="#EDD918" stroke-width="3" stroke-miterlimit="10" stroke-linecap="round" stroke-linejoin="round"/>
</g>
</svg>
