<svg width="80" height="80" fill="none" xmlns="http://www.w3.org/2000/svg"><mask id="a" style="mask-type:luminance" maskUnits="userSpaceOnUse" x="0" y="0" width="80" height="80"><path d="M0 0h80v80H0V0Z" fill="#fff"/></mask><g mask="url(#a)"><path d="M53.438 20.65c5.337 2.808 9.69 7.08 12.403 12.475L53.438 20.65Z" fill="#fff"/><path d="M53.438 20.65c5.337 2.808 9.69 7.08 12.403 12.475" stroke="#95C11F" stroke-width="6" stroke-miterlimit="10" stroke-linecap="round" stroke-linejoin="round"/><path d="M11.102 45.625a28.776 28.776 0 0 1 6.243-17.328l-6.243 17.328Z" fill="#fff"/><path d="M11.102 45.625a28.776 28.776 0 0 1 6.243-17.328" stroke="#95C11F" stroke-width="6" stroke-miterlimit="10" stroke-linecap="round" stroke-linejoin="round"/><path d="M56.875 69.722A28.775 28.775 0 0 1 40 75.156c-1.487 0-2.948-.112-4.375-.329" fill="#fff"/><path d="M56.875 69.722A28.775 28.775 0 0 1 40 75.156c-1.487 0-2.948-.112-4.375-.329" stroke="#95C11F" stroke-width="6" stroke-miterlimit="10" stroke-linecap="round" stroke-linejoin="round"/><path d="M40 31.25c-7.335 0-13.281-5.946-13.281-13.281 0-7.335 5.946-13.282 13.281-13.282 7.335 0 13.281 5.947 13.281 13.282S47.335 31.25 40 31.25ZM16.406 71.25c-7.335 0-13.281-5.946-13.281-13.281 0-7.335 5.946-13.282 13.281-13.282 7.335 0 13.282 5.947 13.282 13.282S23.74 71.25 16.405 71.25Z" fill="#fff" stroke="#95C11F" stroke-width="6" stroke-miterlimit="10" stroke-linecap="round" stroke-linejoin="round"/><path d="M65.637 71.094c-.666.103-1.348.156-2.043.156-7.335 0-13.282-5.946-13.282-13.281 0-7.335 5.947-13.282 13.282-13.282s13.281 5.947 13.281 13.282c0 1.591-.28 3.117-.793 4.531" fill="#fff"/><path d="M65.637 71.094c-.666.103-1.348.156-2.043.156-7.335 0-13.282-5.946-13.282-13.281 0-7.335 5.947-13.282 13.282-13.282s13.281 5.947 13.281 13.282c0 1.591-.28 3.117-.793 4.531" stroke="#95C11F" stroke-width="6" stroke-miterlimit="10" stroke-linecap="round" stroke-linejoin="round"/></g></svg>