<svg width="80" height="80" viewBox="0 0 80 80" fill="none" xmlns="http://www.w3.org/2000/svg">
<mask style="mask-type:luminance" maskUnits="userSpaceOnUse" x="0" y="0" width="80" height="80">
<path d="M0 7.62939e-06H80V80H0V7.62939e-06Z" fill="white"/>
</mask>
<g mask="url(#mask0_1745_591)">
<path d="M53.4375 20.6503C58.7755 23.4581 63.128 27.7303 65.8408 33.125L53.4375 20.6503Z" fill="white"/>
<path d="M53.4375 20.6503C58.7755 23.4581 63.128 27.7303 65.8408 33.125" stroke="#95C11F" stroke-width="6" stroke-miterlimit="10" stroke-linecap="round" stroke-linejoin="round"/>
<path d="M11.1016 45.625C11.2405 39.0831 13.5525 33.0759 17.345 28.2966L11.1016 45.625Z" fill="white"/>
<path d="M11.1016 45.625C11.2405 39.0831 13.5525 33.0759 17.345 28.2966" stroke="#95C11F" stroke-width="6" stroke-miterlimit="10" stroke-linecap="round" stroke-linejoin="round"/>
<path d="M56.875 69.722C52.1266 73.1419 46.2986 75.1562 40 75.1562C38.5127 75.1562 37.0517 75.0441 35.625 74.8273" fill="white"/>
<path d="M56.875 69.722C52.1266 73.1419 46.2986 75.1562 40 75.1562C38.5127 75.1562 37.0517 75.0441 35.625 74.8273" stroke="#95C11F" stroke-width="6" stroke-miterlimit="10" stroke-linecap="round" stroke-linejoin="round"/>
<path d="M40 31.25C32.665 31.25 26.7188 25.3038 26.7188 17.9688C26.7188 10.6338 32.665 4.6875 40 4.6875C47.335 4.6875 53.2812 10.6338 53.2812 17.9688C53.2812 25.3038 47.335 31.25 40 31.25Z" fill="white" stroke="#95C11F" stroke-width="6" stroke-miterlimit="10" stroke-linecap="round" stroke-linejoin="round"/>
<path d="M16.4062 71.25C9.07125 71.25 3.125 65.3038 3.125 57.9688C3.125 50.6338 9.07125 44.6875 16.4062 44.6875C23.7412 44.6875 29.6875 50.6338 29.6875 57.9688C29.6875 65.3038 23.7412 71.25 16.4062 71.25Z" fill="white" stroke="#95C11F" stroke-width="6" stroke-miterlimit="10" stroke-linecap="round" stroke-linejoin="round"/>
<path d="M65.6372 71.0938C64.9709 71.1966 64.2886 71.25 63.5937 71.25C56.2587 71.25 50.3125 65.3038 50.3125 57.9688C50.3125 50.6338 56.2587 44.6875 63.5937 44.6875C70.9287 44.6875 76.875 50.6338 76.875 57.9688C76.875 59.5602 76.5952 61.0859 76.082 62.5" fill="white"/>
<path d="M65.6372 71.0938C64.9709 71.1966 64.2886 71.25 63.5937 71.25C56.2587 71.25 50.3125 65.3038 50.3125 57.9688C50.3125 50.6338 56.2587 44.6875 63.5937 44.6875C70.9287 44.6875 76.875 50.6338 76.875 57.9688C76.875 59.5602 76.5952 61.0859 76.082 62.5" stroke="#95C11F" stroke-width="6" stroke-miterlimit="10" stroke-linecap="round" stroke-linejoin="round"/>
</g>
</svg>