<svg width="80" height="80" fill="none" xmlns="http://www.w3.org/2000/svg"><g clip-path="url(#clip0_1745_587)"><path d="M39.974 79.219a6.91 6.91 0 0 1-5.478-2.67l-7.99-10.134-14.008-.009C5.608 66.406 0 60.8 0 53.906V13.125C0 6.232 5.607.625 12.5.625h55c6.892 0 12.5 5.607 12.5 12.5v25.156a3.125 3.125 0 1 1-6.25 0V13.125a6.257 6.257 0 0 0-6.25-6.25h-55a6.257 6.257 0 0 0-6.25 6.25v40.781a6.257 6.257 0 0 0 6.25 6.25l15.524.01c.956 0 1.86.439 2.451 1.19l8.936 11.332a.69.69 0 0 0 .564.28h.003a.685.685 0 0 0 .557-.275l.016-.021 8.864-11.318a3.126 3.126 0 0 1 2.46-1.198H67.5a6.257 6.257 0 0 0 6.25-6.25 3.125 3.125 0 1 1 6.25 0c0 6.893-5.608 12.5-12.5 12.5H53.397l-7.919 10.11a6.91 6.91 0 0 1-5.476 2.703h-.028Zm3.15-30.938V31.406a3.125 3.125 0 1 0-6.25 0v16.875a3.125 3.125 0 1 0 6.25 0ZM40 17.5a3.125 3.125 0 1 0 0 6.25 3.125 3.125 0 0 0 0-6.25Z" fill="#95C11F"/></g></svg>