<svg width="60" height="60" fill="none" xmlns="http://www.w3.org/2000/svg"><g fill="#1F294C"><path d="M52.935 15.639a1 1 0 0 0 .342-1.94l-9.27-3.383a1 1 0 0 0-.686 1.879l9.27 3.383a1 1 0 0 0 .344.06ZM11.06 56.6l-.4.069L2.154 8.407l21.12-3.725a1 1 0 1 0-.347-1.969L.825 6.613a1 1 0 0 0-.81 1.159L8.87 58a1 1 0 0 0 1.158.81l1.38-.244a.999.999 0 1 0-.347-1.968v.002ZM59.002 45.999a1 1 0 0 0-1 1v11H27a1 1 0 0 0 0 2h32.002a1 1 0 0 0 1-1V47a1 1 0 0 0-1-1Z"/><path d="M58.999 27.998h-4.556l.7-1.907a1 1 0 0 0-.6-1.282l-3.759-1.372a1 1 0 0 1 .686-1.879l3.758 1.372a.999.999 0 0 0 1.283-.6l3.427-9.401a1 1 0 0 0-.6-1.282L40.076 4.625l-.672-3.8a1 1 0 0 0-1.158-.81l-11.38 2.002a1 1 0 0 0 .349 1.97l10.393-1.833 4.558 25.844h-8.647c.05-1.258-.01-2.518-.177-3.766l2.946-.52c.051.492.074.986.068 1.48a1.002 1.002 0 0 0 .983 1.018 1.02 1.02 0 0 0 1.017-.983A14.985 14.985 0 0 0 21.271 10.13l-.925.156a14.98 14.98 0 0 0-6.35 26.395V59a1 1 0 0 0 1 1h8a1 1 0 0 0 0-2h-7V34.998h42.003v4H18.996a1 1 0 1 0 0 2H58v2a1 1 0 0 0 2 0v-14a1 1 0 0 0-1-1Zm-16.146-7.616c.108.14.251.248.416.313l1.878.686a1 1 0 1 0 .686-1.88l-1.88-.686a1 1 0 0 0-1.273.583l-.6-3.395 4.437 1.62a1.001 1.001 0 0 0 1.02-1.678 1 1 0 0 0-.335-.202l-5.524-2.015-1.201-6.831 17.24 6.289-2.742 7.521-2.82-1.028a3 3 0 1 0-2.057 5.637l2.818 1.029-.603 1.653h-8.115l-1.345-7.616Zm-11.336 7.616h-3.686a64.558 64.558 0 0 0-.382-2.727l3.923-.692c.147 1.133.196 2.277.145 3.419Zm-16.176-7.684c1.1-.05 2.22-.146 3.35-.27.156 1.88.393 3.582.56 4.643l-3.923.69a19.041 19.041 0 0 1 .013-5.063Zm11.766 2.984a66.816 66.816 0 0 0-1.056-4.547 53.667 53.667 0 0 0 3.235-.9 19.162 19.162 0 0 1 1.742 4.758l-3.921.689Zm-5.889 1.039a56.396 56.396 0 0 1-.55-4.545c.574-.083 1.15-.166 1.726-.268a61.817 61.817 0 0 0 1.713-.33c.364 1.315.715 2.8 1.032 4.45l-3.92.693Zm-.105-12.08c.547.432 1.477 2.155 2.41 5-.492.1-.977.214-1.477.3-.499.086-.994.147-1.49.221-.095-2.99.191-4.929.557-5.521Zm4.372 4.57a23.073 23.073 0 0 0-1.837-4.43 9.636 9.636 0 0 1 4.549 3.693c-.883.267-1.787.513-2.712.737Zm2.494-4.009a12.913 12.913 0 0 1 3.606 2.09c-.468.183-.93.368-1.418.54a15.093 15.093 0 0 0-2.188-2.63Zm-9.207.456a23.196 23.196 0 0 0-.207 4.773c-.943.104-1.876.183-2.8.235a9.68 9.68 0 0 1 3.007-5.008ZM15.84 27.998c-.057-.217-.115-.433-.165-.651l3.927-.692c.09.46.181.914.274 1.343H15.84Zm6.086 0c-.122-.536-.24-1.1-.355-1.691l3.908-.69c.128.793.24 1.586.338 2.38h-3.89Zm14.014-6.255-2.943.519a21.132 21.132 0 0 0-1.8-5.052c.674-.243 1.323-.5 1.96-.769a12.969 12.969 0 0 1 2.783 5.303Zm-21.111-6.6a15.02 15.02 0 0 0-1.15 3.214c-.517 0-1.015-.01-1.517-.024a12.867 12.867 0 0 1 2.667-3.195v.005Zm-3.618 5.154c.659.031 1.318.063 2 .063h.1a21.154 21.154 0 0 0 .038 5.364l-2.928.517a12.963 12.963 0 0 1 .79-5.944Zm-.44 7.911 2.935-.51c.09.405.194.808.309 1.211 0 .032-.02.06-.02.093v4.994a12.9 12.9 0 0 1-3.224-5.784v-.004Zm5.225 4.79v-3h42.003v3H15.996Z"/><path d="M33 51a4 4 0 0 0-4-4.001h-6a4 4 0 0 0 0 8h6a4 4 0 0 0 4-4Zm-12 0a2 2 0 0 1 2-2h6a2 2 0 1 1 0 4h-6a2 2 0 0 1-2-2ZM42 50h11a1 1 0 0 0 0-2.001H42a1 1 0 0 0 0 2ZM42 54h8a1 1 0 1 0 0-2h-8a1 1 0 0 0 0 2Z"/></g></svg>