<svg width="30" height="30" fill="none" xmlns="http://www.w3.org/2000/svg"><g fill="#0296D8" clip-path="url(#clip0_1735_65)"><path d="M18.223 10.898h-6.446a.879.879 0 0 0-.879.88v6.445c0 .485.394.879.88.879h6.445a.879.879 0 0 0 .879-.88v-6.445a.879.879 0 0 0-.88-.879ZM29.121 10.898h-6.445a.879.879 0 0 0-.88.88v6.445c0 .485.394.879.88.879h6.445a.879.879 0 0 0 .879-.88v-6.445a.879.879 0 0 0-.879-.879ZM7.324 10.898H.88a.879.879 0 0 0-.879.88v6.445c0 .485.394.879.879.879h6.445a.879.879 0 0 0 .88-.88v-6.445a.879.879 0 0 0-.88-.879ZM18.223 21.797h-6.446a.879.879 0 0 0-.879.879v6.445c0 .486.394.879.88.879h6.445a.879.879 0 0 0 .879-.879v-6.445a.879.879 0 0 0-.88-.88ZM29.121 21.797h-6.445a.879.879 0 0 0-.88.879v6.445c0 .486.394.879.88.879h6.445a.879.879 0 0 0 .879-.879v-6.445a.879.879 0 0 0-.879-.88ZM7.324 21.797H.88a.879.879 0 0 0-.879.879v6.445c0 .486.394.879.879.879h6.445a.879.879 0 0 0 .88-.879v-6.445a.879.879 0 0 0-.88-.88ZM18.223 0h-6.446a.879.879 0 0 0-.879.879v6.445c0 .486.394.88.88.88h6.445a.879.879 0 0 0 .879-.88V.88a.879.879 0 0 0-.88-.879ZM29.121 0h-6.445a.879.879 0 0 0-.88.879v6.445c0 .486.394.88.88.88h6.445a.879.879 0 0 0 .879-.88V.88A.879.879 0 0 0 29.121 0ZM7.324 0H.88A.879.879 0 0 0 0 .879v6.445c0 .486.394.88.879.88h6.445a.879.879 0 0 0 .88-.88V.88A.879.879 0 0 0 7.323 0Z"/></g></svg>