<svg width="30" height="30" viewBox="0 0 30 30" fill="none" xmlns="http://www.w3.org/2000/svg">
<g clip-path="url(#clip0_1735_65)">
<g>
<path d="M18.2227 10.8984H11.7773C11.292 10.8984 10.8984 11.292 10.8984 11.7773V18.2227C10.8984 18.708 11.292 19.1016 11.7773 19.1016H18.2227C18.708 19.1016 19.1016 18.708 19.1016 18.2227V11.7773C19.1016 11.292 18.708 10.8984 18.2227 10.8984Z" fill="#0296D8"/>
<path d="M29.1211 10.8984H22.6758C22.1904 10.8984 21.7969 11.292 21.7969 11.7773V18.2227C21.7969 18.708 22.1904 19.1016 22.6758 19.1016H29.1211C29.6065 19.1016 30 18.708 30 18.2227V11.7773C30 11.292 29.6065 10.8984 29.1211 10.8984Z" fill="#0296D8"/>
<path d="M7.32422 10.8984H0.878906C0.393516 10.8984 0 11.292 0 11.7773V18.2227C0 18.708 0.393516 19.1016 0.878906 19.1016H7.32422C7.80961 19.1016 8.20312 18.708 8.20312 18.2227V11.7773C8.20312 11.292 7.80961 10.8984 7.32422 10.8984Z" fill="#0296D8"/>
<path d="M18.2227 21.7969H11.7773C11.292 21.7969 10.8984 22.1904 10.8984 22.6758V29.1211C10.8984 29.6065 11.292 30 11.7773 30H18.2227C18.708 30 19.1016 29.6065 19.1016 29.1211V22.6758C19.1016 22.1904 18.708 21.7969 18.2227 21.7969Z" fill="#0296D8"/>
<path d="M29.1211 21.7969H22.6758C22.1904 21.7969 21.7969 22.1904 21.7969 22.6758V29.1211C21.7969 29.6065 22.1904 30 22.6758 30H29.1211C29.6065 30 30 29.6065 30 29.1211V22.6758C30 22.1904 29.6065 21.7969 29.1211 21.7969Z" fill="#0296D8"/>
<path d="M7.32422 21.7969H0.878906C0.393516 21.7969 0 22.1904 0 22.6758V29.1211C0 29.6065 0.393516 30 0.878906 30H7.32422C7.80961 30 8.20312 29.6065 8.20312 29.1211V22.6758C8.20312 22.1904 7.80961 21.7969 7.32422 21.7969Z" fill="#0296D8"/>
<path d="M18.2227 0H11.7773C11.292 0 10.8984 0.393516 10.8984 0.878906V7.32422C10.8984 7.80961 11.292 8.20312 11.7773 8.20312H18.2227C18.708 8.20312 19.1016 7.80961 19.1016 7.32422V0.878906C19.1016 0.393516 18.708 0 18.2227 0Z" fill="#0296D8"/>
<path d="M29.1211 0H22.6758C22.1904 0 21.7969 0.393516 21.7969 0.878906V7.32422C21.7969 7.80961 22.1904 8.20312 22.6758 8.20312H29.1211C29.6065 8.20312 30 7.80961 30 7.32422V0.878906C30 0.393516 29.6065 0 29.1211 0Z" fill="#0296D8"/>
<path d="M7.32422 0H0.878906C0.393516 0 0 0.393516 0 0.878906V7.32422C0 7.80961 0.393516 8.20312 0.878906 8.20312H7.32422C7.80961 8.20312 8.20312 7.80961 8.20312 7.32422V0.878906C8.20312 0.393516 7.80961 0 7.32422 0Z" fill="#0296D8"/>
</g>
</g>
<defs>
<clipPath >
<rect width="30" height="30" fill="white"/>
</clipPath>
</defs>
</svg>