<svg width="24" height="24" fill="none" xmlns="http://www.w3.org/2000/svg"><g clip-path="url(#clip0_1742_18)" fill="#0296D8"><path d="M13.078 17.063c0 1.033.841 1.875 1.875 1.875h2.203a1.877 1.877 0 0 0 1.875-1.875v-2.204a1.877 1.877 0 0 0-1.875-1.875h-2.203a1.877 1.877 0 0 0-1.875 1.875v2.204Zm1.875-2.204h2.203l.001 2.204h-2.204v-2.204ZM18.094 10.781a.937.937 0 1 0 0-1.875.937.937 0 0 0 0 1.875ZM14.016 10.781a.937.937 0 1 0 0-1.875.937.937 0 0 0 0 1.875Z"/><path d="M23.063 16.5c.517 0 .937-.42.937-.938V5.626a3.754 3.754 0 0 0-3.75-3.75h-1.219V.937a.937.937 0 1 0-1.875 0v.938h-4.265V.937a.937.937 0 1 0-1.875 0v.938h-4.22V.937a.937.937 0 1 0-1.874 0v.938H3.75A3.754 3.754 0 0 0 0 5.625V20.25A3.754 3.754 0 0 0 3.75 24h16.5A3.754 3.754 0 0 0 24 20.25a.937.937 0 1 0-1.875 0 1.877 1.877 0 0 1-1.875 1.875H3.75a1.877 1.877 0 0 1-1.875-1.875V5.625c0-1.034.841-1.875 1.875-1.875h1.172v.938a.937.937 0 1 0 1.875 0V3.75h4.219v.938a.937.937 0 1 0 1.875 0V3.75h4.265v.938a.938.938 0 0 0 1.875 0V3.75h1.219c1.034 0 1.875.841 1.875 1.875v9.938c0 .517.42.937.938.937Z"/><path d="M5.86 18.938a.937.937 0 1 0 0-1.875.937.937 0 0 0 0 1.875ZM5.86 10.781a.937.937 0 1 0 0-1.875.937.937 0 0 0 0 1.875ZM5.86 14.86a.938.938 0 1 0 0-1.876.938.938 0 0 0 0 1.875ZM9.938 14.86a.938.938 0 1 0 0-1.876.938.938 0 0 0 0 1.875ZM9.938 10.781a.937.937 0 1 0 0-1.875.937.937 0 0 0 0 1.875ZM9.938 18.938a.937.937 0 1 0 0-1.875.937.937 0 0 0 0 1.875Z"/></g></svg>