<svg width="40" height="40" fill="none" xmlns="http://www.w3.org/2000/svg"><g fill="#0296D8" clip-path="url(#clip0_1748_326)"><path d="M21.797 28.438a3.129 3.129 0 0 0 3.125 3.125h3.672a3.129 3.129 0 0 0 3.125-3.125v-3.672a3.129 3.129 0 0 0-3.125-3.125h-3.672a3.129 3.129 0 0 0-3.125 3.125v3.672Zm3.125-3.672h3.672l.002 3.671h-3.674v-3.671ZM30.156 17.969a1.563 1.563 0 1 0 0-3.125 1.563 1.563 0 0 0 0 3.125ZM23.36 17.969a1.563 1.563 0 1 0 0-3.125 1.563 1.563 0 0 0 0 3.125Z"/><path d="M38.438 27.5c.862 0 1.562-.7 1.562-1.563V9.375a6.257 6.257 0 0 0-6.25-6.25h-2.031V1.562a1.563 1.563 0 0 0-3.125 0v1.563h-7.11V1.562a1.563 1.563 0 0 0-3.125 0v1.563h-7.03V1.562a1.562 1.562 0 1 0-3.126 0v1.563H6.25A6.257 6.257 0 0 0 0 9.375V33.75A6.257 6.257 0 0 0 6.25 40h27.5A6.257 6.257 0 0 0 40 33.75a1.562 1.562 0 1 0-3.125 0 3.129 3.129 0 0 1-3.125 3.125H6.25a3.129 3.129 0 0 1-3.125-3.125V9.375A3.129 3.129 0 0 1 6.25 6.25h1.953v1.563a1.562 1.562 0 1 0 3.125 0V6.25h7.031v1.563a1.562 1.562 0 1 0 3.125 0V6.25h7.11v1.563a1.562 1.562 0 1 0 3.125 0V6.25h2.031a3.129 3.129 0 0 1 3.125 3.125v16.563c0 .863.7 1.562 1.563 1.562Z"/><path d="M9.766 31.563a1.562 1.562 0 1 0 0-3.125 1.562 1.562 0 0 0 0 3.125ZM9.766 17.969a1.563 1.563 0 1 0 0-3.125 1.563 1.563 0 0 0 0 3.125ZM9.766 24.766a1.562 1.562 0 1 0 0-3.125 1.562 1.562 0 0 0 0 3.125ZM16.563 24.766a1.562 1.562 0 1 0 0-3.125 1.562 1.562 0 0 0 0 3.125ZM16.563 17.969a1.563 1.563 0 1 0 0-3.125 1.563 1.563 0 0 0 0 3.125ZM16.563 31.563a1.563 1.563 0 1 0 0-3.126 1.563 1.563 0 0 0 0 3.125Z"/></g></svg>