<svg width="60" height="60" fill="none" xmlns="http://www.w3.org/2000/svg"><defs><clipPath><path fill="#fff" fill-opacity="0" d="M0 0h60v60H0z"/></clipPath></defs><g clip-path="url(#a)" fill="#1F294C"><path d="M4.977.176a6.64 6.64 0 0 1-.516.176C4.289.352.516 4.242.312 4.629c-.343.656-.343 1.922 0 2.578.141.258 1.75 1.957 3.633 3.809 4.414 4.37 4.563 4.453 8.18 4.453h1.992l2.664 2.66 2.657 2.66-1.032 1.066c-6.476 6.786-11.96 15.668-15.43 24.997C1.72 50.227 0 56.379 0 57.48c.008.855.633 1.828 1.438 2.238.742.386 1.328.34 3.843-.293 10.625-2.649 20.172-7.383 28.57-14.121 1.665-1.336 4.079-3.457 4.876-4.278l.46-.48 2.672 2.66 2.672 2.672v1.992c0 3.645.078 3.797 4.438 8.18 1.851 1.875 3.562 3.492 3.82 3.633.656.351 1.922.351 2.578 0 .578-.317 4.055-3.809 4.352-4.371.312-.598.289-1.899-.04-2.52-.14-.258-1.757-1.969-3.632-3.82-4.383-4.36-4.531-4.442-8.18-4.442h-1.992l-2.656-2.66-2.664-2.66 1.023-1.066c6.64-6.95 12.383-16.348 15.703-25.723C58.508 8.953 60 3.516 60 2.52 59.984 1.242 58.758.012 57.477 0c-.618 0-4.172.879-6.797 1.688-10.602 3.257-20.532 8.976-28.547 16.476l-1.36 1.266-2.648-2.649-2.656-2.66V12.13c0-3.621-.086-3.774-4.453-8.18C9.102 2.016 7.476.47 7.219.33 6.609.011 5.586-.06 4.977.175Zm1.656 2.039c.242.176 1.719 1.617 3.281 3.187 3.406 3.457 3.586 3.739 3.656 5.66l.047 1.184-1.922-1.91c-1.687-1.664-1.968-1.899-2.312-1.899-.5 0-.945.446-.945.95 0 .34.234.62 1.906 2.308l1.898 1.922-1.18-.047c-1.054-.035-1.265-.082-1.992-.445-.703-.34-1.195-.785-3.804-3.363-1.657-1.63-3.094-3.14-3.22-3.364-.124-.234-.179-.503-.14-.668.04-.152.883-1.09 1.875-2.074 1.992-1.98 2.078-2.015 2.852-1.441Zm51.258-.106c.125.13.234.329.234.446 0 .257-.914 3.914-1.29 5.168l-.257.879-.46-.891c-.876-1.676-2.25-3.024-3.985-3.914l-.711-.363.867-.27c1.273-.387 4.805-1.277 5.11-1.277.14-.012.359.093.492.222Zm-8.274 2.754c1.336.282 2.461.914 3.524 1.992 1.078 1.067 1.718 2.192 1.992 3.528.304 1.441.258 1.828-.54 3.82-3.327 8.297-8.468 16.418-14.234 22.453l-1.164 1.207-1.273-1.277-1.266-1.29.797-.972c3.305-4.078 4.758-8.367 3.914-11.648-.672-2.613-2.594-4.09-5.508-4.242-3.156-.165-6.843 1.335-10.234 4.16l-.922.761-1.281-1.277-1.274-1.265.508-.516c.657-.68 3.14-2.883 4.532-4.008 5.5-4.441 11.773-8.133 18.515-10.852 2.016-.82 2.461-.878 3.914-.574ZM37.516 20.648c1.601.739 2.312 2.168 2.172 4.36-.102 1.723-.665 3.41-1.735 5.285-.594 1.055-1.976 2.977-2.445 3.398l-.242.223-4.563-4.559c-2.515-2.52-4.57-4.605-4.57-4.652 0-.27 2.531-2.11 4.008-2.906 1.984-1.067 3.718-1.535 5.484-1.488 1.023.035 1.336.093 1.89.34Zm-14.922 4.98c-2.649 3.177-4.188 6.763-4.196 9.763 0 1.957.516 3.351 1.688 4.523 1.133 1.137 2.586 1.688 4.406 1.688 1.32 0 2.274-.164 3.711-.645 2.055-.691 4.235-1.945 6.164-3.55l.93-.762 1.289 1.277 1.273 1.277-1.203 1.16c-3.32 3.176-7.992 6.68-12.422 9.305-4.445 2.637-11.086 5.648-12.445 5.648-3.187-.011-6.258-2.53-6.93-5.695-.304-1.43-.242-1.816.516-3.75 3.227-8.156 8.242-16.09 14.102-22.347l1.296-1.395 1.29 1.29 1.289 1.288-.758.926Zm6.758 5.075 4.562 4.559-.234.258c-.117.14-.72.62-1.32 1.078l-1.094.82-4.336-4.336-4.336-4.348.492-.68c.656-.89 1.523-1.921 1.617-1.921.047 0 2.133 2.05 4.649 4.57Zm-.149 7.84c-.18.094-.726.316-1.242.504-2.523.926-4.64.902-6.047-.047-.742-.492-1.14-1.066-1.43-2.004-.203-.691-.234-1.008-.172-2.004.063-1.242.29-2.156.922-3.691l.36-.856 3.968 3.961 3.97 3.973-.329.164Zm21.727 8.332c.703.34 1.195.785 3.804 3.363 1.657 1.63 3.094 3.14 3.211 3.364.133.234.188.504.14.668-.03.152-.874 1.09-1.866 2.062-2 1.992-2.078 2.027-2.852 1.453-.242-.176-1.726-1.617-3.281-3.187-3.414-3.457-3.586-3.739-3.656-5.66l-.047-1.184 1.922 1.898c1.687 1.676 1.968 1.91 2.304 1.91a.977.977 0 0 0 .953-.949c0-.34-.234-.62-1.898-2.308l-1.914-1.922 1.188.047c1.054.035 1.265.082 1.992.445ZM4.969 53.918c.734.89 1.64 1.617 2.789 2.215l.828.445-.805.246c-.445.13-1.797.492-3 .797-2.39.598-2.71.586-2.86-.012-.062-.27.688-3.515 1.25-5.39l.25-.82.454.89c.258.48.75 1.219 1.094 1.629Z"/><path d="M47.172 6.855c-.297.282-.297.317-.297 2.344v2.051H45.75c-1.5 0-1.969.152-2.68.879-.726.715-.883 1.184-.883 2.684v1.124h-1.109c-1.031 0-1.148.024-1.406.293a.918.918 0 0 0-.297.645c0 .223.11.469.297.645.258.27.375.293 1.406.293h1.11v1.113c0 1.031.023 1.148.296 1.406a.905.905 0 0 0 .641.293.922.922 0 0 0 .648-.293c.266-.258.29-.375.29-1.406v-1.113h1.124c1.5 0 1.97-.153 2.688-.88.727-.714.875-1.183.875-2.683v-1.125h2.055c2.023 0 2.062 0 2.343-.293.383-.375.383-.914 0-1.289-.28-.293-.32-.293-2.343-.293H48.75V9.2c0-2.028 0-2.063-.29-2.345a.922.922 0 0 0-.648-.293.905.905 0 0 0-.64.293Zm-.297 7.383c0 1.032-.023 1.149-.29 1.407-.257.27-.374.293-1.405.293h-1.117v-1.114c0-1.031.023-1.148.296-1.406.258-.27.375-.293 1.407-.293h1.109v1.113ZM13.5 37.7c-.422.375-5.578 8.625-5.797 9.293-.32.914-.234 2.18.172 3.07.867 1.864 3.047 2.86 5.031 2.274.914-.258 9.383-5.66 9.524-6.07.14-.41 0-.88-.352-1.102-.265-.187-.36-.187-1.406.012-2.82.527-4.781-.176-5.649-2.04-.398-.855-.476-2.402-.21-3.726.25-1.219.234-1.277-.102-1.617-.344-.352-.867-.387-1.211-.094Zm-.516 5.215c.47 2.004 2.102 3.633 4.102 4.102.328.082.61.175.61.21 0 .094-4.829 3.13-5.188 3.27-.813.305-1.922.047-2.5-.598-.594-.644-.797-1.629-.5-2.402.14-.363 3.172-5.191 3.265-5.191.04 0 .133.28.211.61Z"/></g></svg>