<svg width="24" height="24" fill="none" xmlns="http://www.w3.org/2000/svg"><g clip-path="url(#clip0_1742_100)" fill="#0296D8"><path d="m23.51 8.282-.962-1.678a.937.937 0 0 0-1.275-.35.939.939 0 0 1-.93-1.627.938.938 0 0 0 .34-1.277l-.849-1.483A3.686 3.686 0 0 0 17.587.132a3.684 3.684 0 0 0-2.816.361l-12.906 7.4A3.723 3.723 0 0 0 0 11.109v3.563c0 .518.42.937.938.937a.939.939 0 0 1 0 1.875.937.937 0 0 0-.938.938v1.828A3.754 3.754 0 0 0 3.75 24h15.095a3.754 3.754 0 0 0 3.75-3.75v-1.828a.937.937 0 0 0-.938-.938.939.939 0 0 1 0-1.875c.518 0 .938-.42.938-.937v-1.637a3.716 3.716 0 0 0 .915-4.753Zm-1.495 2.469a3.75 3.75 0 0 0-3.17-1.752h-2.33a.936.936 0 0 0-1.277-1.282.937.937 0 0 0-.348 1.28l.002.002h-5a.938.938 0 1 0 0 1.876h8.953c1.034 0 1.875.84 1.875 1.875v1.145a2.818 2.818 0 0 0-1.875 2.652c0 1.222.784 2.265 1.875 2.652v1.051a1.877 1.877 0 0 1-1.875 1.875H3.75a1.877 1.877 0 0 1-1.875-1.875v-1.051a2.818 2.818 0 0 0 1.875-2.652 2.818 2.818 0 0 0-1.875-2.652V12.75c0-1.034.841-1.875 1.875-1.875h1.453a.937.937 0 1 0 0-1.876H3.75l-.047.002 12-6.88c.426-.245.92-.308 1.393-.18.473.129.867.433 1.111.859l.467.814A2.82 2.82 0 0 0 18 5.437a2.816 2.816 0 0 0 3.304 2.769l.578 1.008c.278.486.309 1.047.132 1.537Z"/><path d="M15.563 14.156a.938.938 0 1 0 0-1.875.938.938 0 0 0 0 1.875ZM15.563 17.437a.938.938 0 1 0 0-1.875.938.938 0 0 0 0 1.875ZM15.563 20.719a.938.938 0 1 0 0-1.875.938.938 0 0 0 0 1.875ZM14.063 6.608a.938.938 0 1 0 0-1.875.938.938 0 0 0 0 1.875Z"/></g></svg>