<svg width="30" height="30" viewBox="0 0 30 30" fill="none" xmlns="http://www.w3.org/2000/svg">
<path d="M28.7903 11H1.20968C0.541613 11 0 11.4884 0 12.0909V17.9091C0 18.5116 0.541613 19 1.20968 19H28.7903C29.4584 19 30 18.5116 30 17.9091V12.0909C30 11.4884 29.4584 11 28.7903 11Z" fill="#0296D8"/>
<path d="M28.7903 22H1.20968C0.541613 22 0 22.4884 0 23.0909V28.9091C0 29.5116 0.541613 30 1.20968 30H28.7903C29.4584 30 30 29.5116 30 28.9091V23.0909C30 22.4884 29.4584 22 28.7903 22Z" fill="#0296D8"/>
<path d="M28.7903 0H1.20968C0.541613 0 0 0.549491 0 1.22727V7.77273C0 8.45051 0.541613 9 1.20968 9H28.7903C29.4584 9 30 8.45051 30 7.77273V1.22727C30 0.549491 29.4584 0 28.7903 0Z" fill="#0296D8"/>
</svg>