<svg width="30" height="30" fill="none" xmlns="http://www.w3.org/2000/svg"><path d="M28.79 11H1.21C.542 11 0 11.488 0 12.09v5.82C0 18.511.542 19 1.21 19h27.58c.668 0 1.21-.488 1.21-1.09v-5.82c0-.602-.542-1.09-1.21-1.09ZM28.79 22H1.21C.542 22 0 22.488 0 23.09v5.82C0 29.511.542 30 1.21 30h27.58c.668 0 1.21-.488 1.21-1.09v-5.82c0-.602-.542-1.09-1.21-1.09ZM28.79 0H1.21C.542 0 0 .55 0 1.227v6.546C0 8.45.542 9 1.21 9h27.58C29.458 9 30 8.45 30 7.773V1.227C30 .55 29.458 0 28.79 0Z" fill="#0296D8"/></svg>