<svg width="144" height="120" viewBox="0 0 144 120" fill="none" xmlns="http://www.w3.org/2000/svg">
<g clip-path="url(#clip0_3758_526)">
<path fill-rule="evenodd" clip-rule="evenodd" d="M72 0L108 36.4521L144 72.9045H72H0L35.9999 36.4521L72 0Z" fill="#EDD918"/>
<path fill-rule="evenodd" clip-rule="evenodd" d="M72.003 16.9492L99.6337 44.9267L127.264 72.9044H72.003H16.7422L44.3726 44.9267L72.003 16.9492Z" fill="#F91C0A"/>
<path fill-rule="evenodd" clip-rule="evenodd" d="M72.003 46.1475L85.2156 59.526L98.428 72.9045H72.003H45.5781L58.7904 59.526L72.003 46.1475Z" fill="#900407"/>
<path d="M8.14062 102.738V80.041H17.6238C18.813 80.041 19.971 80.1315 21.0663 80.312C22.1619 80.4925 23.132 80.7935 23.9769 81.2451C24.8221 81.6966 25.4792 82.2986 25.98 83.0514C26.4809 83.8039 26.731 84.767 26.731 85.911C26.731 86.483 26.6687 87.0249 26.5122 87.5365C26.3557 88.0481 26.1366 88.53 25.8549 88.9514C25.5734 89.3726 25.2604 89.734 24.9161 90.035C24.5717 90.336 24.1961 90.577 23.7891 90.7575V90.7875C25.2917 91.2691 26.4496 91.9916 27.2632 92.955C28.0458 93.9181 28.4528 95.0921 28.4528 96.477C28.4528 97.7411 28.171 98.7646 27.6075 99.5775C27.0128 100.39 26.2931 101.052 25.4479 101.504C24.5717 101.956 23.6326 102.287 22.6315 102.467C21.6298 102.648 20.691 102.738 19.8145 102.738H8.14065H8.14062ZM17.0603 97.3196C17.436 97.3196 17.8426 97.3196 18.2496 97.2896C18.6565 97.2595 19.0008 97.1992 19.3449 97.079C19.6892 96.9585 19.9709 96.778 20.1901 96.507C20.4092 96.2661 20.5031 95.905 20.5031 95.4535C20.5031 95.002 20.4092 94.6706 20.2214 94.3997C20.0336 94.159 19.7831 93.9785 19.4701 93.828C19.1574 93.7075 18.813 93.6171 18.4374 93.587C18.0308 93.557 17.6238 93.557 17.2169 93.557H16.0903V97.3196H17.0604H17.0603ZM16.4033 88.7706C17.1229 88.7706 17.749 88.6504 18.2809 88.4095C18.813 88.1986 19.0632 87.7471 19.0632 87.1151C19.0632 86.5431 18.8757 86.1216 18.5 85.881C18.1244 85.6401 17.4673 85.5196 16.5285 85.5196H16.0903V88.7706H16.4033L16.4033 88.7706Z" fill="#080808"/>
<path d="M41.1262 80.041C42.4348 80.041 43.6517 80.1915 44.8077 80.4625C45.9641 80.7335 46.9683 81.185 47.8506 81.817C48.733 82.4494 49.4023 83.292 49.9198 84.2855C50.4369 85.2789 50.6806 86.513 50.6806 87.9279C50.6806 89.2825 50.3457 90.4865 49.7065 91.51C49.0678 92.5335 48.0029 93.4365 46.5423 94.2191L52.5668 102.738H43.0127L39.3919 95.4535H39.0875V102.738H31.0547V80.041H41.1262ZM39.0875 90.0951H39.7875C40.122 90.0951 40.4568 90.065 40.7914 90.035C41.1262 90.005 41.4003 89.9145 41.6737 89.764C41.9478 89.6436 42.1608 89.463 42.313 89.1921C42.4652 88.9514 42.526 88.6201 42.526 88.1986C42.526 87.7471 42.4652 87.4161 42.313 87.1451C42.1608 86.8741 41.9782 86.6936 41.7348 86.5431C41.4914 86.4226 41.2174 86.3325 40.8828 86.3024C40.548 86.2721 40.2135 86.2421 39.8483 86.2421H39.0875V90.0951Z" fill="#080808"/>
<path d="M54.4375 102.738V80.041H62.8582V102.738H54.4375Z" fill="#080808"/>
<path d="M67.5312 102.738V80.041H75.8246L75.638 89.8845L81.1048 80.041H90.3918L83.2478 91.2991L91.1683 102.738H81.2914L75.638 92.714L75.8246 102.738H67.5312Z" fill="#080808"/>
<path d="M90.9609 91.4497C90.9609 89.6734 91.2906 88.0479 91.9504 86.6032C92.6102 85.1583 93.5097 83.9242 94.6493 82.9007C95.759 81.8772 97.0787 81.0943 98.6079 80.5223C100.138 79.9507 101.757 79.6797 103.466 79.6797C105.176 79.6797 106.795 79.9507 108.324 80.5223C109.854 81.0943 111.173 81.8772 112.313 82.9007C113.422 83.9242 114.322 85.1583 114.982 86.6032C115.641 88.0479 115.971 89.6734 115.971 91.4497C115.971 93.2858 115.641 94.9113 114.982 96.3262C114.322 97.7709 113.422 99.0053 112.313 99.9984C111.173 100.992 109.854 101.774 108.324 102.286C106.795 102.828 105.176 103.099 103.466 103.099C101.757 103.099 100.138 102.828 98.6079 102.286C97.0786 101.774 95.759 100.992 94.6493 99.9984C93.5097 99.0053 92.6102 97.7709 91.9504 96.3262C91.2906 94.9113 90.9609 93.2858 90.9609 91.4497ZM99.2377 91.4497C99.2377 92.0818 99.3276 92.6838 99.5375 93.2257C99.7475 93.7674 100.018 94.2189 100.407 94.6103C100.797 95.0017 101.247 95.2724 101.757 95.4833C102.266 95.6939 102.836 95.8143 103.466 95.8143C104.096 95.8143 104.696 95.6939 105.205 95.4833C105.715 95.2724 106.135 95.0017 106.525 94.6103C106.915 94.2189 107.185 93.7673 107.394 93.2257C107.604 92.6838 107.694 92.0818 107.694 91.4497C107.694 90.8173 107.604 90.2454 107.394 89.7037C107.185 89.1618 106.915 88.6802 106.555 88.2588C106.195 87.8673 105.745 87.5363 105.235 87.2954C104.726 87.0848 104.126 86.9643 103.466 86.9643C102.806 86.9643 102.207 87.0848 101.697 87.2954C101.187 87.5363 100.737 87.8674 100.377 88.2588C100.018 88.6803 99.7474 89.1618 99.5375 89.7037C99.3276 90.2454 99.2377 90.8173 99.2377 91.4497H99.2377Z" fill="#080808"/>
<path d="M119.633 102.738V80.041H128.306V95.4535H135.863V102.738H119.633Z" fill="#080808"/>
<path d="M135.862 105.843H8.14062V107.768H135.862V105.843Z" fill="#080808"/>
<path d="M10.3263 110.966H13.2262C13.9781 110.966 14.6223 111.029 15.1597 111.142C15.7118 111.256 16.1875 111.47 16.6325 111.786C17.783 112.593 18.3508 113.817 18.3508 115.458C18.3508 116 18.2894 116.492 18.1817 116.947C18.0592 117.388 17.8902 117.792 17.6449 118.158C17.3994 118.511 17.0925 118.839 16.7242 119.117C16.433 119.331 16.1108 119.508 15.7575 119.647C15.4049 119.773 15.0366 119.861 14.6223 119.924C14.2233 119.975 13.7786 120 13.2723 120H10.3724C9.9737 120 9.66679 119.95 9.45196 119.849C9.25218 119.748 9.11437 119.609 9.053 119.42C8.99132 119.243 8.96094 119.003 8.96094 118.713V112.089C8.96094 111.697 9.06835 111.407 9.28287 111.231C9.4977 111.054 9.85062 110.966 10.3263 110.966L10.3263 110.966ZM11.1856 112.417V118.549H12.8732C13.2415 118.549 13.5331 118.536 13.7479 118.524C13.9474 118.511 14.1622 118.461 14.3921 118.398C14.6223 118.334 14.8064 118.246 14.9755 118.12C15.7271 117.603 16.0954 116.707 16.0954 115.445C16.0954 114.562 15.9266 113.893 15.604 113.439C15.2821 112.997 14.8681 112.72 14.3921 112.593C13.9164 112.48 13.3336 112.417 12.6587 112.417H11.1856H11.1856Z" fill="#080808"/>
<path d="M27.1501 118.843L26.606 117.748H21.9513L21.4071 118.867C21.1831 119.305 21.0072 119.598 20.8633 119.744C20.7034 119.902 20.4634 119.975 20.1117 119.975C19.8235 119.975 19.5676 119.902 19.3436 119.731C19.1198 119.573 19.0078 119.391 19.0078 119.184C19.0078 119.062 19.0238 118.94 19.0879 118.819C19.1358 118.684 19.2159 118.514 19.3436 118.283L22.2711 112.623C22.3512 112.465 22.4469 112.27 22.5749 112.039C22.6869 111.808 22.8149 111.625 22.9429 111.467C23.0708 111.321 23.2467 111.199 23.471 111.102C23.6788 111.016 23.9507 110.968 24.2705 110.968C24.5903 110.968 24.8622 111.016 25.0703 111.102C25.294 111.199 25.4705 111.321 25.5985 111.467C25.7424 111.613 25.8541 111.771 25.9342 111.942C26.0303 112.112 26.142 112.331 26.2859 112.611L29.2776 118.234C29.5173 118.66 29.6293 118.977 29.6293 119.171C29.6293 119.366 29.5173 119.561 29.2936 119.719C29.0695 119.89 28.8136 119.975 28.4935 119.975C28.3176 119.975 28.1577 119.95 28.0297 119.902C27.9018 119.853 27.7898 119.792 27.6937 119.707C27.6139 119.622 27.5178 119.488 27.4058 119.305C27.3101 119.135 27.23 118.977 27.1502 118.843L27.1501 118.843ZM22.5589 116.421H25.9821L24.2545 112.83L22.5589 116.421Z" fill="#080808"/>
<path d="M37.9297 112.039V116.603C37.9297 116.992 37.9143 117.333 37.8671 117.613C37.8204 117.892 37.7265 118.172 37.5706 118.452C37.3211 118.939 36.8997 119.304 36.3222 119.572C35.7289 119.84 35.0264 119.973 34.1837 119.973C33.4189 119.973 32.7946 119.888 32.295 119.694C31.78 119.511 31.374 119.207 31.0622 118.793C30.906 118.574 30.7654 118.319 30.6718 118.026C30.5623 117.734 30.5156 117.466 30.5156 117.199C30.5156 116.919 30.6095 116.712 30.8121 116.566C31.0149 116.42 31.2648 116.347 31.5769 116.347C31.8733 116.347 32.1078 116.408 32.2484 116.542C32.4043 116.688 32.5292 116.894 32.6071 117.175C32.6854 117.479 32.779 117.722 32.8569 117.905C32.9505 118.087 33.0911 118.245 33.294 118.379C33.4968 118.513 33.7936 118.574 34.168 118.574C35.167 118.574 35.6663 118.002 35.6663 116.858V112.039C35.6663 111.686 35.7756 111.418 35.9628 111.235C36.1659 111.053 36.4471 110.968 36.7901 110.968C37.1336 110.968 37.4144 111.053 37.6175 111.235C37.8361 111.418 37.9297 111.686 37.9297 112.039L37.9297 112.039Z" fill="#080808"/>
<path d="M41.5949 119.863C41.2785 119.863 41.029 119.8 40.8458 119.662C40.6628 119.523 40.5625 119.333 40.5625 119.093V111.738C40.5625 111.498 40.6628 111.309 40.8458 111.17C41.029 111.031 41.2785 110.968 41.5949 110.968H47.6061C47.9225 110.968 48.1724 111.018 48.3553 111.132C48.5388 111.245 48.6217 111.397 48.6217 111.599C48.6217 111.813 48.5388 111.965 48.3553 112.078C48.1724 112.192 47.9225 112.255 47.6061 112.255H42.6608V114.703H47.2731C47.5892 114.703 47.8394 114.753 48.0223 114.867C48.2058 114.98 48.289 115.132 48.289 115.346C48.289 115.548 48.2058 115.7 48.0223 115.813C47.8394 115.927 47.5892 115.977 47.2731 115.977H42.6608V118.576H47.6061C47.9225 118.576 48.1724 118.627 48.3553 118.74C48.5388 118.854 48.6217 119.018 48.6217 119.232C48.6217 119.434 48.5388 119.586 48.3553 119.699C48.1724 119.813 47.9225 119.863 47.6061 119.863H41.5949V119.863Z" fill="#080808"/>
<path d="M54.842 118.49L53.0752 112.847V118.96C53.0752 119.307 52.9828 119.554 52.7984 119.728C52.6139 119.888 52.3531 119.975 52.0456 119.975C51.7537 119.975 51.5079 119.888 51.3078 119.728C51.1236 119.554 51.0312 119.307 51.0312 118.96V111.956C51.0312 111.572 51.1546 111.3 51.4001 111.176C51.6463 111.04 51.9842 110.966 52.4144 110.966H53.1056C53.5205 110.966 53.8277 111.003 54.0122 111.065C54.1966 111.115 54.335 111.226 54.4268 111.387C54.5192 111.548 54.6269 111.795 54.7343 112.154L56.3323 117.005L57.93 112.154C58.0375 111.795 58.1452 111.548 58.2375 111.387C58.3293 111.226 58.4677 111.115 58.6522 111.065C58.8366 111.003 59.1438 110.966 59.5587 110.966H60.2499C60.6802 110.966 61.0181 111.04 61.2642 111.176C61.5097 111.3 61.6331 111.572 61.6331 111.956V118.96C61.6331 119.307 61.5407 119.554 61.3566 119.728C61.1718 119.888 60.9109 119.975 60.6034 119.975C60.3116 119.975 60.0658 119.888 59.8663 119.728C59.6815 119.554 59.5898 119.307 59.5898 118.96V112.847L57.8223 118.49C57.7149 118.861 57.6228 119.121 57.5458 119.294C57.4691 119.467 57.3307 119.628 57.1466 119.765C56.9468 119.913 56.6702 119.975 56.3323 119.975C56.0709 119.975 55.8557 119.938 55.6716 119.839C55.4871 119.752 55.3487 119.641 55.257 119.492C55.1489 119.356 55.0722 119.195 55.0108 119.022C54.9648 118.849 54.9034 118.676 54.842 118.49H54.842Z" fill="#080808"/>
<path d="M66.7069 118.904V116.141L63.9758 112.842C63.7417 112.538 63.5701 112.307 63.4768 112.148C63.3676 111.978 63.3203 111.832 63.3203 111.71C63.3203 111.503 63.4142 111.333 63.6171 111.187C63.8199 111.041 64.0698 110.968 64.3659 110.968C64.678 110.968 64.9122 111.041 65.0684 111.175C65.2243 111.309 65.4741 111.576 65.7859 111.99L67.8771 114.631L69.984 111.99C70.1089 111.832 70.2179 111.686 70.3115 111.576C70.3897 111.467 70.483 111.369 70.5923 111.272C70.7019 111.175 70.8111 111.102 70.936 111.041C71.0603 110.992 71.2168 110.968 71.404 110.968C71.6849 110.968 71.9347 111.041 72.1216 111.187C72.3088 111.333 72.4027 111.491 72.4027 111.686C72.4027 111.844 72.3557 111.99 72.2621 112.148C72.1685 112.307 71.9967 112.513 71.7631 112.794L68.9694 116.141V118.904C68.9694 119.257 68.8602 119.537 68.642 119.707C68.4388 119.89 68.158 119.975 67.8302 119.975C67.5028 119.975 67.222 119.89 67.0188 119.707C66.8006 119.537 66.707 119.269 66.707 118.904L66.7069 118.904Z" fill="#080808"/>
<path d="M87.5649 117.078C87.5649 117.358 87.47 117.65 87.2969 117.979C87.1235 118.295 86.8397 118.612 86.4613 118.928C86.0829 119.245 85.5946 119.488 85.0109 119.683C84.4121 119.877 83.7342 119.975 82.9464 119.975C82.347 119.975 81.8108 119.938 81.3226 119.841C80.8337 119.756 80.3924 119.622 79.9986 119.439C79.6042 119.257 79.2258 119.013 78.895 118.709C78.5951 118.441 78.3432 118.137 78.1382 117.796C77.9178 117.455 77.7598 117.09 77.6656 116.713C77.5551 116.323 77.5078 115.922 77.5078 115.484C77.5078 114.777 77.6339 114.157 77.9016 113.597C78.1695 113.049 78.5479 112.574 79.0368 112.173C79.5254 111.783 80.1085 111.479 80.7708 111.272C81.4327 111.065 82.1423 110.968 82.8828 110.968C83.7974 110.968 84.6171 111.114 85.3264 111.394C86.0359 111.674 86.5874 112.014 86.9655 112.428C87.3439 112.842 87.5333 113.232 87.5333 113.609C87.5333 113.804 87.4387 113.986 87.2494 114.144C87.076 114.291 86.8556 114.376 86.5874 114.376C86.2882 114.376 86.0829 114.315 85.9254 114.218C85.7836 114.108 85.6259 113.925 85.4365 113.658C85.137 113.232 84.7905 112.903 84.3961 112.696C83.9864 112.477 83.4978 112.368 82.8988 112.368C81.9689 112.368 81.212 112.647 80.6602 113.195C80.0928 113.743 79.8249 114.534 79.8249 115.544C79.8249 116.226 79.951 116.786 80.1876 117.236C80.4399 117.686 80.7864 118.015 81.2433 118.246C81.685 118.465 82.2208 118.575 82.8199 118.575C83.4819 118.575 84.0337 118.453 84.4909 118.198C84.9479 117.942 85.2787 117.577 85.5154 117.09C85.6102 116.859 85.7363 116.676 85.8781 116.53C86.0199 116.384 86.2562 116.311 86.5717 116.311C86.8396 116.311 87.0759 116.384 87.2653 116.53C87.47 116.676 87.5648 116.859 87.5648 117.078H87.5649Z" fill="#080808"/>
<path d="M89.6172 118.904V112.039C89.6172 111.686 89.7338 111.418 89.9505 111.235C90.1668 111.053 90.4667 110.968 90.8165 110.968C91.1827 110.968 91.4656 111.053 91.6989 111.235C91.9152 111.406 92.0318 111.674 92.0318 112.039V118.904C92.0318 119.257 91.9152 119.537 91.6989 119.707C91.4656 119.89 91.1827 119.975 90.8165 119.975C90.4667 119.975 90.1834 119.89 89.9505 119.707C89.7338 119.524 89.6172 119.257 89.6172 118.904Z" fill="#080808"/>
<path d="M102.042 112.379H96.882V114.6H101.632C101.979 114.6 102.247 114.663 102.405 114.789C102.578 114.915 102.673 115.079 102.673 115.281C102.673 115.483 102.578 115.659 102.421 115.786C102.247 115.912 101.979 115.975 101.632 115.975H96.882V118.549H102.215C102.578 118.549 102.847 118.612 103.036 118.751C103.21 118.877 103.304 119.054 103.304 119.281C103.304 119.495 103.21 119.672 103.036 119.798C102.847 119.937 102.578 120 102.215 120H95.9981C95.4936 120 95.1462 119.912 94.9255 119.735C94.7046 119.559 94.5938 119.268 94.5938 118.877V112.089C94.5938 111.824 94.6413 111.609 94.7362 111.445C94.8467 111.281 94.9884 111.155 95.1938 111.079C95.4147 111.003 95.667 110.966 95.9981 110.966H102.042C102.405 110.966 102.673 111.029 102.847 111.168C103.036 111.294 103.115 111.458 103.115 111.672C103.115 111.887 103.036 112.051 102.847 112.19C102.673 112.316 102.405 112.379 102.042 112.379L102.042 112.379Z" fill="#080808"/>
<path d="M109.474 116.374H107.397V118.886C107.397 119.245 107.288 119.517 107.085 119.703C106.866 119.888 106.601 119.975 106.273 119.975C105.929 119.975 105.648 119.888 105.445 119.703C105.242 119.517 105.133 119.245 105.133 118.898V112.067C105.133 111.671 105.242 111.387 105.476 111.226C105.71 111.053 106.07 110.966 106.569 110.966H109.474C110.333 110.966 110.988 111.016 111.457 111.127C111.91 111.226 112.316 111.399 112.644 111.622C112.972 111.857 113.221 112.142 113.393 112.488C113.565 112.822 113.659 113.206 113.659 113.627C113.659 114.53 113.315 115.211 112.613 115.681C111.91 116.139 110.864 116.374 109.474 116.374L109.474 116.374ZM108.927 112.315H107.397V115.025H108.927C109.458 115.025 109.911 114.975 110.255 114.889C110.614 114.802 110.895 114.654 111.082 114.456C111.27 114.258 111.363 113.985 111.363 113.664C111.363 113.268 111.223 112.958 110.926 112.711C110.598 112.451 109.942 112.315 108.927 112.315Z" fill="#080808"/>
<path d="M122.434 118.425C123.643 118.425 124.033 119.977 122.49 119.977H116.695C116.374 119.977 116.124 119.909 115.946 119.774C115.769 119.638 115.68 119.452 115.68 119.215C115.68 115.602 115.68 116.678 115.68 111.78C115.68 111.534 115.777 111.338 115.971 111.19C116.165 111.042 116.423 110.968 116.745 110.968C117.078 110.968 117.339 111.042 117.528 111.19C117.717 111.338 117.811 111.534 117.811 111.78V115.107L120.624 113.625C120.791 113.549 120.957 113.511 121.124 113.511C121.346 113.511 121.532 113.572 121.682 113.695C121.831 113.818 121.906 113.959 121.906 114.12C121.906 114.348 121.751 114.535 121.44 114.679L117.811 116.528L117.755 118.425H122.434L122.434 118.425Z" fill="#080808"/>
<path d="M129.504 110.968C130.663 110.968 131.665 111.15 132.495 111.516C133.325 111.881 133.967 112.404 134.389 113.085C134.812 113.755 135.032 114.546 135.032 115.459C135.032 116.129 134.922 116.749 134.687 117.297C134.452 117.845 134.092 118.319 133.622 118.733C133.152 119.135 132.589 119.439 131.9 119.658C131.211 119.865 130.428 119.975 129.551 119.975C128.674 119.975 127.891 119.865 127.202 119.646C126.498 119.427 125.918 119.123 125.464 118.721C124.994 118.319 124.649 117.832 124.415 117.273C124.164 116.713 124.055 116.104 124.055 115.447C124.055 114.777 124.18 114.169 124.431 113.609C124.665 113.049 125.025 112.574 125.495 112.185C125.965 111.783 126.544 111.491 127.218 111.284C127.891 111.077 128.643 110.968 129.504 110.968V110.968ZM132.73 115.447C132.73 114.814 132.605 114.254 132.338 113.792C132.072 113.317 131.696 112.964 131.195 112.733C130.709 112.489 130.146 112.368 129.504 112.368C129.05 112.368 128.627 112.44 128.251 112.574C127.86 112.696 127.531 112.891 127.249 113.146C126.983 113.402 126.764 113.731 126.591 114.12C126.435 114.51 126.357 114.96 126.357 115.447C126.357 115.946 126.435 116.396 126.591 116.786C126.764 117.187 126.983 117.528 127.28 117.784C127.562 118.052 127.907 118.246 128.283 118.38C128.658 118.514 129.081 118.575 129.535 118.575C130.115 118.575 130.647 118.465 131.132 118.234C131.618 118.015 132.009 117.662 132.307 117.187C132.589 116.713 132.73 116.141 132.73 115.447Z" fill="#080808"/>
</g>
<defs>
<clipPath id="clip0_3758_526">
<rect width="144" height="120" fill="white"/>
</clipPath>
</defs>
</svg>
