<svg width="144" height="121" viewBox="0 0 144 121" fill="none" xmlns="http://www.w3.org/2000/svg">
<g id="Logo" clip-path="url(#clip0_3754_38)">
<g id="Warstwa_x0020_1">
<path id="Vector" fill-rule="evenodd" clip-rule="evenodd" d="M72 0.988281L108 37.4404L144 73.8928H72H0L35.9999 37.4404L72 0.988281Z" fill="#EDD918"/>
<path id="Vector_2" fill-rule="evenodd" clip-rule="evenodd" d="M72.003 17.9377L99.6337 45.9152L127.264 73.8929H72.003H16.7422L44.3726 45.9152L72.003 17.9377Z" fill="#F91C0A"/>
<path id="Vector_3" fill-rule="evenodd" clip-rule="evenodd" d="M72.003 47.1359L85.2156 60.5144L98.428 73.8929H72.003H45.5781L58.7904 60.5144L72.003 47.1359Z" fill="#900407"/>
<g id="_105553199565344">
<path id="Vector_4" d="M8.14062 103.726V81.0291H17.6238C18.813 81.0291 19.971 81.1195 21.0663 81.3C22.1619 81.4806 23.132 81.7816 23.9769 82.2331C24.8221 82.6846 25.4792 83.2866 25.98 84.0395C26.4809 84.792 26.731 85.7551 26.731 86.899C26.731 87.471 26.6687 88.013 26.5122 88.5246C26.3557 89.0362 26.1366 89.518 25.8549 89.9395C25.5734 90.3607 25.2604 90.722 24.9161 91.0231C24.5717 91.3241 24.1961 91.565 23.7891 91.7455V91.7756C25.2917 92.2571 26.4496 92.9796 27.2632 93.943C28.0458 94.9061 28.4528 96.0801 28.4528 97.465C28.4528 98.7291 28.171 99.7526 27.6075 100.566C27.0128 101.378 26.2931 102.041 25.4479 102.492C24.5717 102.944 23.6326 103.275 22.6315 103.455C21.6298 103.636 20.691 103.726 19.8145 103.726H8.14065H8.14062ZM17.0603 98.3077C17.436 98.3077 17.8426 98.3077 18.2496 98.2776C18.6565 98.2476 19.0008 98.1872 19.3449 98.067C19.6892 97.9466 19.9709 97.766 20.1901 97.4951C20.4092 97.2541 20.5031 96.893 20.5031 96.4415C20.5031 95.99 20.4092 95.6587 20.2214 95.3877C20.0336 95.1471 19.7831 94.9665 19.4701 94.816C19.1574 94.6955 18.813 94.6051 18.4374 94.5751C18.0308 94.545 17.6238 94.545 17.2169 94.545H16.0903V98.3077H17.0604H17.0603ZM16.4033 89.7586C17.1229 89.7586 17.749 89.6385 18.2809 89.3976C18.813 89.1867 19.0632 88.7352 19.0632 88.1031C19.0632 87.5311 18.8757 87.1097 18.5 86.869C18.1244 86.6281 17.4673 86.5076 16.5285 86.5076H16.0903V89.7587H16.4033L16.4033 89.7586Z" fill="white"/>
<path id="Vector_5" d="M41.1262 81.0291C42.4348 81.0291 43.6517 81.1796 44.8077 81.4505C45.9641 81.7215 46.9683 82.173 47.8506 82.8051C48.733 83.4374 49.4023 84.2801 49.9198 85.2735C50.4369 86.267 50.6806 87.5011 50.6806 88.916C50.6806 90.2705 50.3457 91.4746 49.7065 92.498C49.0678 93.5215 48.0029 94.4246 46.5423 95.2071L52.5668 103.726H43.0127L39.3919 96.4415H39.0875V103.726H31.0547V81.0291H41.1262ZM39.0875 91.0831H39.7875C40.122 91.0831 40.4568 91.0531 40.7914 91.023C41.1262 90.993 41.4003 90.9026 41.6737 90.7521C41.9478 90.6316 42.1608 90.4511 42.313 90.1801C42.4652 89.9395 42.526 89.6081 42.526 89.1867C42.526 88.7351 42.4652 88.4041 42.313 88.1331C42.1608 87.8621 41.9782 87.6816 41.7348 87.5311C41.4914 87.4106 41.2174 87.3205 40.8828 87.2905C40.548 87.2601 40.2135 87.2301 39.8483 87.2301H39.0875V91.0831Z" fill="white"/>
<path id="Vector_6" d="M54.4375 103.726V81.0291H62.8582V103.726H54.4375Z" fill="white"/>
<path id="Vector_7" d="M67.5312 103.726V81.0291H75.8246L75.638 90.8725L81.1048 81.0291H90.3918L83.2478 92.2872L91.1683 103.726H81.2914L75.638 93.7021L75.8246 103.726H67.5312Z" fill="white"/>
<path id="Vector_8" d="M90.9609 92.438C90.9609 90.6617 91.2906 89.0362 91.9504 87.5915C92.6102 86.1465 93.5097 84.9124 94.6493 83.889C95.759 82.8655 97.0787 82.0826 98.6079 81.5106C100.138 80.9389 101.757 80.668 103.466 80.668C105.176 80.668 106.795 80.9389 108.324 81.5106C109.854 82.0826 111.173 82.8655 112.313 83.889C113.422 84.9125 114.322 86.1465 114.982 87.5915C115.641 89.0361 115.971 90.6617 115.971 92.438C115.971 94.2741 115.641 95.8996 114.982 97.3145C114.322 98.7592 113.422 99.9936 112.313 100.987C111.173 101.98 109.854 102.763 108.324 103.275C106.795 103.817 105.176 104.087 103.466 104.087C101.757 104.087 100.138 103.817 98.6079 103.275C97.0786 102.763 95.759 101.98 94.6493 100.987C93.5097 99.9935 92.6102 98.7592 91.9504 97.3145C91.2906 95.8996 90.9609 94.2741 90.9609 92.438ZM99.2377 92.438C99.2377 93.07 99.3276 93.6721 99.5375 94.214C99.7475 94.7557 100.018 95.2072 100.407 95.5986C100.797 95.99 101.247 96.2607 101.757 96.4716C102.266 96.6821 102.836 96.8026 103.466 96.8026C104.096 96.8026 104.696 96.6821 105.205 96.4716C105.715 96.2607 106.135 95.99 106.525 95.5986C106.915 95.2071 107.185 94.7556 107.394 94.214C107.604 93.6721 107.694 93.0701 107.694 92.438C107.694 91.8056 107.604 91.2336 107.394 90.692C107.185 90.1501 106.915 89.6685 106.555 89.2471C106.195 88.8556 105.745 88.5246 105.235 88.2837C104.726 88.0731 104.126 87.9526 103.466 87.9526C102.806 87.9526 102.207 88.0731 101.697 88.2837C101.187 88.5246 100.737 88.8556 100.377 89.2471C100.018 89.6685 99.7474 90.1501 99.5375 90.692C99.3276 91.2337 99.2377 91.8056 99.2377 92.438H99.2377Z" fill="white"/>
<path id="Vector_9" d="M119.633 103.726V81.0291H128.306V96.4415H135.863V103.726H119.633Z" fill="white"/>
</g>
<path id="Vector_10" d="M135.862 106.831H8.14062V108.756H135.862V106.831Z" fill="white"/>
<g id="_105553199526400">
<path id="Vector_11" d="M10.3263 111.954H13.2262C13.9781 111.954 14.6223 112.017 15.1597 112.131C15.7118 112.244 16.1875 112.459 16.6325 112.774C17.783 113.582 18.3508 114.805 18.3508 116.446C18.3508 116.988 18.2894 117.48 18.1817 117.935C18.0592 118.376 17.8902 118.78 17.6449 119.146C17.3994 119.499 17.0925 119.827 16.7242 120.105C16.433 120.319 16.1108 120.496 15.7575 120.635C15.4049 120.761 15.0366 120.85 14.6223 120.913C14.2233 120.963 13.7786 120.988 13.2723 120.988H10.3724C9.9737 120.988 9.66679 120.938 9.45196 120.837C9.25218 120.736 9.11437 120.597 9.053 120.408C8.99132 120.231 8.96094 119.991 8.96094 119.701V113.077C8.96094 112.686 9.06835 112.395 9.28287 112.219C9.4977 112.042 9.85062 111.954 10.3263 111.954L10.3263 111.954ZM11.1856 113.405V119.537H12.8732C13.2415 119.537 13.5331 119.524 13.7479 119.512C13.9474 119.499 14.1622 119.449 14.3921 119.386C14.6223 119.323 14.8064 119.234 14.9755 119.108C15.7271 118.591 16.0954 117.695 16.0954 116.433C16.0954 115.55 15.9266 114.881 15.604 114.427C15.2821 113.985 14.8681 113.708 14.3921 113.582C13.9164 113.468 13.3336 113.405 12.6587 113.405H11.1856H11.1856Z" fill="white"/>
<path id="Vector_12" d="M27.1501 119.831L26.606 118.736H21.9513L21.4071 119.855C21.1831 120.294 21.0072 120.586 20.8633 120.732C20.7034 120.89 20.4634 120.963 20.1117 120.963C19.8235 120.963 19.5676 120.89 19.3436 120.72C19.1198 120.562 19.0078 120.379 19.0078 120.172C19.0078 120.05 19.0238 119.929 19.0879 119.807C19.1358 119.673 19.2159 119.503 19.3436 119.271L22.2711 113.611C22.3512 113.453 22.4469 113.258 22.5749 113.027C22.6869 112.796 22.8149 112.613 22.9429 112.455C23.0708 112.309 23.2467 112.187 23.471 112.09C23.6788 112.005 23.9507 111.956 24.2705 111.956C24.5903 111.956 24.8622 112.005 25.0703 112.09C25.294 112.187 25.4705 112.309 25.5985 112.455C25.7424 112.601 25.8541 112.759 25.9342 112.93C26.0303 113.1 26.142 113.319 26.2859 113.599L29.2776 119.222C29.5173 119.648 29.6293 119.965 29.6293 120.16C29.6293 120.355 29.5173 120.549 29.2936 120.707C29.0695 120.878 28.8136 120.963 28.4935 120.963C28.3176 120.963 28.1577 120.939 28.0297 120.89C27.9018 120.841 27.7898 120.781 27.6937 120.695C27.6139 120.61 27.5178 120.476 27.4058 120.294C27.3101 120.123 27.23 119.965 27.1502 119.831L27.1501 119.831ZM22.5589 117.409H25.9821L24.2545 113.818L22.5589 117.409Z" fill="white"/>
<path id="Vector_13" d="M37.9297 113.027V117.591C37.9297 117.98 37.9143 118.321 37.8671 118.601C37.8204 118.881 37.7265 119.161 37.5706 119.441C37.3211 119.927 36.8997 120.292 36.3222 120.56C35.7289 120.828 35.0264 120.962 34.1837 120.962C33.4189 120.962 32.7946 120.877 32.295 120.682C31.78 120.499 31.374 120.195 31.0622 119.781C30.906 119.562 30.7654 119.307 30.6718 119.015C30.5623 118.723 30.5156 118.455 30.5156 118.187C30.5156 117.907 30.6095 117.701 30.8121 117.554C31.0149 117.408 31.2648 117.335 31.5769 117.335C31.8733 117.335 32.1078 117.396 32.2484 117.53C32.4043 117.676 32.5292 117.883 32.6071 118.163C32.6854 118.467 32.779 118.71 32.8569 118.893C32.9505 119.076 33.0911 119.234 33.294 119.368C33.4968 119.501 33.7936 119.562 34.168 119.562C35.167 119.562 35.6663 118.99 35.6663 117.846V113.027C35.6663 112.674 35.7756 112.406 35.9628 112.224C36.1659 112.041 36.4471 111.956 36.7901 111.956C37.1336 111.956 37.4144 112.041 37.6175 112.224C37.8361 112.406 37.9297 112.674 37.9297 113.027L37.9297 113.027Z" fill="white"/>
<path id="Vector_14" d="M41.5949 120.852C41.2785 120.852 41.029 120.789 40.8458 120.65C40.6628 120.511 40.5625 120.322 40.5625 120.082V112.726C40.5625 112.486 40.6628 112.297 40.8458 112.158C41.029 112.019 41.2785 111.956 41.5949 111.956H47.6061C47.9225 111.956 48.1724 112.007 48.3553 112.12C48.5388 112.234 48.6217 112.385 48.6217 112.587C48.6217 112.802 48.5388 112.953 48.3553 113.066C48.1724 113.18 47.9225 113.243 47.6061 113.243H42.6608V115.691H47.2731C47.5892 115.691 47.8394 115.742 48.0223 115.855C48.2058 115.969 48.289 116.12 48.289 116.335C48.289 116.537 48.2058 116.688 48.0223 116.801C47.8394 116.915 47.5892 116.965 47.2731 116.965H42.6608V119.565H47.6061C47.9225 119.565 48.1724 119.615 48.3553 119.729C48.5388 119.842 48.6217 120.006 48.6217 120.221C48.6217 120.423 48.5388 120.574 48.3553 120.688C48.1724 120.801 47.9225 120.852 47.6061 120.852H41.5949V120.852Z" fill="white"/>
<path id="Vector_15" d="M54.842 119.478L53.0752 113.835V119.948C53.0752 120.295 52.9828 120.542 52.7984 120.716C52.6139 120.877 52.3531 120.963 52.0456 120.963C51.7537 120.963 51.5079 120.877 51.3078 120.716C51.1236 120.542 51.0312 120.295 51.0312 119.948V112.944C51.0312 112.561 51.1546 112.288 51.4001 112.165C51.6463 112.028 51.9842 111.954 52.4144 111.954H53.1056C53.5205 111.954 53.8277 111.991 54.0122 112.053C54.1966 112.103 54.335 112.214 54.4268 112.375C54.5192 112.536 54.6269 112.783 54.7343 113.142L56.3323 117.993L57.93 113.142C58.0375 112.783 58.1452 112.536 58.2375 112.375C58.3293 112.214 58.4677 112.103 58.6522 112.053C58.8366 111.991 59.1438 111.954 59.5587 111.954H60.2499C60.6802 111.954 61.0181 112.028 61.2642 112.165C61.5097 112.288 61.6331 112.561 61.6331 112.944V119.948C61.6331 120.295 61.5407 120.542 61.3566 120.716C61.1718 120.877 60.9109 120.963 60.6034 120.963C60.3116 120.963 60.0658 120.877 59.8663 120.716C59.6815 120.542 59.5898 120.295 59.5898 119.948V113.835L57.8223 119.478C57.7149 119.849 57.6228 120.109 57.5458 120.282C57.4691 120.456 57.3307 120.616 57.1466 120.753C56.9468 120.901 56.6702 120.963 56.3323 120.963C56.0709 120.963 55.8557 120.926 55.6716 120.827C55.4871 120.74 55.3487 120.629 55.257 120.481C55.1489 120.344 55.0722 120.183 55.0108 120.01C54.9648 119.837 54.9034 119.664 54.842 119.478H54.842Z" fill="white"/>
<path id="Vector_16" d="M66.7069 119.892V117.129L63.9758 113.83C63.7417 113.526 63.5701 113.295 63.4768 113.137C63.3676 112.966 63.3203 112.82 63.3203 112.699C63.3203 112.492 63.4142 112.321 63.6171 112.175C63.8199 112.029 64.0698 111.956 64.3659 111.956C64.678 111.956 64.9122 112.029 65.0684 112.163C65.2243 112.297 65.4741 112.565 65.7859 112.978L67.8771 115.62L69.984 112.978C70.1089 112.82 70.2179 112.674 70.3115 112.565C70.3897 112.455 70.483 112.358 70.5923 112.261C70.7019 112.163 70.8111 112.09 70.936 112.029C71.0603 111.98 71.2168 111.956 71.404 111.956C71.6849 111.956 71.9347 112.029 72.1216 112.175C72.3088 112.321 72.4027 112.48 72.4027 112.674C72.4027 112.833 72.3557 112.978 72.2621 113.137C72.1685 113.295 71.9967 113.502 71.7631 113.782L68.9694 117.129V119.892C68.9694 120.245 68.8602 120.525 68.642 120.695C68.4388 120.878 68.158 120.963 67.8302 120.963C67.5028 120.963 67.222 120.878 67.0188 120.695C66.8006 120.525 66.707 120.257 66.707 119.892L66.7069 119.892Z" fill="white"/>
<path id="Vector_17" d="M87.5649 118.066C87.5649 118.346 87.47 118.638 87.2969 118.967C87.1235 119.284 86.8397 119.6 86.4613 119.917C86.0829 120.233 85.5946 120.476 85.0109 120.671C84.4121 120.866 83.7342 120.963 82.9464 120.963C82.347 120.963 81.8108 120.927 81.3226 120.829C80.8337 120.744 80.3924 120.61 79.9986 120.428C79.6042 120.245 79.2258 120.001 78.895 119.697C78.5951 119.429 78.3432 119.125 78.1382 118.784C77.9178 118.444 77.7598 118.079 77.6656 117.701C77.5551 117.312 77.5078 116.91 77.5078 116.472C77.5078 115.766 77.6339 115.145 77.9016 114.585C78.1695 114.037 78.5479 113.563 79.0368 113.161C79.5254 112.771 80.1085 112.467 80.7708 112.261C81.4327 112.054 82.1423 111.956 82.8828 111.956C83.7974 111.956 84.6171 112.102 85.3264 112.382C86.0359 112.662 86.5874 113.003 86.9655 113.417C87.3439 113.831 87.5333 114.22 87.5333 114.597C87.5333 114.792 87.4387 114.975 87.2494 115.133C87.076 115.279 86.8556 115.364 86.5874 115.364C86.2882 115.364 86.0829 115.303 85.9254 115.206C85.7836 115.096 85.6259 114.914 85.4365 114.646C85.137 114.22 84.7905 113.891 84.3961 113.685C83.9864 113.465 83.4978 113.356 82.8988 113.356C81.9689 113.356 81.212 113.636 80.6602 114.183C80.0928 114.731 79.8249 115.522 79.8249 116.533C79.8249 117.214 79.951 117.774 80.1876 118.225C80.4399 118.675 80.7864 119.003 81.2433 119.235C81.685 119.454 82.2208 119.563 82.8199 119.563C83.4819 119.563 84.0337 119.442 84.4909 119.186C84.9479 118.93 85.2787 118.565 85.5154 118.079C85.6102 117.847 85.7363 117.665 85.8781 117.518C86.0199 117.372 86.2562 117.299 86.5717 117.299C86.8396 117.299 87.0759 117.372 87.2653 117.518C87.47 117.665 87.5648 117.847 87.5648 118.066H87.5649Z" fill="white"/>
<path id="Vector_18" d="M89.6172 119.892V113.027C89.6172 112.674 89.7338 112.406 89.9505 112.224C90.1668 112.041 90.4667 111.956 90.8165 111.956C91.1827 111.956 91.4656 112.041 91.6989 112.224C91.9152 112.394 92.0318 112.662 92.0318 113.027V119.892C92.0318 120.245 91.9152 120.525 91.6989 120.695C91.4656 120.878 91.1827 120.963 90.8165 120.963C90.4667 120.963 90.1834 120.878 89.9505 120.695C89.7338 120.513 89.6172 120.245 89.6172 119.892Z" fill="white"/>
<path id="Vector_19" d="M102.042 113.367H96.882V115.588H101.632C101.979 115.588 102.247 115.651 102.405 115.777C102.578 115.903 102.673 116.067 102.673 116.269C102.673 116.471 102.578 116.648 102.421 116.774C102.247 116.9 101.979 116.963 101.632 116.963H96.882V119.537H102.215C102.578 119.537 102.847 119.6 103.036 119.739C103.21 119.865 103.304 120.042 103.304 120.269C103.304 120.484 103.21 120.66 103.036 120.786C102.847 120.925 102.578 120.988 102.215 120.988H95.9981C95.4936 120.988 95.1462 120.9 94.9255 120.723C94.7046 120.547 94.5938 120.256 94.5938 119.865V113.077C94.5938 112.812 94.6413 112.597 94.7362 112.433C94.8467 112.269 94.9884 112.143 95.1938 112.067C95.4147 111.992 95.667 111.954 95.9981 111.954H102.042C102.405 111.954 102.673 112.017 102.847 112.156C103.036 112.282 103.115 112.446 103.115 112.66C103.115 112.875 103.036 113.039 102.847 113.178C102.673 113.304 102.405 113.367 102.042 113.367L102.042 113.367Z" fill="white"/>
<path id="Vector_20" d="M109.474 117.362H107.397V119.874C107.397 120.233 107.288 120.505 107.085 120.691C106.866 120.877 106.601 120.963 106.273 120.963C105.929 120.963 105.648 120.877 105.445 120.691C105.242 120.505 105.133 120.233 105.133 119.886V113.055C105.133 112.659 105.242 112.375 105.476 112.214C105.71 112.041 106.07 111.954 106.569 111.954H109.474C110.333 111.954 110.988 112.004 111.457 112.115C111.91 112.214 112.316 112.387 112.644 112.61C112.972 112.845 113.221 113.13 113.393 113.476C113.565 113.81 113.659 114.194 113.659 114.615C113.659 115.518 113.315 116.199 112.613 116.669C111.91 117.127 110.864 117.362 109.474 117.362L109.474 117.362ZM108.927 113.303H107.397V116.013H108.927C109.458 116.013 109.911 115.964 110.255 115.877C110.614 115.79 110.895 115.642 111.082 115.444C111.27 115.246 111.363 114.974 111.363 114.652C111.363 114.256 111.223 113.946 110.926 113.699C110.598 113.439 109.942 113.303 108.927 113.303Z" fill="white"/>
<path id="Vector_21" d="M122.434 119.414C123.643 119.414 124.033 120.965 122.49 120.965H116.695C116.374 120.965 116.124 120.898 115.946 120.762C115.769 120.627 115.68 120.441 115.68 120.204C115.68 116.591 115.68 117.667 115.68 112.768C115.68 112.523 115.777 112.326 115.971 112.178C116.165 112.03 116.423 111.956 116.745 111.956C117.078 111.956 117.339 112.03 117.528 112.178C117.717 112.326 117.811 112.523 117.811 112.768V116.095L120.624 114.614C120.791 114.538 120.957 114.5 121.124 114.5C121.346 114.5 121.532 114.561 121.682 114.684C121.831 114.806 121.906 114.948 121.906 115.109C121.906 115.337 121.751 115.523 121.44 115.667L117.811 117.516L117.755 119.414H122.434L122.434 119.414Z" fill="white"/>
<path id="Vector_22" d="M129.504 111.956C130.663 111.956 131.665 112.138 132.495 112.504C133.325 112.869 133.967 113.392 134.389 114.074C134.812 114.743 135.032 115.535 135.032 116.447C135.032 117.117 134.922 117.737 134.687 118.285C134.452 118.833 134.092 119.308 133.622 119.722C133.152 120.123 132.589 120.427 131.9 120.646C131.211 120.853 130.428 120.963 129.551 120.963C128.674 120.963 127.891 120.853 127.202 120.634C126.498 120.415 125.918 120.111 125.464 119.709C124.994 119.308 124.649 118.821 124.415 118.261C124.164 117.701 124.055 117.092 124.055 116.435C124.055 115.766 124.18 115.157 124.431 114.597C124.665 114.037 125.025 113.563 125.495 113.173C125.965 112.771 126.544 112.479 127.218 112.273C127.891 112.066 128.643 111.956 129.504 111.956V111.956ZM132.73 116.435C132.73 115.802 132.605 115.242 132.338 114.78C132.072 114.305 131.696 113.952 131.195 113.721C130.709 113.478 130.146 113.356 129.504 113.356C129.05 113.356 128.627 113.429 128.251 113.563C127.86 113.684 127.531 113.879 127.249 114.135C126.983 114.39 126.764 114.719 126.591 115.108C126.435 115.498 126.357 115.948 126.357 116.435C126.357 116.934 126.435 117.385 126.591 117.774C126.764 118.176 126.983 118.517 127.28 118.772C127.562 119.04 127.907 119.235 128.283 119.369C128.658 119.503 129.081 119.563 129.535 119.563C130.115 119.563 130.647 119.454 131.132 119.222C131.618 119.003 132.009 118.65 132.307 118.176C132.589 117.701 132.73 117.129 132.73 116.435Z" fill="white"/>
</g>
</g>
</g>
<defs>
<clipPath id="clip0_3754_38">
<rect width="144" height="120" fill="white" transform="translate(0 0.988281)"/>
</clipPath>
</defs>
</svg>
