<svg width="198" height="60" fill="none" xmlns="http://www.w3.org/2000/svg"><g clip-path="url(#clip0_1729_21)"><path d="M48.68 7.42h9.396l5.068 13.94 5.069-13.94h9.396L67.86 28.585h-9.434L48.68 7.42ZM79.563 7.42h8.265v21.165h-8.266V7.42Zm0-7.42h8.265v4.998h-8.266V0ZM100.81 21.985c.117.78.429 1.367 1.17 1.796.74.43 1.832.664 3.665.664 1.832 0 3.781-.352 3.781-1.875 0-1.132-.818-1.405-2.845-1.678l-7.37-.899c-4.873-.585-7.29-2.303-7.29-5.896 0-5.74 4.912-7.536 12.827-7.536 5.654 0 12.671 1.015 13.178 7.028h-9.279c-.117-.898-.663-1.483-1.482-1.796-.819-.352-1.91-.468-2.963-.468-2.378 0-3.782.546-3.782 1.991 0 .664.507 1.211 2.652 1.484l7.134.781c5.732.624 8.5 2.343 8.5 6.521 0 5.038-4.679 7.341-13.529 7.341-5.848 0-13.763-1.054-13.958-7.458h9.591ZM122.102 7.42h8.265v21.165h-8.265V7.42Zm0-7.42h8.265v4.998h-8.265V0ZM132.703 7.42h4.328V.704h8.265V7.42h5.459v5.468h-5.459v8.511c0 1.875.507 2.188 2.691 2.188 1.052 0 1.832-.04 2.924-.078v5.154c-1.677.274-3.821.39-6.278.39-5.418 0-7.602-1.327-7.602-5.896v-10.27h-4.328V7.42Z" fill="#95C11F"/><path d="M61.22 47.653c-.172-1.054-.966-1.785-3.328-1.785-1.717 0-2.662.495-2.662 1.505 0 .494.387.818 1.138.947 1.267.236 5.217.816 6.72 1.053 2.856.494 4.573 1.677 4.573 4.365 0 5.204-6.741 5.246-8.846 5.246-5.195 0-8.974-.924-9.252-5.203h6.054c.107 1.16.794 1.892 3.435 1.892 1.288 0 2.683-.301 2.683-1.612 0-.796-.643-1.097-2.426-1.376l-5.11-.774c-3.155-.453-4.38-2.044-4.38-4.344 0-2 1.246-4.882 7.966-4.882 5.582 0 8.888 1.355 9.232 4.967H61.22ZM68.547 55.567l9.661-8.968h-8.996v-3.44h15.845v3.011l-9.597 8.902h9.446v3.44h-16.36v-2.945ZM105.734 52.599c-.622 3.333-2.427 6.386-9.704 6.386-6.506 0-9.64-2.838-9.64-8.15 0-5.139 2.984-8.15 9.64-8.15 4.701 0 8.523 1.055 9.661 6.386h-5.69c-.3-1.117-1.052-2.945-3.95-2.945-3.2 0-4.251 2.172-4.251 4.71 0 2.537.945 4.708 4.251 4.708 2.319 0 3.67-1.14 4.015-2.945h5.668ZM106.703 55.567l9.661-8.968h-8.996v-3.44h15.844v3.011l-9.596 8.902h9.446v3.44h-16.359v-2.945ZM125.336 43.16h15.35v3.311h-10.241v2.773h9.597v3.182h-9.597v2.775h10.241v3.31h-15.35V43.16ZM161.391 52.599c-.623 3.333-2.427 6.386-9.705 6.386-6.505 0-9.639-2.838-9.639-8.15 0-5.139 2.984-8.15 9.639-8.15 4.702 0 8.524 1.055 9.662 6.386h-5.69c-.3-1.117-1.052-2.945-3.95-2.945-3.199 0-4.251 2.172-4.251 4.71 0 2.537.945 4.708 4.251 4.708 2.319 0 3.672-1.14 4.015-2.945h5.668ZM163.578 43.16h5.109v15.352h-5.109V43.159ZM171.844 43.16h5.882l7.107 9.61h.042v-9.61h4.939v15.352h-5.647l-7.343-9.698h-.043v9.698h-4.937V43.159ZM193.127 54.254h4.809v4.258h-4.809v-4.258Zm-.065-11.095H198l-.623 9.913h-3.692l-.623-9.913Z" fill="#1F294C"/><path d="M14.869 36.814h10.476l1.775-12.69H16.643l-1.774 12.69ZM0 42.57v-5.756h9.041l1.772-12.69H2.197v-5.756h9.378l2.45-17.347h5.83l-2.451 17.347H27.88L30.33 1.02h5.829l-2.45 17.347h7.518v5.755H32.95l-1.775 12.691h7.688v5.756H30.33L27.88 60H22.05l2.45-17.43H14.025L11.575 60h-5.83l2.45-17.43H0Z" fill="#95C11F"/></g></svg>