<svg width="167" height="30" viewBox="0 0 167 30" fill="none" xmlns="http://www.w3.org/2000/svg">
<g clip-path="url(#clip0_3754_488)">
<path fill-rule="evenodd" clip-rule="evenodd" d="M12.6631 7.4393L19.04 11.2434V18.7562L12.6631 22.5605L6.28604 18.7562V11.2434L0 15.0065V22.4458L12.6631 30L25.3261 22.4458V15.0065V14.9935V11.2434V7.55406L12.6631 0V7.4393Z" fill="#FF8C00"/>
<path fill-rule="evenodd" clip-rule="evenodd" d="M5.83189 0H8.00947C8.33431 0 8.59987 0.274385 8.59987 0.610033V2.85119C8.59987 3.18684 8.33431 3.46123 8.00947 3.46123H5.83189C5.51172 3.46123 5.25 3.19081 5.25 2.85999V0.601232C5.25 0.270416 5.51172 0 5.83189 0Z" fill="#FF8C00"/>
<path fill-rule="evenodd" clip-rule="evenodd" d="M9.33754 6.76709H10.6005C10.7889 6.76709 10.9429 6.9262 10.9429 7.12086V8.42082C10.9429 8.61548 10.7889 8.77459 10.6005 8.77459H9.33754C9.15182 8.77459 9 8.61773 9 8.42583V7.11585C9 6.92396 9.15182 6.76709 9.33754 6.76709Z" fill="#FF8C00"/>
<path fill-rule="evenodd" clip-rule="evenodd" d="M2.97262 7.87793H4.71161C4.97115 7.87793 5.18327 8.09709 5.18327 8.36527V10.155C5.18327 10.4232 4.97115 10.6423 4.71161 10.6423H2.97262C2.71692 10.6423 2.50781 10.4263 2.50781 10.1621V8.35819C2.50781 8.09399 2.71692 7.87793 2.97262 7.87793Z" fill="#283250"/>
<path fill-rule="evenodd" clip-rule="evenodd" d="M5.77886 5.44092H6.38397C6.47432 5.44092 6.54798 5.51702 6.54798 5.61038V6.23318C6.54798 6.32654 6.47432 6.40265 6.38397 6.40265H5.77886C5.68984 6.40265 5.61719 6.32758 5.61719 6.2356V5.60797C5.61719 5.51599 5.68984 5.44092 5.77886 5.44092Z" fill="#FF8C00"/>
<path fill-rule="evenodd" clip-rule="evenodd" d="M0.46481 2.85449H2.2038C2.46334 2.85449 2.67546 3.07366 2.67546 3.342V5.13172C2.67546 5.39972 2.46334 5.61906 2.2038 5.61906H0.46481C0.209106 5.61906 0 5.40283 0 5.13879V3.33493C0 3.07055 0.209106 2.85449 0.46481 2.85449Z" fill="#283250"/>
<path d="M36.4276 7.86598C38.1462 7.86598 39.5716 8.3031 40.7039 9.17716C41.8361 10.0511 42.5623 11.2316 42.8822 12.7183H39.9246C39.6447 12.0573 39.2018 11.531 38.5957 11.1386C37.9896 10.7463 37.2737 10.5501 36.4477 10.5501C35.6349 10.5501 34.9154 10.7429 34.2893 11.1284C33.6631 11.5138 33.1769 12.0643 32.8306 12.7802C32.4842 13.4961 32.3108 14.3356 32.3108 15.2991C32.3108 16.827 32.7073 18.0177 33.4998 18.8713C34.2925 19.7246 35.3751 20.1514 36.7471 20.1514C37.7596 20.1514 38.6289 19.8416 39.3548 19.2223C40.081 18.6027 40.5504 17.7425 40.7636 16.6413H35.9877V14.5558H43.1217V17.364C42.9218 18.3275 42.5321 19.2154 41.9526 20.0275C41.373 20.8398 40.6137 21.49 39.6744 21.9787C38.7353 22.4674 37.6595 22.7118 36.4473 22.7118C35.0617 22.7118 33.8395 22.3986 32.7803 21.7723C31.7211 21.1461 30.9017 20.272 30.3223 19.1501C29.7427 18.0284 29.4531 16.7447 29.4531 15.2992C29.4531 13.854 29.7429 12.5704 30.3223 11.4483C30.9018 10.3266 31.7177 9.44896 32.7703 8.8158C33.8226 8.18264 35.0417 7.86615 36.4273 7.86615L36.4276 7.86598ZM52.5941 22.5879L49.2968 16.9097H48.0579V22.5879H45.2401V8.01059H50.6158C52.2545 8.01059 53.5035 8.42355 54.3628 9.2493C55.2221 10.0752 55.6517 11.1627 55.6517 12.5117C55.6517 13.6129 55.3552 14.5353 54.7625 15.2785C54.1696 16.0218 53.3138 16.5172 52.1947 16.765L55.7118 22.5877H52.5944L52.5941 22.5879ZM48.0579 14.907H50.3761C51.988 14.907 52.794 14.1705 52.794 12.6976C52.794 11.9954 52.5974 11.4483 52.2044 11.0561C51.8113 10.6637 51.202 10.4675 50.3759 10.4675H48.0577V14.9068L48.0579 14.907ZM60.3678 10.3232V14.1018H65.3636V16.3317H60.3678V20.2549H65.963V22.5882H57.5498V8.01094H65.963V10.3235H60.3678V10.3232ZM74.5761 7.86615C76.2947 7.86615 77.7202 8.30327 78.8526 9.17734C79.9848 10.0512 80.711 11.2318 81.0308 12.7185H78.0733C77.7934 12.0575 77.3504 11.5312 76.7443 11.1388C76.1381 10.7465 75.4222 10.5503 74.5962 10.5503C73.7834 10.5503 73.0639 10.7431 72.4378 11.1286C71.8116 11.5139 71.3255 12.0644 70.9791 12.7804C70.6327 13.4962 70.4593 14.3358 70.4593 15.2992C70.4593 16.8272 70.8558 18.0179 71.6483 18.8714C72.441 19.7248 73.5236 20.1515 74.8956 20.1515C75.9081 20.1515 76.7776 19.8418 77.5034 19.2224C78.2296 18.6029 78.6991 17.7427 78.9122 16.6415H74.1362V14.556H81.2704V17.3642C81.0704 18.3277 80.6808 19.2155 80.1012 20.0276C79.5217 20.8399 78.7624 21.4902 77.8231 21.9789C76.884 22.4676 75.808 22.712 74.5958 22.712C73.2102 22.712 71.988 22.3988 70.9288 21.7725C69.8696 21.1462 69.0502 20.2722 68.4708 19.1503C67.8912 18.0286 67.6016 16.7449 67.6016 15.2994C67.6016 13.8541 67.8914 12.5706 68.4708 11.4485C69.0503 10.3268 69.8662 9.44913 70.9188 8.81597C71.9711 8.18282 73.1902 7.86632 74.5758 7.86632L74.5761 7.86615ZM90.0032 7.8042C91.322 7.8042 92.5176 8.12086 93.5902 8.75385C94.6627 9.38718 95.5086 10.2716 96.1281 11.4071C96.7475 12.5426 97.0572 13.8264 97.0572 15.258C97.0572 16.6896 96.7474 17.9765 96.1281 19.1192C95.5084 20.2616 94.6627 21.1497 93.5902 21.7827C92.5178 22.416 91.322 22.7325 90.0032 22.7325C88.6844 22.7325 87.4887 22.4158 86.4162 21.7827C85.3437 21.1495 84.4978 20.2616 83.8783 19.1192C83.2589 17.9767 82.9492 16.6896 82.9492 15.258C82.9492 13.8264 83.259 12.5428 83.8783 11.4071C84.498 10.2716 85.3437 9.38701 86.4162 8.75385C87.4886 8.12069 88.6844 7.8042 90.0032 7.8042ZM90.0032 10.4883C89.1773 10.4883 88.4513 10.6811 87.825 11.0666C87.1988 11.452 86.7093 12.0059 86.3562 12.7286C86.0031 13.4515 85.8266 14.2945 85.8266 15.258C85.8266 16.2215 86.0031 17.0646 86.3562 17.7873C86.7093 18.5101 87.1988 19.064 87.825 19.4494C88.4513 19.8349 89.1771 20.0276 90.0032 20.0276C90.8291 20.0276 91.5551 19.8349 92.1814 19.4494C92.8076 19.064 93.2971 18.5101 93.6502 17.7873C94.0033 17.0645 94.1798 16.2215 94.1798 15.258C94.1798 14.2945 94.0033 13.4514 93.6502 12.7286C93.2971 12.0059 92.8076 11.452 92.1814 11.0666C91.5551 10.6811 90.8293 10.4883 90.0032 10.4883ZM106.53 22.5881L103.232 16.9098H101.993V22.5881H99.1756V8.01076H104.551C106.19 8.01076 107.439 8.42372 108.298 9.24947C109.158 10.0754 109.587 11.1629 109.587 12.5119C109.587 13.6131 109.291 14.5354 108.698 15.2787C108.105 16.022 107.249 16.5174 106.13 16.7652L109.647 22.5879H106.53L106.53 22.5881ZM101.993 14.9072H104.312C105.923 14.9072 106.73 14.1706 106.73 12.6978C106.73 11.9956 106.533 11.4485 106.14 11.0563C105.747 10.6638 105.137 10.4676 104.311 10.4676H101.993V14.907L101.993 14.9072Z" fill="#283250"/>
<path d="M123.792 12.1814C124.871 12.1814 125.704 12.5153 126.29 13.1828C126.876 13.8505 127.169 14.9758 127.169 16.5588V21.0187C127.169 21.583 126.999 22.0063 126.66 22.2884C126.32 22.5706 125.897 22.7117 125.391 22.7117C124.884 22.7117 124.461 22.5706 124.122 22.2884C123.782 22.0063 123.612 21.5828 123.612 21.0187V16.4761C123.612 15.9254 123.519 15.5401 123.332 15.3199C123.146 15.0997 122.873 14.9894 122.513 14.9894C122.047 14.9894 121.674 15.1617 121.394 15.5058C121.114 15.8499 120.974 16.3248 120.974 16.9305V21.0187C120.974 21.583 120.808 22.0063 120.475 22.2884C120.142 22.5706 119.715 22.7117 119.196 22.7117C118.689 22.7117 118.267 22.5706 117.927 22.2884C117.587 22.0063 117.417 21.5828 117.417 21.0187V16.4761C117.417 15.9254 117.324 15.5401 117.137 15.3199C116.951 15.0997 116.678 14.9894 116.318 14.9894C115.852 14.9894 115.482 15.1617 115.209 15.5058C114.936 15.8499 114.799 16.3248 114.799 16.9305V21.0187C114.799 21.583 114.629 22.0063 114.29 22.2884C113.95 22.5706 113.527 22.7117 113.021 22.7117C112.515 22.7117 112.092 22.5706 111.752 22.2884C111.412 22.0063 111.242 21.5828 111.242 21.0187V13.8745C111.242 13.3374 111.419 12.9281 111.772 12.6459C112.125 12.3636 112.548 12.2226 113.041 12.2226C113.507 12.2226 113.897 12.35 114.21 12.6045C114.523 12.8592 114.686 13.2275 114.699 13.7091C115.352 12.6906 116.351 12.1812 117.697 12.1812C119.122 12.1812 120.075 12.7802 120.555 13.9777C120.888 13.427 121.334 12.99 121.893 12.6665C122.453 12.3431 123.086 12.1812 123.792 12.1812L123.792 12.1814ZM137.161 19.3256C137.468 19.3256 137.717 19.4495 137.911 19.6973C138.104 19.9451 138.201 20.2687 138.201 20.6677C138.201 21.2183 137.941 21.6382 137.421 21.9272C136.968 22.1612 136.432 22.3575 135.812 22.5157C135.193 22.6741 134.623 22.7532 134.104 22.7532C133.011 22.7532 132.059 22.5399 131.246 22.1131C130.434 21.6863 129.807 21.0739 129.368 20.2754C128.928 19.4769 128.708 18.5409 128.708 17.4674C128.708 16.4487 128.918 15.5366 129.338 14.7316C129.757 13.9262 130.343 13.3 131.096 12.8525C131.849 12.4052 132.698 12.1814 133.644 12.1814C134.563 12.1814 135.369 12.3879 136.062 12.8009C136.755 13.2139 137.291 13.7989 137.671 14.5559C138.05 15.3132 138.24 16.201 138.24 17.2195C138.24 17.5362 138.17 17.7806 138.03 17.9526C137.891 18.1247 137.687 18.2108 137.421 18.2108H132.145C132.238 18.8716 132.445 19.3463 132.765 19.6353C133.084 19.9246 133.557 20.069 134.184 20.069C134.517 20.069 134.823 20.0312 135.103 19.9555C135.382 19.8797 135.696 19.7731 136.042 19.6353C136.242 19.5529 136.438 19.4806 136.631 19.4186C136.825 19.3566 137.001 19.3256 137.161 19.3256H137.161ZM133.744 14.6593C133.278 14.6593 132.905 14.8141 132.625 15.1239C132.345 15.4336 132.179 15.8845 132.125 16.4763H135.263C135.183 15.265 134.676 14.6593 133.744 14.6593ZM148.452 7.92806C148.985 7.92806 149.421 8.08285 149.761 8.39262C150.1 8.70238 150.27 9.09825 150.27 9.57989V21.0188C150.27 21.5419 150.11 21.9547 149.791 22.2575C149.471 22.5604 149.044 22.7119 148.512 22.7119C148.019 22.7119 147.616 22.5777 147.303 22.3093C146.99 22.0408 146.813 21.6725 146.773 21.2047C146.493 21.6865 146.084 22.065 145.544 22.3402C145.004 22.6156 144.408 22.7532 143.756 22.7532C142.916 22.7532 142.167 22.5295 141.508 22.082C140.848 21.6347 140.332 21.005 139.959 20.1927C139.586 19.3806 139.399 18.4515 139.399 17.4054C139.399 16.3593 139.582 15.4404 139.949 14.649C140.315 13.8574 140.828 13.2484 141.488 12.8216C142.147 12.3948 142.903 12.1814 143.756 12.1814C144.382 12.1814 144.958 12.3122 145.484 12.5738C146.01 12.8354 146.42 13.1864 146.713 13.6268V9.51794C146.713 9.03613 146.87 8.65078 147.183 8.36173C147.496 8.07267 147.919 7.92806 148.452 7.92806ZM144.835 20.0071C145.461 20.0071 145.94 19.7869 146.273 19.3463C146.607 18.9057 146.773 18.2727 146.773 17.4466C146.773 16.6344 146.607 16.0117 146.273 15.5781C145.94 15.1444 145.461 14.9275 144.835 14.9275C144.222 14.9275 143.749 15.1409 143.416 15.5677C143.083 15.9945 142.916 16.6069 142.916 17.4054C142.916 18.2311 143.086 18.8714 143.426 19.3256C143.766 19.78 144.235 20.0071 144.835 20.0071ZM154.127 22.7119C153.621 22.7119 153.198 22.5708 152.858 22.2886C152.518 22.0065 152.348 21.583 152.348 21.0188V13.9159C152.348 13.3514 152.518 12.9283 152.858 12.6461C153.198 12.3638 153.621 12.2228 154.127 12.2228C154.633 12.2228 155.056 12.3638 155.396 12.6461C155.736 12.9283 155.906 13.3516 155.906 13.9159V21.0188C155.906 21.5831 155.736 22.0065 155.396 22.2886C155.056 22.5708 154.633 22.7119 154.127 22.7119ZM154.127 10.7774C153.527 10.7774 153.051 10.6157 152.698 10.2921C152.345 9.96869 152.169 9.53848 152.169 9.00161C152.169 8.46475 152.345 8.03816 152.698 7.72149C153.051 7.405 153.527 7.24658 154.127 7.24658C154.713 7.24658 155.186 7.405 155.546 7.72149C155.906 8.03816 156.085 8.46492 156.085 9.00161C156.085 9.53865 155.909 9.96869 155.556 10.2921C155.203 10.6157 154.727 10.7774 154.127 10.7774ZM162.54 12.1814C164.059 12.1814 165.181 12.5565 165.907 13.3067C166.634 14.057 166.997 15.196 166.997 16.7239V21.0392C166.997 21.5624 166.847 21.9718 166.547 22.2677C166.247 22.5637 165.831 22.7117 165.298 22.7117C164.831 22.7117 164.449 22.574 164.149 22.2988C163.849 22.0234 163.686 21.6517 163.659 21.1838C163.473 21.6794 163.16 22.0648 162.72 22.34C162.28 22.6155 161.754 22.753 161.141 22.753C160.462 22.753 159.849 22.612 159.303 22.3297C158.757 22.0475 158.327 21.6551 158.014 21.1528C157.701 20.6504 157.544 20.0826 157.544 19.4493C157.544 18.7197 157.727 18.1383 158.094 17.7046C158.46 17.271 159.043 16.9578 159.842 16.7652C160.642 16.5724 161.721 16.4761 163.08 16.4761H163.619V16.2283C163.619 15.7465 163.513 15.3991 163.3 15.1856C163.086 14.9723 162.727 14.8655 162.22 14.8655C161.674 14.8655 160.875 15.0583 159.823 15.4438C159.516 15.5539 159.256 15.609 159.043 15.609C158.71 15.609 158.444 15.4851 158.244 15.2372C158.044 14.9894 157.944 14.666 157.944 14.2669C157.944 13.964 158.004 13.7162 158.124 13.5235C158.244 13.3309 158.437 13.1586 158.704 13.0073C159.17 12.7595 159.756 12.5598 160.462 12.4085C161.168 12.257 161.861 12.1812 162.54 12.1812L162.54 12.1814ZM161.98 20.2961C162.46 20.2961 162.853 20.1204 163.16 19.7694C163.466 19.4184 163.619 18.9675 163.619 18.417V18.1692H163.299C162.447 18.1692 161.841 18.2484 161.481 18.4067C161.121 18.5651 160.941 18.8301 160.941 19.2017C160.941 19.5183 161.038 19.78 161.231 19.9865C161.424 20.1929 161.674 20.2963 161.98 20.2963V20.2961Z" fill="#FF8C00"/>
</g>
<defs>
<clipPath id="clip0_3754_488">
<rect width="167" height="30" fill="white"/>
</clipPath>
</defs>
</svg>
