<svg width="46" height="46" viewBox="0 0 46 46" fill="none" xmlns="http://www.w3.org/2000/svg">
<g id="mail">
<g id="g4076">
<g id="Clip path group">
<mask id="mask0_3754_93" style="mask-type:luminance" maskUnits="userSpaceOnUse" x="0" y="0" width="46" height="46">
<g id="clipPath4082">
<path id="path4080" d="M45 45V1H1V45H45Z" fill="white" stroke="white" stroke-width="2"/>
</g>
</mask>
<g mask="url(#mask0_3754_93)">
<g id="g4078">
<g id="g4084">
<path id="path4086" d="M4.32031 44.0068L16.0983 32.2289" stroke="#6B6B6B" stroke-width="2" stroke-miterlimit="10" stroke-linecap="round" stroke-linejoin="round"/>
</g>
<g id="g4088">
<path id="path4090" d="M41.6716 44.0068L29.7578 32.093" stroke="#6B6B6B" stroke-width="2" stroke-miterlimit="10" stroke-linecap="round" stroke-linejoin="round"/>
</g>
<g id="g4092">
<path id="path4094" d="M27.0391 45.0991H39.0324C41.0921 45.0991 42.7617 43.4295 42.7617 41.3698V20.5376C42.7617 19.549 42.3691 18.6007 41.6702 17.9014L38.442 14.6717" stroke="#6B6B6B" stroke-width="2" stroke-miterlimit="10" stroke-linecap="round" stroke-linejoin="round"/>
</g>
<g id="g4096">
<path id="path4098" d="M7.5254 14.7105L4.32741 17.9011C3.62753 18.6006 3.23438 19.5494 3.23438 20.539V41.3697C3.23438 43.4294 4.90403 45.0991 6.9637 45.0991H18.9569" stroke="#6B6B6B" stroke-width="2" stroke-miterlimit="10" stroke-linecap="round" stroke-linejoin="round"/>
</g>
<g id="g4100">
<path id="path4102" d="M29.5238 5.7478L24.6809 0.90208C23.3739 0.901631 22.641 0.901451 21.334 0.901002L16.4844 5.74771" stroke="#6B6B6B" stroke-width="2" stroke-miterlimit="10" stroke-linecap="round" stroke-linejoin="round"/>
</g>
<g id="g4104">
<path id="path4106" d="M42.3951 19.3664L25.6505 36.1213C24.1945 37.5781 21.8333 37.5788 20.3764 36.1228L3.67188 19.4285" stroke="#6B6B6B" stroke-width="2" stroke-miterlimit="10" stroke-linecap="round" stroke-linejoin="round"/>
</g>
<g id="g4108">
<path id="path4110" d="M24.0936 22.6803H22.6644C20.5698 22.6803 18.872 20.9823 18.872 18.8879C18.872 16.7934 20.5698 15.0954 22.6644 15.0954C24.6319 15.0954 26.2269 16.6904 26.2269 18.658V20.7377C26.2269 21.9426 27.2037 22.9193 28.4087 22.9193C29.6136 22.9193 30.5904 21.9426 30.5904 20.7377V18.8965C30.5904 14.7078 27.1948 11.3123 23.0061 11.3123C18.8174 11.3123 15.4219 14.7078 15.4219 18.8965C15.4219 23.1493 18.8694 26.5969 23.1223 26.5969H28.5828" stroke="#6B6B6B" stroke-width="2" stroke-miterlimit="10" stroke-linecap="round" stroke-linejoin="round"/>
</g>
<g id="g4112">
<path id="path4114" d="M7.54688 23.2917V8.44282C7.54688 6.9542 8.75357 5.74751 10.2422 5.74751H35.7578C37.2464 5.74751 38.4531 6.9542 38.4531 8.44282V22.9975" stroke="#6B6B6B" stroke-width="2" stroke-miterlimit="10" stroke-linecap="round" stroke-linejoin="round"/>
</g>
</g>
</g>
</g>
</g>
</g>
</svg>
