<svg width="62" height="62" fill="none" xmlns="http://www.w3.org/2000/svg"><g stroke="#1F294C" stroke-width="2" stroke-miterlimit="10" stroke-linecap="round" stroke-linejoin="round"><path d="M31 2.126h7.006L35.502 4.35l2.504 2.224H31M31 1v8.241M11.19 57.456h49.808V61H1v-3.544h5.965M3.898 57.456V38.38M58.102 38.352v19.104M4.625 32.895l1.81-5.224h7.101M48.406 27.67h7.165l1.81 5.224"/><path d="M13.533 38.119H1l1.81-5.224h10.723M48.406 32.895h10.786l1.811 5.224H48.406M48.305 45.044V21.44M48.305 57.456V49.27M13.695 21.281v36.175M45.139 19.76l5.904 2.407v-4.55L30.992 9.351l-9.86 4.064"/><path d="m17.231 15.026-6.286 2.591v4.55l20.052-8.173 10.232 4.17"/><path d="M31.106 29.054a4.87 4.87 0 1 0 0-9.738 4.87 4.87 0 1 0 0 9.738ZM31.102 19.314v9.743M34.267 57.455V44.374h-6.22v13.081M23.735 33.227h-4.829v7.252h4.83v-7.252ZM3.898 51.626h4.837v-7.252H3.898M58.102 51.626h-4.836v-7.252h4.836M43.094 33.227h-4.828v7.252h4.828v-7.252ZM33.415 33.227h-4.83v7.252h4.83v-7.252ZM23.735 44.374h-4.829v7.252h4.83v-7.252ZM43.094 44.374h-4.828v7.252h4.828v-7.252Z"/></g></svg>