<svg width="62" height="62" fill="none" xmlns="http://www.w3.org/2000/svg"><g stroke="#1F294C" stroke-width="2" stroke-miterlimit="10" stroke-linecap="round" stroke-linejoin="round"><path d="M31 2.126h7.006L35.502 4.35l2.504 2.224H31M31 1v8.241M11.19 57.456h49.808V61H1v-3.544h5.965m-3.067 0V38.38m54.204-.028v19.104M4.625 32.895l1.81-5.224h7.101m34.87-.001h7.165l1.81 5.224"/><path d="M13.533 38.119H1l1.81-5.224h10.723m34.873 0h10.786l1.811 5.224H48.406m-.101 6.925V21.44m0 36.016V49.27m-34.61-27.989v36.175M45.139 19.76l5.904 2.407v-4.55L30.992 9.351l-9.86 4.064"/><path d="m17.231 15.026-6.286 2.591v4.55l20.052-8.173 10.232 4.17"/><path d="M31.106 29.054a4.87 4.87 0 1 0 0-9.738 4.87 4.87 0 1 0 0 9.738Zm-.004-9.74v9.743m3.165 28.398V44.374h-6.22v13.081m-4.312-24.228h-4.829v7.252h4.83v-7.252ZM3.898 51.626h4.837v-7.252H3.898m54.204 7.252h-4.836v-7.252h4.836M43.094 33.227h-4.828v7.252h4.828v-7.252Zm-9.679 0h-4.83v7.252h4.83v-7.252Zm-9.68 11.147h-4.829v7.252h4.83v-7.252Zm19.359 0h-4.828v7.252h4.828v-7.252Z"/></g></svg>