<svg width="30" height="22" fill="none" xmlns="http://www.w3.org/2000/svg"><path d="M14.869 9.882a4.938 4.938 0 0 0 4.844-5.905 4.941 4.941 0 0 0-6.735-3.6 4.94 4.94 0 0 0 1.89 9.505Zm0-7.881a2.94 2.94 0 0 1 2.079 5.02 2.94 2.94 0 1 1-2.08-5.02ZM5.533 12.785a3.798 3.798 0 0 0 3.726-4.54 3.8 3.8 0 0 0-5.18-2.77 3.799 3.799 0 0 0 1.454 7.31Zm0-5.6a1.799 1.799 0 1 1 0 3.598 1.799 1.799 0 0 1 0-3.598ZM24.197 12.785a3.798 3.798 0 0 0 3.726-4.54 3.8 3.8 0 1 0-3.726 4.54Zm0-5.6a1.799 1.799 0 0 1 .351 3.566 1.799 1.799 0 0 1-1.623-3.038 1.8 1.8 0 0 1 1.272-.528ZM24.33 14.791a5.266 5.266 0 0 0-2.505.653A8.237 8.237 0 0 0 15 11.607a8.233 8.233 0 0 0-6.825 3.837 5.266 5.266 0 0 0-2.505-.653A5.96 5.96 0 0 0 .005 21a1 1 0 0 0 2 0 3.972 3.972 0 0 1 3.665-4.209 3.27 3.27 0 0 1 1.577.42 10.087 10.087 0 0 0-.711 3.731 1 1 0 0 0 2 0c0-4.045 2.898-7.335 6.464-7.335 3.566 0 6.465 3.29 6.465 7.335a1 1 0 1 0 1.999 0 10.089 10.089 0 0 0-.71-3.732 3.27 3.27 0 0 1 1.576-.419A3.97 3.97 0 0 1 27.995 21a1 1 0 0 0 2 0 5.964 5.964 0 0 0-5.665-6.209Z" fill="#0296D8"/></svg>