<svg width="30" height="22" viewBox="0 0 30 22" fill="none" xmlns="http://www.w3.org/2000/svg">
<path d="M14.8689 9.88155C15.8458 9.88155 16.8008 9.59175 17.6131 9.04881C18.4254 8.50587 19.0585 7.73417 19.4323 6.8313C19.8061 5.92843 19.9038 4.93496 19.7132 3.97651C19.5225 3.01807 19.052 2.13771 18.3611 1.44677C17.6703 0.755828 16.7901 0.285344 15.8319 0.094816C14.8737 -0.0957119 13.8806 0.00227426 12.9781 0.376383C12.0756 0.750492 11.3042 1.38392 10.7616 2.19656C10.219 3.00919 9.92949 3.96454 9.92969 4.94178C9.93128 6.25157 10.4522 7.50725 11.3782 8.43332C12.3041 9.3594 13.5595 9.88023 14.8689 9.88155ZM14.8689 2.00091C15.4504 2.00091 16.0188 2.17339 16.5023 2.49654C16.9857 2.81968 17.3626 3.27898 17.5851 3.81636C17.8076 4.35373 17.8658 4.94504 17.7524 5.51551C17.6389 6.08598 17.3589 6.61 16.9478 7.02128C16.5366 7.43257 16.0128 7.71266 15.4425 7.82614C14.8722 7.93961 14.2811 7.88137 13.7438 7.65878C13.2066 7.4362 12.7475 7.05926 12.4244 6.57563C12.1014 6.09201 11.929 5.52343 11.929 4.94178C11.93 4.16214 12.2401 3.41473 12.7912 2.86344C13.3423 2.31215 14.0895 2.00197 14.8689 2.00091Z" fill="#0296D8"/>
<path d="M5.53301 12.7852C6.28431 12.7852 7.01874 12.5623 7.64342 12.1448C8.26811 11.7273 8.75499 11.1338 9.0425 10.4395C9.33001 9.74518 9.40523 8.98116 9.25866 8.24407C9.11209 7.50697 8.7503 6.82991 8.21906 6.29849C7.68781 5.76708 7.01095 5.40518 6.27409 5.25856C5.53723 5.11194 4.77345 5.18719 4.07934 5.47479C3.38523 5.76239 2.79196 6.24943 2.37456 6.8743C1.95716 7.49918 1.73438 8.23384 1.73438 8.98538C1.73438 9.99315 2.13459 10.9597 2.84697 11.6723C3.55935 12.3849 4.52555 12.7852 5.53301 12.7852ZM5.53301 7.18546C5.88889 7.18546 6.23678 7.29102 6.53268 7.4888C6.82858 7.68658 7.05921 7.96769 7.1954 8.29658C7.33159 8.62547 7.36722 8.98737 7.29779 9.33652C7.22836 9.68567 7.05699 10.0064 6.80535 10.2581C6.5537 10.5098 6.23309 10.6813 5.88405 10.7507C5.53501 10.8202 5.17322 10.7845 4.84443 10.6483C4.51564 10.5121 4.23462 10.2814 4.0369 9.98536C3.83919 9.68936 3.73366 9.34137 3.73366 8.98538C3.73366 8.50801 3.92323 8.05019 4.26068 7.71264C4.59812 7.37509 5.05579 7.18546 5.53301 7.18546Z" fill="#0296D8"/>
<path d="M24.1971 12.7852C24.9484 12.7852 25.6828 12.5623 26.3075 12.1448C26.9322 11.7273 27.4191 11.1338 27.7066 10.4395C27.9941 9.74518 28.0693 8.98116 27.9227 8.24407C27.7762 7.50697 27.4144 6.82991 26.8831 6.29849C26.3519 5.76708 25.675 5.40518 24.9382 5.25856C24.2013 5.11194 23.4375 5.18719 22.7434 5.47479C22.0493 5.76239 21.456 6.24943 21.0386 6.8743C20.6212 7.49918 20.3984 8.23384 20.3984 8.98538C20.3984 9.99315 20.7987 10.9597 21.511 11.6723C22.2234 12.3849 23.1896 12.7852 24.1971 12.7852ZM24.1971 7.18546C24.553 7.18546 24.9008 7.29102 25.1967 7.4888C25.4926 7.68658 25.7233 7.96769 25.8595 8.29658C25.9957 8.62547 26.0313 8.98737 25.9619 9.33652C25.8924 9.68567 25.7211 10.0064 25.4694 10.2581C25.2178 10.5098 24.8972 10.6813 24.5481 10.7507C24.1991 10.8202 23.8373 10.7845 23.5085 10.6483C23.1797 10.5121 22.8987 10.2814 22.701 9.98536C22.5033 9.68936 22.3977 9.34137 22.3977 8.98538C22.3977 8.50801 22.5873 8.05019 22.9247 7.71264C23.2622 7.37509 23.7199 7.18546 24.1971 7.18546Z" fill="#0296D8"/>
<path d="M24.3297 14.7913C23.4533 14.7971 22.5923 15.0215 21.8246 15.4442C21.0947 14.2884 20.0887 13.3325 18.8973 12.6626C17.7059 11.9928 16.3665 11.6302 15 11.6074C13.6335 11.6302 12.2941 11.9928 11.1027 12.6626C9.91131 13.3325 8.90531 14.2884 8.17545 15.4442C7.40772 15.0215 6.54668 14.7971 5.67035 14.7913C4.09781 14.868 2.61948 15.564 1.55812 16.7272C0.496756 17.8905 -0.0614456 19.4265 0.00537684 21C0.00537684 21.2652 0.110696 21.5195 0.298165 21.7071C0.485634 21.8946 0.739897 21.9999 1.00502 21.9999C1.27014 21.9999 1.5244 21.8946 1.71187 21.7071C1.89934 21.5195 2.00466 21.2652 2.00466 21C1.93914 19.9571 2.28722 18.9304 2.97342 18.1425C3.65963 17.3547 4.62864 16.8691 5.67035 16.7912C6.22276 16.7954 6.76511 16.9396 7.24678 17.2102C6.77566 18.3978 6.53447 19.6642 6.53604 20.942C6.53604 21.2072 6.64135 21.4615 6.82882 21.6491C7.01629 21.8366 7.27056 21.942 7.53568 21.942C7.8008 21.942 8.05506 21.8366 8.24253 21.6491C8.43 21.4615 8.53532 21.2072 8.53532 20.942C8.53532 16.8972 11.4343 13.6073 15 13.6073C18.5657 13.6073 21.4647 16.8972 21.4647 20.942C21.4647 21.2072 21.57 21.4615 21.7575 21.6491C21.9449 21.8366 22.1992 21.942 22.4643 21.942C22.7294 21.942 22.9837 21.8366 23.1712 21.6491C23.3586 21.4615 23.464 21.2072 23.464 20.942C23.4655 19.6642 23.2243 18.3978 22.7532 17.2102C23.2349 16.9396 23.7772 16.7954 24.3297 16.7912C25.3714 16.8691 26.3404 17.3547 27.0266 18.1425C27.7128 18.9304 28.0609 19.9571 27.9953 21C27.9953 21.2652 28.1007 21.5195 28.2881 21.7071C28.4756 21.8946 28.7299 21.9999 28.995 21.9999C29.2601 21.9999 29.5144 21.8946 29.7018 21.7071C29.8893 21.5195 29.9946 21.2652 29.9946 21C30.0614 19.4265 29.5032 17.8905 28.4419 16.7272C27.3805 15.564 25.9022 14.868 24.3297 14.7913Z" fill="#0296D8"/>
</svg>