<svg width="54" height="60" fill="none" xmlns="http://www.w3.org/2000/svg"><path d="M53.133 58.242H40.545c.03-.145.046-.296.046-.45V47.93a.873.873 0 0 0-.867-.88.873.873 0 0 0-.866.88v9.862c0 .248-.2.45-.444.45a.448.448 0 0 1-.444-.45V29.004h.888v15.293c0 .485.388.879.866.879a.873.873 0 0 0 .867-.88v-15.77c.236-.26.381-.606.381-.987v-3.954c0-.381-.145-.727-.38-.988v-.928c0-1.218-.978-2.208-2.178-2.208-1.201 0-2.178.99-2.178 2.208v.65h-7.21c-.677 0-1.997-.554-2.477-1.04l-.397-.404V19.07a6.143 6.143 0 0 0-1.694-4.245 7.291 7.291 0 0 0 3.358-6.613h4.27a.873.873 0 0 0 .866-.88.873.873 0 0 0-.866-.878h-4.387v-.67C27.7 2.594 25.14 0 21.995 0h-2.8c-3.146 0-5.705 2.595-5.705 5.784v2.88a7.296 7.296 0 0 0 2.75 5.72c-.44.374-.827.81-1.147 1.294H9.785c-1.296 0-2.351 1.07-2.351 2.385v.146H4.938a.873.873 0 0 0-.867.878c0 .486.388.88.867.88h2.496v1.304h-.92a.873.873 0 0 0-.867.879c0 .485.388.879.867.879h.92v1.786a2.393 2.393 0 0 0-1.04 1.978v5.569c0 1.314 1.056 2.384 2.352 2.384h1.93c.414 0 .803-.11 1.14-.301h2.262v.568a.88.88 0 0 0 .368.718v1.285h-2.417a.873.873 0 0 0-.867.879c0 .485.388.879.867.879h2.417v1.172h-1.497a.873.873 0 0 0-.867.878c0 .486.388.88.867.88h.508L5.721 52.42a1.442 1.442 0 0 0-.188.218l-.843 1.221a1.47 1.47 0 0 0-.239 1.094c.067.386.278.722.594.946l3.298 2.342H.867a.873.873 0 0 0-.867.88c0 .484.388.878.867.878h52.266a.873.873 0 0 0 .867-.879.873.873 0 0 0-.867-.879Zm-41.84-25.88a.623.623 0 0 1-.617.626h-1.93a.623.623 0 0 1-.618-.626v-5.57c0-.345.277-.626.618-.626h1.93c.34 0 .618.282.618.627v5.569Zm2.785-13.292v13.617h-1.075c.014-.106.024-.214.024-.325v-5.57c0-1.314-1.054-2.383-2.351-2.383H9.168v-1.38h.629a.873.873 0 0 0 .867-.879.873.873 0 0 0-.867-.879h-.63v-1.305h.63a.873.873 0 0 0 .867-.879.873.873 0 0 0-.867-.878h-.63v-.146c0-.346.278-.627.618-.627h4.305a.6.6 0 0 1 .198.036 6.183 6.183 0 0 0-.21 1.598Zm11.245 3.452c.803.814 2.569 1.555 3.704 1.555h6.534v2.237h-6.534c-1.729 0-4.041-.97-5.264-2.21l-3.086-3.13a1.119 1.119 0 0 1-.323-.79c0-.3.115-.58.323-.791a1.088 1.088 0 0 1 1.56 0l3.086 3.129Zm-9.511 5.34v-1.313c.777.23 1.581.346 2.404.346 1.636 0 3.206-.48 4.549-1.33.168.155.347.306.536.451a6.842 6.842 0 0 1-5.085 2.285c-.83 0-1.636-.148-2.404-.44Zm-.588-22.078c0-2.22 1.78-4.026 3.97-4.026h2.801c2.19 0 3.97 1.806 3.97 4.026v.67H15.224v-.67Zm0 2.88c0-.152.008-.303.02-.452h10.832a5.522 5.522 0 0 1-3.134 5.453 5.934 5.934 0 0 0-5.075-.275 5.529 5.529 0 0 1-2.643-4.726Zm.588 10.406c0-2.406 1.93-4.363 4.303-4.363s4.303 1.957 4.303 4.363v.048l-.955-.968a2.799 2.799 0 0 0-2.006-.843c-.757 0-1.47.3-2.006.843a2.877 2.877 0 0 0-.83 2.034c0 .768.295 1.49.83 2.034l2.04 2.068c-.99.546-2.111.85-3.275.85-.83 0-1.636-.15-2.404-.442V19.07ZM10.88 57.897 6.275 54.63l.513-.742 4.604 3.269-.513.741Zm15.988-.853v1.198H12.76l.219-.318a1.47 1.47 0 0 0 .239-1.095 1.457 1.457 0 0 0-.594-.945l-.491-.35 2.407-3.335a.887.887 0 0 0-.187-1.228.859.859 0 0 0-1.212.19l-2.429 3.365-2.883-2.047 7.776-10.776h1.415a.873.873 0 0 0 .867-.879.873.873 0 0 0-.867-.878h-.84v-1.172h.972a.873.873 0 0 0 .866-.879.873.873 0 0 0-.866-.879h-.972v-1.124h3.52v4.267c0 1.109-.47 2.564-1.116 3.46l-3.413 4.729a.887.887 0 0 0 .188 1.228.859.859 0 0 0 1.21-.19l3.414-4.73c.804-1.113 1.362-2.747 1.44-4.166l3.412 3.46c.055.08.157.281.189.375l1.89 12.368a1.48 1.48 0 0 0-.044.35Zm-.14-13.032a.728.728 0 0 0-.006-.037c-.069-.354-.365-.943-.61-1.212a.764.764 0 0 0-.024-.026l-4.657-4.722v-2.123h2.884l4.267 4.327c.774.785 1.457 2.15 1.625 3.246l1.85 12.114h-3.56L26.73 44.011Zm7.495 14.23h-5.62v-.905h5.62v.905Zm1.733 0v-1.198c0-.808-.648-1.465-1.444-1.465h-.7L31.92 43.196c-.225-1.471-1.074-3.167-2.112-4.22l-3.687-3.738a.893.893 0 0 0 .03-.224v-2.319a.873.873 0 0 0-.867-.879.873.873 0 0 0-.867.88v1.439h-8.606v-4.426c.777.23 1.58.35 2.404.35 2.378 0 4.605-1 6.202-2.68v1.683c0 .486.388.88.867.88a.873.873 0 0 0 .867-.88v-1.526c.968.34 1.966.536 2.875.536h6.635c.113.292.316.538.574.704v29.016c0 .154.016.305.046.45h-.325ZM37.97 21.67c0-.248.199-.45.444-.45.244 0 .444.201.444.45v.45h-.888v-.45Zm-.675 2.209h1.943v3.368h-1.943v-3.368Z" fill="#1F294C"/></svg>