<svg width="80" height="80" viewBox="0 0 80 80" fill="none" xmlns="http://www.w3.org/2000/svg">
<g id="premium-quality 1" clip-path="url(#clip0_3751_59)">
<g id="Group">
<path id="Vector" d="M19.3506 32.8068C19.3278 32.1601 18.7831 31.6518 18.1382 31.6771C17.4913 31.7 16.9856 32.2427 17.0086 32.8896C17.0612 34.3843 17.2645 35.8888 17.6126 37.3609C18.8238 42.4937 21.6641 46.9255 25.8271 50.1775C29.8787 53.3387 34.9105 55.0797 39.9957 55.0797C41.7673 55.0797 43.5461 54.8714 45.2818 54.461C57.6237 51.5475 65.2954 39.1353 62.3832 26.7916C61.1699 21.6568 58.329 17.2252 54.1675 13.9755C50.1174 10.8141 45.0855 9.073 39.9988 9.073C38.229 9.073 36.4506 9.28127 34.7127 9.69187C28.7466 11.0998 23.6796 14.7578 20.4451 19.9925C19.0016 22.3297 17.9951 24.8582 17.4535 27.5075C17.3239 28.1416 17.7329 28.7608 18.3669 28.8903C19.0011 29.0198 19.62 28.6109 19.7497 27.9769C20.2359 25.5981 21.1407 23.3261 22.4389 21.2242C25.3442 16.5224 29.8944 13.2368 35.2512 11.9727C36.8129 11.6036 38.4101 11.4166 39.9986 11.4166C44.5654 11.4166 49.085 12.9815 52.7251 15.8228C56.4619 18.7407 59.0128 22.72 60.1021 27.3301C62.7176 38.4157 55.8275 49.5633 44.7426 52.18C43.1828 52.5489 41.5856 52.7361 39.9953 52.7361C35.43 52.7361 30.9103 51.1712 27.2691 48.3301C23.5312 45.4102 20.9807 41.4309 19.8932 36.8222C19.5806 35.4989 19.398 34.1481 19.3506 32.8068Z" fill="#EDD918"/>
<path id="Vector_2" d="M49.8247 16.8488C46.8674 14.9407 43.4692 13.9321 39.9978 13.9321C38.604 13.9321 37.2014 14.0962 35.8285 14.4198C31.1261 15.5306 27.1303 18.4169 24.5767 22.5469C22.0243 26.6778 21.2303 31.5422 22.341 36.2439C23.2968 40.2923 25.5358 43.7857 28.8163 46.3465C32.0175 48.8449 35.9873 50.2208 39.9945 50.2208C41.391 50.2208 42.794 50.0561 44.1635 49.7316C48.8728 48.6199 52.871 45.7354 55.4214 41.6093C57.9721 37.4831 58.7644 32.6176 57.6527 27.9088C56.9946 25.1233 55.7422 22.6169 53.9301 20.4594C53.514 19.9638 52.7747 19.8994 52.2793 20.3157C51.7837 20.7319 51.7193 21.4711 52.1355 21.9665C53.71 23.8412 54.7988 26.0217 55.3719 28.4474C56.3397 32.5467 55.6494 36.7833 53.4279 40.377C51.2065 43.9707 47.7252 46.4827 43.624 47.4508C42.4305 47.7336 41.2093 47.877 39.9945 47.877C36.5072 47.877 33.0495 46.6772 30.2584 44.4988C27.4029 42.2698 25.4538 39.2291 24.622 35.7052C23.6552 31.6127 24.3472 27.3771 26.5703 23.7791C28.7946 20.1815 32.2739 17.6675 36.3668 16.7006C37.5631 16.4185 38.7847 16.2756 39.9976 16.2756C43.0175 16.2756 45.9762 17.1548 48.554 18.8179C49.0981 19.1687 49.8232 19.0126 50.1741 18.4686C50.5248 17.925 50.3684 17.1997 49.8247 16.8488Z" fill="#EDD918"/>
<path id="Vector_3" d="M69.8894 32.1074L72.0343 24.1344C72.1431 23.7302 72.0279 23.2985 71.7321 23.0023L65.8997 17.1576L63.7714 9.18028C63.6634 8.77577 63.3479 8.45954 62.9436 8.35064L54.9708 6.20592L49.1383 0.361264C48.8427 0.0650314 48.4112 -0.0510556 48.0068 0.0567506L40.0293 2.18506L32.0563 0.0401891C31.6521 -0.0683983 31.2205 0.0465949 30.9242 0.342359L25.0797 6.17483L17.1024 8.30314C16.6979 8.41111 16.3816 8.72656 16.2727 9.13091L14.1279 17.1037L8.2832 22.9363C7.98697 23.2321 7.87089 23.6633 7.97869 24.0678L10.107 32.0452L7.96213 40.0182C7.85339 40.4224 7.96854 40.854 8.2643 41.1503L14.0968 46.9948L16.2251 54.9721C16.333 55.3766 16.6485 55.6929 17.0528 55.8018L20.1575 56.637L11.1662 72.2147C10.6509 73.4884 11.3019 74.1394 12.4845 73.9323L19.5116 72.0483L21.3956 79.0768C21.6755 80.1216 22.9419 80.3369 23.5422 79.3593L32.4216 63.9802L37.7773 62.5503C38.4025 62.3834 38.7741 61.7411 38.6071 61.1158C38.44 60.4906 37.798 60.1192 37.1726 60.2859L32.0393 61.6566L26.4629 56.0686C26.3176 55.923 26.1365 55.8182 25.938 55.7647L18.3153 53.7141L16.2805 46.0872C16.2276 45.8884 16.1231 45.707 15.9778 45.5614L10.4014 39.9735L12.452 32.3506C12.5055 32.1521 12.5056 31.9429 12.4526 31.7441L10.4178 24.1174L16.0057 18.541C16.1513 18.3957 16.2562 18.2146 16.3096 18.016L18.3603 10.3933L25.9872 8.35845C26.1859 8.30549 26.3673 8.20096 26.5129 8.05566L32.1009 2.47926L39.7237 4.52993C39.9223 4.5832 40.1313 4.58352 40.3301 4.53055L47.9573 2.49567L53.5337 8.08362C53.679 8.22924 53.8601 8.33408 54.0587 8.38751L61.6813 10.4382L63.7161 18.0651C63.769 18.2638 63.8735 18.4452 64.0188 18.5908L69.5952 24.1788L67.5446 31.8016C67.4911 32.0002 67.491 32.2094 67.544 32.408L69.5788 40.0352L63.9909 45.6116C63.8453 45.7569 63.7404 45.938 63.687 46.1365L61.6363 53.7592L54.0094 55.7941C53.8107 55.8471 53.6293 55.9516 53.4837 56.0969L47.8959 61.6731L42.8871 60.3242C42.2628 60.1564 41.6192 60.526 41.451 61.151C41.2827 61.7759 41.6528 62.4189 42.2778 62.5871L47.6928 64.0455L56.534 79.3593C57.0366 80.23 58.4086 80.2847 58.6807 79.0765L60.5633 72.0483L67.5902 73.9321C68.8509 74.2174 69.4237 73.4101 68.9084 72.2144L59.9189 56.643L62.8944 55.8491C63.2989 55.7411 63.6151 55.4257 63.724 55.0213L65.8689 47.0485L71.7136 41.2159C72.0098 40.9201 72.1259 40.4889 72.0181 40.0844L69.8894 32.1074ZM25.8336 58.756L22.3127 64.854C21.4527 66.3432 23.5931 67.3375 24.3423 66.0259L27.5479 60.4738L30.2038 63.1352L22.9272 75.7381L21.4721 70.3097C21.2224 69.6372 20.744 69.3611 20.0369 69.4813L14.6105 70.936L22.5002 57.2672L25.026 57.9466L25.8336 58.756ZM65.4642 70.936L60.0381 69.4813C59.3308 69.3611 58.8524 69.6374 58.6028 70.31L57.1491 75.7373L49.8278 63.0563L52.4864 60.4032L55.7326 66.0255C56.7162 67.5775 58.6221 66.3429 57.7622 64.8537L54.2033 58.6899L54.9169 57.9777L57.5739 57.2689L65.4642 70.936Z" fill="#EDD918"/>
<path id="Vector_4" d="M49.9574 29.2377C49.7139 28.4882 49.0783 27.9521 48.2982 27.8387L43.8341 27.19L41.8376 23.1447C41.4889 22.4381 40.7827 21.999 39.9946 21.999C39.2065 21.999 38.5003 22.4381 38.1516 23.1447L36.1551 27.19L31.6909 27.8387C30.9109 27.9521 30.2752 28.488 30.0317 29.2377C29.7883 29.9871 29.9877 30.7943 30.5519 31.3444L33.7821 34.4931L33.0195 38.9394C32.8863 39.7161 33.1997 40.4864 33.8373 40.9496C34.5437 41.4171 35.2652 41.4693 36.0017 41.106L39.9946 39.0068L43.9875 41.1059C44.6849 41.4726 45.5143 41.4126 46.1519 40.9496C46.7895 40.4865 47.1028 39.7161 46.9696 38.9393L46.207 34.4931L49.4373 31.3444C50.0015 30.7944 50.2009 29.9871 49.9574 29.2377ZM44.13 33.2451C43.8537 33.5143 43.7278 33.9022 43.793 34.2824L44.561 38.7598L40.54 36.6458C40.1765 36.4665 39.8129 36.4665 39.4495 36.6458L35.4285 38.7598L36.1965 34.2824C36.2617 33.9022 36.1358 33.5143 35.8595 33.2451L32.6064 30.074L37.1021 29.4208C37.4838 29.3653 37.8136 29.1256 37.9844 28.7797L39.9949 24.7059L42.0054 28.7797C42.1762 29.1255 42.506 29.3653 42.8877 29.4208L47.3834 30.074L44.13 33.2451Z" fill="#EDD918"/>
</g>
</g>
<defs>
<clipPath id="clip0_3751_59">
<rect width="80" height="80" fill="white"/>
</clipPath>
</defs>
</svg>
