<svg width="46" height="46" viewBox="0 0 46 46" fill="none" xmlns="http://www.w3.org/2000/svg">
<g id="tel" clip-path="url(#clip0_3754_69)">
<path id="Vector" d="M2.78125 23.8406C2.78125 23.3447 2.37906 22.9453 1.88281 22.9453C1.38657 22.9453 0.984375 23.351 0.984375 23.8469C0.984375 24.3432 1.38657 24.7454 1.88281 24.7454C2.37906 24.7454 2.78125 24.3432 2.78125 23.8469V23.8406Z" fill="#6B6B6B"/>
<path id="Vector_2" d="M2.01849 21.2758C2.06798 21.2839 2.11676 21.2878 2.16519 21.2878C2.59756 21.2878 2.97835 20.9754 3.05064 20.535C4.59624 11.1322 12.367 4.19845 21.775 3.62184L21.4736 3.92295C21.1226 4.27391 21.1226 4.8428 21.4736 5.19375C21.6491 5.36923 21.8789 5.45697 22.1088 5.45697C22.339 5.45697 22.5689 5.36923 22.7444 5.19375L24.6192 3.31896C24.9701 2.96801 24.9701 2.39912 24.6192 2.04816L22.7444 0.173371C22.3934 -0.177582 21.8249 -0.177582 21.4736 0.173371C21.1226 0.523973 21.1226 1.09287 21.4736 1.44382L21.8487 1.81899C17.0154 2.08185 12.3849 3.92857 8.69818 7.08785C4.75136 10.47 2.11606 15.1422 1.27763 20.2433C1.19726 20.7333 1.52891 21.1955 2.01849 21.2758Z" fill="#6B6B6B"/>
<path id="Vector_3" d="M33.1958 41.3908C33.1923 41.3929 33.1856 41.3967 33.1811 41.3996C32.7522 41.6431 32.5999 42.1874 32.841 42.6188C33.0056 42.9132 33.3113 43.0789 33.6261 43.0789C33.7745 43.0789 33.9247 43.042 34.0634 42.9648C34.0669 42.9627 34.0735 42.9592 34.0785 42.956C34.507 42.7125 34.6593 42.1681 34.4185 41.7372C34.1764 41.3037 33.6289 41.149 33.1958 41.3908Z" fill="#6B6B6B"/>
<path id="Vector_4" d="M30.2276 42.8034C21.2976 46.1961 11.3884 42.9392 6.17363 35.0607L6.58565 35.1709C7.0647 35.2997 7.55744 35.0147 7.68589 34.5356C7.81434 34.0562 7.53007 33.5639 7.05067 33.4351L4.48941 32.7489C4.25954 32.6872 4.01422 32.7195 3.80786 32.8388C3.60115 32.9578 3.45059 33.1539 3.38917 33.3842L2.70271 35.9454C2.57426 36.4248 2.85888 36.9176 3.33793 37.046C3.41585 37.0667 3.49411 37.0769 3.57097 37.0769C3.96789 37.0769 4.33078 36.8119 4.43852 36.4104L4.57575 35.8984C7.22474 39.96 11.1473 43.0498 15.7371 44.661C18.1113 45.4942 20.5918 45.9104 23.0685 45.9104C25.7179 45.9104 28.363 45.4338 30.8656 44.4834C31.3293 44.3069 31.5626 43.7882 31.3865 43.3242C31.2103 42.8606 30.6912 42.6276 30.2276 42.8034Z" fill="#6B6B6B"/>
<path id="Vector_5" d="M33.1796 6.29432L33.2056 6.30941C33.346 6.38943 33.4983 6.42733 33.6488 6.42733C33.9612 6.42733 34.2644 6.26414 34.4304 5.97355C34.6757 5.54258 34.5255 4.99404 34.0946 4.74802L34.0865 4.74311C33.658 4.49253 33.1077 4.63712 32.8574 5.06528C32.6069 5.4938 32.7511 6.04409 33.1796 6.29432Z" fill="#6B6B6B"/>
<path id="Vector_6" d="M30.3168 25.1618C29.7229 24.568 28.9333 24.2409 28.0938 24.2409C27.254 24.2409 26.4643 24.568 25.8705 25.1618L25.2248 25.8079C25.083 25.9497 24.8945 26.0276 24.6941 26.0276C24.4937 26.0276 24.3053 25.9497 24.1635 25.8079L21.1028 22.7473C20.8101 22.4546 20.8101 21.9787 21.1028 21.686L21.7486 21.0399C22.3424 20.4461 22.6695 19.6568 22.6695 18.8169C22.6695 17.9771 22.3424 17.1878 21.7489 16.594L17.6386 12.4836C17.0448 11.8898 16.2551 11.5627 15.4156 11.5627C14.5758 11.5627 13.7862 11.8898 13.1923 12.4836C11.4664 14.2096 10.5156 16.5045 10.5156 18.9457C10.5156 21.387 11.4664 23.6819 13.1923 25.4078L21.5026 33.7184C23.2844 35.4999 25.6249 36.3909 27.965 36.3909C30.3052 36.3909 32.6457 35.4999 34.4271 33.7184C35.0209 33.1246 35.348 32.335 35.348 31.4955C35.348 30.6556 35.0209 29.866 34.4271 29.2722L30.3168 25.1618ZM33.1563 32.4476C30.2939 35.31 25.6361 35.3103 22.773 32.4476L14.4628 24.1374C13.0762 22.7504 12.3125 20.9069 12.3125 18.9457C12.3125 16.9846 13.0762 15.1411 14.4628 13.7541C14.7172 13.4997 15.0556 13.3596 15.4153 13.3596C15.775 13.3596 16.1133 13.4997 16.3678 13.7541L20.4781 17.8645C20.7326 18.1189 20.8726 18.4572 20.8726 18.8169C20.8726 19.1767 20.7326 19.515 20.4781 19.7694L19.832 20.4155C18.8388 21.4087 18.8388 23.0249 19.832 24.0181L22.8923 27.0787C23.3735 27.5599 24.0133 27.8249 24.6938 27.8249C25.3743 27.8249 26.0141 27.5599 26.4952 27.0787L27.1413 26.4326C27.3958 26.1782 27.7337 26.0382 28.0938 26.0382C28.4535 26.0382 28.7919 26.1782 29.0459 26.4326L33.1567 30.543C33.4108 30.7974 33.5511 31.1358 33.5511 31.4955C33.5511 31.8552 33.4108 32.1932 33.1563 32.4476Z" fill="#6B6B6B"/>
<path id="Vector_7" d="M26 10.7227C25.5041 10.7227 25.1016 11.1248 25.1016 11.6211C25.1016 12.117 25.5041 12.5195 26 12.5195C30.6112 12.5195 34.3629 16.2709 34.3629 20.882C34.3629 21.3783 34.7651 21.7805 35.2613 21.7805C35.7576 21.7805 36.1597 21.3783 36.1597 20.882C36.1597 15.2801 31.6023 10.7227 26 10.7227Z" fill="#6B6B6B"/>
<path id="Vector_8" d="M26 17.8116C27.6934 17.8116 29.0708 19.1891 29.0708 20.8821C29.0708 21.3784 29.4734 21.7806 29.9693 21.7806C30.4655 21.7806 30.8677 21.3784 30.8677 20.8821C30.8677 18.198 28.6841 16.0144 26 16.0144C25.5041 16.0144 25.1016 16.4169 25.1016 16.9128C25.1016 17.4091 25.5041 17.8116 26 17.8116Z" fill="#6B6B6B"/>
<path id="Vector_9" d="M43.2384 33.6862L42.7271 33.8234C47.314 24.7896 45.1676 13.7156 37.3961 7.08082C37.0188 6.75864 36.4513 6.80356 36.1292 7.18084C35.807 7.55811 35.8519 8.12525 36.2292 8.44743C43.3233 14.5038 45.3136 24.5885 41.2015 32.8583L41.0913 32.4467C40.9628 31.9673 40.4701 31.6826 39.991 31.8114C39.5116 31.9399 39.227 32.4323 39.3555 32.9117L40.0419 35.4729C40.1493 35.8744 40.5126 36.139 40.9091 36.139C40.986 36.139 41.0646 36.1292 41.1422 36.1081L43.7034 35.422C44.1828 35.2936 44.4675 34.8008 44.339 34.3218C44.2106 33.8424 43.7175 33.5578 43.2384 33.6862Z" fill="#6B6B6B"/>
</g>
<defs>
<clipPath id="clip0_3754_69">
<rect width="46" height="46" fill="white"/>
</clipPath>
</defs>
</svg>
