<svg width="60" height="60" fill="none" xmlns="http://www.w3.org/2000/svg"><mask id="a" style="mask-type:luminance" maskUnits="userSpaceOnUse" x="0" y="0" width="60" height="60"><path d="M59 59V1H1v58h58Z" fill="#fff" stroke="#fff" stroke-width="2"/></mask><g mask="url(#a)" stroke="#1F294C" stroke-width="2"><path d="M12.89 35.39 3.14 19.394a11.665 11.665 0 0 1-1.968-6.502c0-6.473 5.246-11.72 11.719-11.72 6.472 0 11.718 5.247 11.718 11.72 0 2.405-.725 4.641-1.968 6.502l-9.75 15.998Z" stroke-miterlimit="10" stroke-linecap="round" stroke-linejoin="round"/><path d="M17.578 12.89a4.688 4.688 0 1 1-9.375 0 4.688 4.688 0 0 1 9.375 0ZM47.11 54.14a2.344 2.344 0 1 1 0 4.688 2.344 2.344 0 0 1 0-4.687Z" stroke-miterlimit="10" stroke-linecap="round" stroke-linejoin="round"/><path d="m47.11 54.14-9.75-15.294a11.665 11.665 0 0 1-1.97-6.502c0-6.473 5.247-11.719 11.72-11.719 6.472 0 11.718 5.247 11.718 11.719 0 2.406-.725 4.642-1.969 6.502l-9.75 15.295Z" stroke-miterlimit="10" stroke-linecap="round" stroke-linejoin="round"/><path d="M51.797 32.344a4.688 4.688 0 1 1-9.376 0 4.688 4.688 0 0 1 9.376 0ZM15.234 37.734a2.343 2.343 0 1 1-4.686.002 2.343 2.343 0 0 1 4.686-.002Z" stroke-miterlimit="10" stroke-linecap="round" stroke-linejoin="round"/><path d="M28.242 56.656a.172.172 0 1 0 0-.344.172.172 0 0 0 0 .344Z"/><path d="M15.234 37.734h10.079a4.688 4.688 0 0 1 0 9.375H11.25a4.688 4.688 0 0 0 0 9.375h11.719M33.516 56.484h11.25" stroke-miterlimit="10" stroke-linecap="round" stroke-linejoin="round"/></g></svg>