<svg width="60.000000" height="60.000000" viewBox="0 0 60 60" fill="none" xmlns="http://www.w3.org/2000/svg" xmlns:xlink="http://www.w3.org/1999/xlink">
	<desc>
			Created with Pixso.
	</desc>
	<defs/>
	<mask id="mask1748_268" mask-type="alpha" maskUnits="userSpaceOnUse" x="0.000000" y="0.000000" width="60.000000" height="60.000000">
		<path id="path582" d="M0 0L60 0L60 60L0 60L0 0Z" fill="#FFFFFF" fill-opacity="1.000000" fill-rule="nonzero"/>
		<path id="path582" d="M60 0L0 0L0 60L60 60L60 0ZM58 58L2 58L2 2L58 2L58 58Z" fill="#1F294C" fill-opacity="1.000000" fill-rule="evenodd"/>
	</mask>
	<g mask="url(#mask1748_268)">
		<path id="path588" d="M3.14062 19.3936C1.89844 17.5322 1.17188 15.2964 1.17188 12.8906C1.17188 6.41846 6.42188 1.17188 12.8906 1.17188C19.3594 1.17188 24.6094 6.41846 24.6094 12.8906C24.6094 15.2964 23.8828 17.5322 22.6406 19.3936L12.8906 35.3906L3.14062 19.3936Z" stroke="#1F294C" stroke-opacity="1.000000" stroke-width="2.000000" stroke-linejoin="round"/>
		<path id="path592" d="M12.8906 17.5781C10.3047 17.5781 8.20312 15.4795 8.20312 12.8906C8.20312 10.3018 10.3047 8.20312 12.8906 8.20312C15.4766 8.20312 17.5781 10.3018 17.5781 12.8906C17.5781 15.4795 15.4766 17.5781 12.8906 17.5781Z" stroke="#1F294C" stroke-opacity="1.000000" stroke-width="2.000000" stroke-linejoin="round"/>
		<path id="path596" d="M49.4531 56.4844C49.4531 57.7793 48.4062 58.8281 47.1094 58.8281C45.8125 58.8281 44.7656 57.7793 44.7656 56.4844C44.7656 55.1904 45.8125 54.1406 47.1094 54.1406C48.4062 54.1406 49.4531 55.1904 49.4531 56.4844Z" stroke="#1F294C" stroke-opacity="1.000000" stroke-width="2.000000" stroke-linejoin="round"/>
		<path id="path600" d="M47.1094 54.1406L37.3594 38.8467C36.1172 36.9854 35.3906 34.7495 35.3906 32.3438C35.3906 25.8716 40.6406 20.625 47.1094 20.625C53.5781 20.625 58.8281 25.8716 58.8281 32.3438C58.8281 34.7495 58.1016 36.9854 56.8594 38.8467L47.1094 54.1406Z" fill="#FFFFFF" fill-opacity="0" fill-rule="nonzero"/>
		<path id="path600" d="M37.3594 38.8467C36.1172 36.9854 35.3906 34.7495 35.3906 32.3438C35.3906 25.8716 40.6406 20.625 47.1094 20.625C53.5781 20.625 58.8281 25.8716 58.8281 32.3438C58.8281 34.7495 58.1016 36.9854 56.8594 38.8467L47.1094 54.1406L37.3594 38.8467Z" stroke="#1F294C" stroke-opacity="1.000000" stroke-width="2.000000" stroke-linejoin="round"/>
		<path id="path604" d="M47.1094 37.0312C44.5234 37.0312 42.4219 34.9326 42.4219 32.3438C42.4219 29.7549 44.5234 27.6562 47.1094 27.6562C49.6953 27.6562 51.7969 29.7549 51.7969 32.3438C51.7969 34.9326 49.6953 37.0312 47.1094 37.0312Z" stroke="#1F294C" stroke-opacity="1.000000" stroke-width="2.000000" stroke-linejoin="round"/>
		<path id="path608" d="M12.8906 40.0781C11.5938 40.0781 10.5469 39.0293 10.5469 37.7344C10.5469 36.4404 11.5938 35.3906 12.8906 35.3906C14.1875 35.3906 15.2344 36.4404 15.2344 37.7344C15.2344 39.0293 14.1875 40.0781 12.8906 40.0781Z" stroke="#1F294C" stroke-opacity="1.000000" stroke-width="2.000000" stroke-linejoin="round"/>
		<path id="path612" d="M28.2422 57.6562C28.8906 57.6562 29.4141 57.1318 29.4141 56.4844C29.4141 55.8369 28.8906 55.3125 28.2422 55.3125C27.5938 55.3125 27.0703 55.8369 27.0703 56.4844C27.0703 57.1318 27.5938 57.6562 28.2422 57.6562ZM28.3828 55.668Q28.3125 55.6562 28.2422 55.6562Q28.1719 55.6562 28.1016 55.668Q28.0078 55.6841 27.9219 55.7222Q27.8359 55.7563 27.7656 55.8057Q27.7109 55.8472 27.6562 55.8989Q27.6016 55.9507 27.5625 56.0098Q27.5156 56.0806 27.4766 56.1616Q27.4453 56.251 27.4297 56.3447Q27.4141 56.4136 27.4141 56.4844Q27.4141 56.5552 27.4297 56.624Q27.4453 56.7178 27.4766 56.8071Q27.5156 56.8882 27.5625 56.959Q27.6016 57.0181 27.6562 57.0698Q27.7109 57.1216 27.7656 57.1631Q27.8359 57.2124 27.9219 57.2466Q28.0078 57.2847 28.1016 57.3008Q28.1719 57.3125 28.2422 57.3125Q28.3125 57.3125 28.3828 57.3008Q28.4766 57.2847 28.5625 57.2466Q28.6484 57.2124 28.7188 57.1631Q28.7734 57.1216 28.8281 57.0698Q28.8828 57.0181 28.9219 56.959Q28.9688 56.8882 29.0078 56.8071Q29.0391 56.7178 29.0547 56.624Q29.0703 56.5552 29.0703 56.4844Q29.0703 56.4136 29.0547 56.3447Q29.0391 56.251 29.0078 56.1616Q28.9688 56.0806 28.9219 56.0098Q28.8828 55.9507 28.8281 55.8989Q28.7734 55.8472 28.7188 55.8057Q28.6484 55.7563 28.5625 55.7222Q28.4766 55.6841 28.3828 55.668Z" fill="#1F294C" fill-opacity="1.000000" fill-rule="evenodd"/>
		<path id="path616" d="M15.2344 37.7344L25.3125 37.7344C27.8984 37.7344 30 39.833 30 42.4219C30 45.0107 27.8984 47.1094 25.3125 47.1094L11.25 47.1094C8.66406 47.1094 6.5625 49.208 6.5625 51.7969C6.5625 54.3857 8.66406 56.4844 11.25 56.4844L22.9688 56.4844" stroke="#1F294C" stroke-opacity="1.000000" stroke-width="2.000000" stroke-linejoin="round" stroke-linecap="round"/>
		<path id="path620" d="M33.5156 56.4844L44.7656 56.4844M33.5391 55.5044L33.5156 55.4844C32.9531 55.4844 32.5156 55.9243 32.5156 56.4844C32.5156 57.0444 32.9531 57.4844 33.5156 57.4844L33.5391 57.4644L33.5391 55.5044ZM44.7422 57.4644L44.7656 57.4844C45.3281 57.4844 45.7656 57.0444 45.7656 56.4844C45.7656 55.9243 45.3281 55.4844 44.7656 55.4844L44.7422 55.5044L44.7422 57.4644Z" fill="#FFFFFF" fill-opacity="1.000000" fill-rule="nonzero"/>
		<path id="path620" d="M33.5156 56.4844L44.7656 56.4844" stroke="#1F294C" stroke-opacity="1.000000" stroke-width="2.000000" stroke-linejoin="round" stroke-linecap="round"/>
	</g>
</svg>
